SplineFontDB: 3.2
FontName: Charcoal
FullName: Charcoal
FamilyName: Charcoal
Weight: Book
Copyright: (c)1995-1997 The Font Bureau, Inc. All Rights Reserved.\n* 2023 Michel Pollet -- Added some glyphs for libmui
Version: 3.2
ItalicAngle: 0
UnderlinePosition: 0
UnderlineWidth: 0
Ascent: 1536
Descent: 512
InvalidEm: 0
sfntRevision: 0x00010000
LayerCount: 2
Layer: 0 1 "Back" 1
Layer: 1 1 "Fore" 0
XUID: [1021 220 -731427345 9134032]
StyleMap: 0x0040
FSType: 0
OS2Version: 0
OS2_WeightWidthSlopeOnly: 0
OS2_UseTypoMetrics: 0
CreationTime: 830956166
ModificationTime: 1699771305
PfmFamily: 81
TTFWeight: 400
TTFWidth: 5
LineGap: 171
VLineGap: 0
Panose: 0 0 0 0 0 0 0 0 0 0
OS2TypoAscent: 1536
OS2TypoAOffset: 0
OS2TypoDescent: -512
OS2TypoDOffset: 0
OS2TypoLinegap: 171
OS2WinAscent: 2048
OS2WinAOffset: 0
OS2WinDescent: 512
OS2WinDOffset: 0
HheadAscent: 2048
HheadAOffset: 0
HheadDescent: -512
HheadDOffset: 0
OS2SubXSize: 1434
OS2SubYSize: 1331
OS2SubXOff: 0
OS2SubYOff: 293
OS2SupXSize: 1434
OS2SupYSize: 1331
OS2SupXOff: 0
OS2SupYOff: 928
OS2StrikeYSize: 102
OS2StrikeYPos: 530
OS2Vendor: 'Alts'
OS2UnicodeRanges: 00000000.00000000.00000000.00000000
MarkAttachClasses: 1
DEI: 91125
TtTable: prep
NPUSHB
 98
 63
 37
 63
 38
 79
 37
 3
 39
 37
 38
 31
 39
 37
 38
 31
 38
 37
 38
 31
 36
 37
 38
 31
 15
 37
 47
 37
 95
 37
 143
 37
 191
 37
 208
 37
 6
 208
 72
 1
 116
 117
 160
 15
 16
 86
 1
 115
 34
 224
 15
 26
 42
 160
 15
 97
 42
 160
 15
 64
 51
 80
 51
 96
 51
 112
 51
 128
 51
 144
 51
 6
 45
 47
 160
 15
 95
 47
 1
 80
 58
 1
 208
 58
 1
 58
 42
 224
 15
 42
 30
 200
 15
 43
 35
 160
 15
 34
 35
PUSHW_1
 416
NPUSHB
 20
 15
 127
 46
 1
 144
 46
 1
 16
 62
 32
 62
 48
 62
 3
 33
 31
 224
 15
 35
 31
PUSHW_1
 352
NPUSHB
 51
 15
 30
 31
 224
 15
 41
 31
 224
 15
 63
 211
 1
 204
 205
 224
 15
 16
 90
 80
 90
 96
 90
 112
 87
 144
 89
 144
 90
 6
 110
 111
 160
 15
 113
 114
 18
 31
 76
 75
 224
 15
 15
 74
 31
 74
 2
 48
 95
 1
 68
 69
PUSHW_1
 288
NPUSHB
 12
 15
 63
 69
 79
 69

StartChar: .notdef
Encoding: 409 -1 0
Width: 1024
GlyphClass: 1
Flags: W
LayerCount: 2
Fore
SplineSet
877 0 m 1,0,-1
 147 0 l 1,1,-1
 147 1552 l 1,2,-1
 877 1552 l 1,3,-1
 877 0 l 1,0,-1
727 150 m 1,4,-1
 727 1403 l 1,5,-1
 297 1403 l 1,6,-1
 297 150 l 1,7,-1
 727 150 l 1,4,-1
EndSplineSet
EndChar

StartChar: exclam
Encoding: 24 33 4
Width: 652
GlyphClass: 1
Flags: W
LayerCount: 2
Fore
SplineSet
844 1509 m 1,0,-1
 578 514 l 1,1,-1
 311 514 l 1,2,-1
 505 1509 l 1,3,-1
 844 1509 l 1,0,-1
475 0 m 1,4,-1
 178 0 l 1,5,-1
 252 319 l 1,6,-1
 548 319 l 1,7,-1
 475 0 l 1,4,-1
EndSplineSet
EndChar

StartChar: quotedbl
Encoding: 25 34 5
Width: 945
GlyphClass: 1
Flags: W
LayerCount: 2
Fore
SplineSet
1219 1509 m 1,0,-1
 1046 1024 l 1,1,-1
 838 1024 l 1,2,-1
 901 1509 l 1,3,-1
 1219 1509 l 1,0,-1
743 1509 m 1,4,-1
 570 1024 l 1,5,-1
 362 1024 l 1,6,-1
 425 1509 l 1,7,-1
 743 1509 l 1,4,-1
EndSplineSet
EndChar

StartChar: numbersign
Encoding: 26 35 6
Width: 1421
GlyphClass: 1
Flags: W
LayerCount: 2
Fore
SplineSet
1687 1151 m 1,0,-1
 1574 911 l 1,1,-1
 1224 911 l 1,2,-1
 1083 598 l 1,3,-1
 1445 598 l 1,4,-1
 1336 358 l 1,5,-1
 976 358 l 1,6,-1
 811 0 l 1,7,-1
 651 0 l 1,8,-1
 814 358 l 1,9,-1
 597 358 l 1,10,-1
 434 0 l 1,11,-1
 274 0 l 1,12,-1
 435 358 l 1,13,-1
 83 358 l 1,14,-1
 187 598 l 1,15,-1
 544 598 l 1,16,-1
 685 911 l 1,17,-1
 325 911 l 1,18,-1
 429 1151 l 1,19,-1
 793 1151 l 1,20,-1
 954 1509 l 1,21,-1
 1119 1509 l 1,22,-1
 957 1151 l 1,23,-1
 1171 1151 l 1,24,-1
 1331 1509 l 1,25,-1
 1495 1509 l 1,26,-1
 1332 1151 l 1,27,-1
 1687 1151 l 1,0,-1
1061 911 m 1,28,-1
 848 911 l 1,29,-1
 705 598 l 1,30,-1
 921 598 l 1,31,-1
 1061 911 l 1,28,-1
EndSplineSet
EndChar

StartChar: dollar
Encoding: 27 36 7
Width: 1107
GlyphClass: 1
Flags: W
LayerCount: 2
Fore
SplineSet
1139 451 m 0,0,1
 1093 252 1093 252 939.5 126 c 128,-1,2
 786 0 786 0 564 -16 c 1,3,-1
 514 -170 l 1,4,-1
 379 -170 l 1,5,-1
 429 -20 l 1,6,7
 311 -18 311 -18 236 -4 c 128,-1,8
 161 10 161 10 94 33 c 1,9,-1
 153 279 l 1,10,11
 195 256 195 256 272 228.5 c 128,-1,12
 349 201 349 201 500 199 c 1,13,-1
 658 668 l 1,14,15
 649 672 649 672 638 677 c 128,-1,16
 627 682 627 682 614 688 c 0,17,18
 484 750 484 750 408 849 c 128,-1,19
 332 948 332 948 371 1114 c 0,20,21
 416 1307 416 1307 575.5 1413.5 c 128,-1,22
 735 1520 735 1520 944 1528 c 1,23,-1
 1001 1700 l 1,24,-1
 1138 1700 l 1,25,-1
 1078 1524 l 1,26,27
 1144 1518 1144 1518 1201 1506.5 c 128,-1,28
 1258 1495 1258 1495 1301 1481 c 1,29,-1
 1248 1253 l 1,30,31
 1186 1282 1186 1282 1131.5 1292.5 c 128,-1,32
 1077 1303 1077 1303 1006 1307 c 1,33,-1
 874 911 l 1,34,35
 1073 811 1073 811 1121.5 698.5 c 128,-1,36
 1170 586 1170 586 1139 451 c 0,0,1
870 1309 m 1,37,38
 787 1294 787 1294 722.5 1262.5 c 128,-1,39
 658 1231 658 1231 643 1165 c 0,40,41
 628 1100 628 1100 646.5 1060 c 128,-1,42
 665 1020 665 1020 758 971 c 1,43,-1
 870 1309 l 1,37,38
845 391 m 0,44,45
 859 451 859 451 846.5 502 c 128,-1,46
 834 553 834 553 770 600 c 1,47,-1
 638 203 l 1,48,49
 708 217 708 217 766 259 c 128,-1,50
 824 301 824 301 845 391 c 0,44,45
EndSplineSet
EndChar

StartChar: percent
Encoding: 28 37 8
Width: 1741
GlyphClass: 1
Flags: W
LayerCount: 2
Fore
SplineSet
1067 1153 m 2,0,1
 1033 1006 1033 1006 915 915.5 c 128,-1,2
 797 825 797 825 637 825 c 0,3,4
 479 825 479 825 397 919.5 c 128,-1,5
 315 1014 315 1014 347 1151 c 2,6,-1
 359 1206 l 2,7,8
 388 1333 388 1333 505.5 1432.5 c 128,-1,9
 623 1532 623 1532 800 1532 c 0,10,11
 967 1532 967 1532 1039.5 1439 c 128,-1,12
 1112 1346 1112 1346 1079 1206 c 2,13,-1
 1067 1153 l 2,0,1
1816 1509 m 1,14,-1
 505 0 l 1,15,-1
 267 0 l 1,16,-1
 1578 1509 l 1,17,-1
 1816 1509 l 1,14,-1
1722 305 m 2,18,19
 1684 139 1684 139 1567 58 c 128,-1,20
 1450 -23 1450 -23 1295 -23 c 0,21,22
 1127 -23 1127 -23 1049 69.5 c 128,-1,23
 971 162 971 162 1004 303 c 2,24,-1
 1016 358 l 2,25,26
 1044 481 1044 481 1163 582.5 c 128,-1,27
 1282 684 1282 684 1458 684 c 0,28,29
 1625 684 1625 684 1696 592 c 128,-1,30
 1767 500 1767 500 1734 358 c 2,31,-1
 1722 305 l 2,18,19
831 1163 m 2,32,-1
 835 1180 l 2,33,34
 854 1262 854 1262 843.5 1312 c 128,-1,35
 833 1362 833 1362 761 1362 c 0,36,37
 690 1362 690 1362 651.5 1314 c 128,-1,38
 613 1266 613 1266 593 1180 c 2,39,-1
 589 1163 l 2,40,41
 573 1094 573 1094 586.5 1037.5 c 128,-1,42
 600 981 600 981 675 981 c 0,43,44
 742 981 742 981 777.5 1033 c 128,-1,45
 813 1085 813 1085 831 1163 c 2,32,-1
1488 315 m 2,46,-1
 1492 332 l 2,47,48
 1511 414 1511 414 1500.5 464 c 128,-1,49
 1490 514 1490 514 1419 514 c 0,50,51
 1348 514 1348 514 1309 466 c 128,-1,52
 1270 418 1270 418 1250 332 c 2,53,-1
 1246 315 l 2,54,55
 1230 246 1230 246 1244 189.5 c 128,-1,56
 1258 133 1258 133 1333 133 c 0,57,58
 1399 133 1399 133 1434.5 185.5 c 128,-1,59
 1470 238 1470 238 1488 315 c 2,46,-1
EndSplineSet
EndChar

StartChar: ampersand
Encoding: 29 38 9
Width: 1346
GlyphClass: 1
Flags: W
LayerCount: 2
Fore
SplineSet
1334 0 m 1,0,1
 1258 0 1258 0 1185.5 0 c 128,-1,2
 1113 0 1113 0 1040 0 c 1,3,4
 1006 49 1006 49 986 82 c 128,-1,5
 966 115 966 115 933 168 c 1,6,7
 816 59 816 59 699 17 c 128,-1,8
 582 -25 582 -25 475 -25 c 0,9,10
 266 -25 266 -25 183 79.5 c 128,-1,11
 100 184 100 184 140 358 c 0,12,13
 176 512 176 512 278 620.5 c 128,-1,14
 380 729 380 729 574 848 c 1,15,16
 494 991 494 991 486.5 1060.5 c 128,-1,17
 479 1130 479 1130 493 1190 c 0,18,19
 527 1339 527 1339 646 1434.5 c 128,-1,20
 765 1530 765 1530 921 1530 c 0,21,22
 1106 1530 1106 1530 1176 1435.5 c 128,-1,23
 1246 1341 1246 1341 1215 1206 c 0,24,25
 1187 1085 1187 1085 1111.5 1001.5 c 128,-1,26
 1036 918 1036 918 863 805 c 1,27,28
 896 733 896 733 929.5 675.5 c 128,-1,29
 963 618 963 618 1014 518 c 1,30,31
 1110 608 1110 608 1167.5 683 c 128,-1,32
 1225 758 1225 758 1299 885 c 1,33,-1
 1479 762 l 1,34,35
 1416 645 1416 645 1316 521 c 128,-1,36
 1216 397 1216 397 1136 328 c 1,37,38
 1220 190 1220 190 1260 122.5 c 128,-1,39
 1300 55 1300 55 1334 0 c 1,0,1
961 1176 m 0,40,41
 975 1235 975 1235 958.5 1274 c 128,-1,42
 942 1313 942 1313 875 1313 c 0,43,44
 813 1313 813 1313 779 1269 c 128,-1,45
 745 1225 745 1225 735 1182 c 0,46,47
 730 1159 730 1159 738.5 1119 c 128,-1,48
 747 1079 747 1079 786 993 c 1,49,50
 866 1051 866 1051 908.5 1092 c 128,-1,51
 951 1133 951 1133 961 1176 c 0,40,41
821 360 m 1,52,53
 767 455 767 455 737 510 c 128,-1,54
 707 565 707 565 661 657 c 1,55,56
 552 573 552 573 497.5 509.5 c 128,-1,57
 443 446 443 446 428 381 c 0,58,59
 412 311 412 311 442 271 c 128,-1,60
 472 231 472 231 551 231 c 0,61,62
 611 231 611 231 677 259 c 128,-1,63
 743 287 743 287 821 360 c 1,52,53
EndSplineSet
EndChar

StartChar: quotesingle
Encoding: 30 39 10
Width: 472
GlyphClass: 1
Flags: W
LayerCount: 2
Fore
SplineSet
734 1509 m 1,0,-1
 587 1020 l 1,1,-1
 356 1020 l 1,2,-1
 436 1509 l 1,3,-1
 734 1509 l 1,0,-1
EndSplineSet
EndChar

StartChar: parenleft
Encoding: 31 40 11
Width: 786
GlyphClass: 1
Flags: W
LayerCount: 2
Fore
SplineSet
646 -178 m 1,0,1
 404 -170 404 -170 274 61.5 c 128,-1,2
 144 293 144 293 235 688 c 0,3,4
 312 1022 312 1022 556.5 1285 c 128,-1,5
 801 1548 801 1548 1047 1556 c 1,6,-1
 1012 1407 l 1,7,8
 884 1358 884 1358 735 1141 c 128,-1,9
 586 924 586 924 532 688 c 0,10,11
 473 434 473 434 524.5 227 c 128,-1,12
 576 20 576 20 681 -29 c 1,13,-1
 646 -178 l 1,0,1
EndSplineSet
EndChar

StartChar: parenright
Encoding: 32 41 12
Width: 786
GlyphClass: 1
Flags: W
LayerCount: 2
Fore
SplineSet
869 688 m 0,0,1
 780 303 780 303 546 69.5 c 128,-1,2
 312 -164 312 -164 58 -178 c 1,3,-1
 92 -29 l 1,4,5
 255 27 255 27 380 214 c 128,-1,6
 505 401 505 401 571 688 c 0,7,8
 625 924 625 924 584.5 1141 c 128,-1,9
 544 1358 544 1358 424 1407 c 1,10,-1
 458 1556 l 1,11,12
 704 1556 704 1556 830 1309.5 c 128,-1,13
 956 1063 956 1063 869 688 c 0,0,1
EndSplineSet
EndChar

StartChar: asterisk
Encoding: 33 42 13
Width: 1021
GlyphClass: 1
Flags: W
LayerCount: 2
Fore
SplineSet
1139 850 m 1,0,-1
 892 850 l 1,1,-1
 1049 625 l 1,2,-1
 907 502 l 1,3,-1
 695 805 l 1,4,-1
 343 502 l 1,5,-1
 257 625 l 1,6,-1
 518 850 l 1,7,-1
 271 850 l 1,8,-1
 310 1020 l 1,9,-1
 544 1020 l 1,10,-1
 397 1231 l 1,11,-1
 540 1354 l 1,12,-1
 752 1051 l 1,13,-1
 1103 1354 l 1,14,-1
 1189 1231 l 1,15,-1
 944 1020 l 1,16,-1
 1179 1020 l 1,17,-1
 1139 850 l 1,0,-1
EndSplineSet
EndChar

StartChar: plus
Encoding: 34 43 14
Width: 1100
GlyphClass: 1
Flags: W
LayerCount: 2
Fore
SplineSet
1132 582 m 1,0,-1
 790 582 l 1,1,-1
 707 225 l 1,2,-1
 497 225 l 1,3,-1
 579 582 l 1,4,-1
 237 582 l 1,5,-1
 287 799 l 1,6,-1
 630 799 l 1,7,-1
 712 1155 l 1,8,-1
 922 1155 l 1,9,-1
 840 799 l 1,10,-1
 1182 799 l 1,11,-1
 1132 582 l 1,0,-1
EndSplineSet
EndChar

StartChar: comma
Encoding: 35 44 15
Width: 538
GlyphClass: 1
Flags: W
LayerCount: 2
Fore
SplineSet
430 0 m 2,0,1
 389 -178 389 -178 274.5 -257 c 128,-1,2
 160 -336 160 -336 36 -336 c 1,3,-1
 65 -209 l 1,4,5
 143 -209 143 -209 198 -174 c 128,-1,6
 253 -139 253 -139 285 0 c 1,7,-1
 114 0 l 1,8,-1
 192 340 l 1,9,-1
 508 340 l 1,10,-1
 430 0 l 2,0,1
EndSplineSet
EndChar

StartChar: hyphen
Encoding: 36 45 16
AltUni2: 002010.ffffffff.0 0000ad.ffffffff.0 002010.ffffffff.0 0000ad.ffffffff.0
Width: 1102
GlyphClass: 1
Flags: W
LayerCount: 2
Fore
SplineSet
1135 561 m 1,0,-1
 222 561 l 1,1,-1
 277 799 l 1,2,-1
 1190 799 l 1,3,-1
 1135 561 l 1,0,-1
EndSplineSet
EndChar

StartChar: period
Encoding: 37 46 17
Width: 537
GlyphClass: 1
Flags: W
LayerCount: 2
Fore
SplineSet
424 0 m 1,0,-1
 121 0 l 1,1,-1
 196 326 l 1,2,-1
 499 326 l 1,3,-1
 424 0 l 1,0,-1
EndSplineSet
EndChar

StartChar: slash
Encoding: 38 47 18
Width: 883
GlyphClass: 1
Flags: W
LayerCount: 2
Fore
SplineSet
1287 1509 m 1,0,-1
 129 -170 l 1,1,-1
 -80 -170 l 1,2,-1
 1077 1509 l 1,3,-1
 1287 1509 l 1,0,-1
EndSplineSet
EndChar

StartChar: zero
Encoding: 39 48 19
Width: 1102
GlyphClass: 1
Flags: W
LayerCount: 2
Fore
SplineSet
1210 688 m 2,0,1
 1127 328 1127 328 952.5 151.5 c 128,-1,2
 778 -25 778 -25 546 -25 c 256,3,4
 314 -25 314 -25 221 151.5 c 128,-1,5
 128 328 128 328 211 688 c 2,6,-1
 239 811 l 2,7,8
 318 1155 318 1155 488.5 1343.5 c 128,-1,9
 659 1532 659 1532 905 1532 c 256,10,11
 1151 1532 1151 1532 1234 1343.5 c 128,-1,12
 1317 1155 1317 1155 1238 811 c 2,13,-1
 1210 688 l 2,0,1
906 729 m 2,14,-1
 915 770 l 2,15,16
 985 1075 985 1075 974 1189 c 128,-1,17
 963 1303 963 1303 852 1303 c 256,18,19
 741 1303 741 1303 677.5 1189 c 128,-1,20
 614 1075 614 1075 544 770 c 2,21,-1
 535 729 l 2,22,23
 465 424 465 424 477.5 314.5 c 128,-1,24
 490 205 490 205 599 205 c 0,25,26
 710 205 710 205 773 314.5 c 128,-1,27
 836 424 836 424 906 729 c 2,14,-1
EndSplineSet
EndChar

StartChar: one
Encoding: 40 49 20
Width: 1091
GlyphClass: 1
Flags: W
LayerCount: 2
Fore
SplineSet
772 0 m 1,0,-1
 485 0 l 1,1,-1
 750 1149 l 1,2,-1
 554 1149 l 1,3,-1
 596 1331 l 1,4,5
 732 1343 732 1343 817.5 1408 c 128,-1,6
 903 1473 903 1473 932 1509 c 1,7,-1
 1120 1509 l 1,8,-1
 772 0 l 1,0,-1
EndSplineSet
EndChar

StartChar: two
Encoding: 41 50 21
Width: 1101
GlyphClass: 1
Flags: W
LayerCount: 2
Fore
SplineSet
1031 0 m 1,0,-1
 75 0 l 1,1,-1
 133 254 l 1,2,3
 572 590 572 590 745 756 c 128,-1,4
 918 922 918 922 949 1055 c 0,5,6
 972 1155 972 1155 945 1227.5 c 128,-1,7
 918 1300 918 1300 824 1300 c 0,8,9
 720 1300 720 1300 677 1258.5 c 128,-1,10
 634 1217 634 1217 603 1159 c 1,11,-1
 333 1159 l 1,12,13
 419 1352 419 1352 569 1441 c 128,-1,14
 719 1530 719 1530 921 1530 c 0,15,16
 1139 1530 1139 1530 1227.5 1406 c 128,-1,17
 1316 1282 1316 1282 1273 1098 c 0,18,19
 1228 901 1228 901 1020 697.5 c 128,-1,20
 812 494 812 494 387 225 c 1,21,-1
 1083 225 l 1,22,-1
 1031 0 l 1,0,-1
EndSplineSet
EndChar

StartChar: three
Encoding: 42 51 22
Width: 1102
GlyphClass: 1
Flags: W
LayerCount: 2
Fore
SplineSet
1129 438 m 0,0,1
 1081 229 1081 229 916 102 c 128,-1,2
 751 -25 751 -25 532 -25 c 0,3,4
 339 -25 339 -25 234.5 53 c 128,-1,5
 130 131 130 131 97 252 c 1,6,-1
 319 379 l 1,7,8
 329 311 329 311 392 260 c 128,-1,9
 455 209 455 209 558 209 c 0,10,11
 660 209 660 209 735.5 275.5 c 128,-1,12
 811 342 811 342 839 465 c 0,13,14
 861 561 861 561 821.5 623.5 c 128,-1,15
 782 686 782 686 672 686 c 2,16,-1
 530 686 l 1,17,-1
 580 899 l 1,18,-1
 728 899 l 2,19,20
 825 899 825 899 885 948 c 128,-1,21
 945 997 945 997 968 1096 c 0,22,23
 990 1192 990 1192 965 1247.5 c 128,-1,24
 940 1303 940 1303 852 1303 c 0,25,26
 772 1303 772 1303 722 1273 c 128,-1,27
 672 1243 672 1243 638 1190 c 1,28,-1
 385 1190 l 1,29,30
 444 1329 444 1329 577.5 1430.5 c 128,-1,31
 711 1532 711 1532 905 1532 c 0,32,33
 1135 1532 1135 1532 1221 1417.5 c 128,-1,34
 1307 1303 1307 1303 1269 1139 c 0,35,36
 1235 991 1235 991 1148.5 912.5 c 128,-1,37
 1062 834 1062 834 977 811 c 1,38,39
 1067 772 1067 772 1115.5 680 c 128,-1,40
 1164 588 1164 588 1129 438 c 0,0,1
EndSplineSet
EndChar

StartChar: four
Encoding: 43 52 23
Width: 1102
GlyphClass: 1
Flags: W
LayerCount: 2
Fore
SplineSet
1154 438 m 1,0,-1
 1054 438 l 1,1,-1
 953 0 l 1,2,-1
 668 0 l 1,3,-1
 769 438 l 1,4,-1
 154 438 l 1,5,-1
 206 729 l 1,6,-1
 1112 1509 l 1,7,-1
 1302 1509 l 1,8,-1
 1105 657 l 1,9,-1
 1205 657 l 1,10,-1
 1154 438 l 1,0,-1
823 657 m 1,11,-1
 929 1116 l 1,12,-1
 396 657 l 1,13,-1
 823 657 l 1,11,-1
EndSplineSet
EndChar

StartChar: five
Encoding: 44 53 24
Width: 1103
GlyphClass: 1
Flags: W
LayerCount: 2
Fore
SplineSet
1183 551 m 0,0,1
 1113 246 1113 246 929.5 109.5 c 128,-1,2
 746 -27 746 -27 506 -27 c 0,3,4
 327 -27 327 -27 221 51 c 128,-1,5
 115 129 115 129 79 297 c 1,6,-1
 318 426 l 1,7,8
 335 311 335 311 394 259 c 128,-1,9
 453 207 453 207 545 207 c 0,10,11
 663 207 663 207 741.5 286 c 128,-1,12
 820 365 820 365 855 520 c 0,13,14
 889 668 889 668 847 743.5 c 128,-1,15
 805 819 805 819 694 819 c 0,16,17
 638 819 638 819 573.5 795.5 c 128,-1,18
 509 772 509 772 441 721 c 1,19,-1
 283 834 l 1,20,-1
 466 1509 l 1,21,-1
 1264 1509 l 1,22,-1
 1212 1284 l 1,23,-1
 645 1284 l 1,24,-1
 568 1004 l 1,25,26
 629 1044 629 1044 714 1057.5 c 128,-1,27
 799 1071 799 1071 834 1071 c 0,28,29
 1040 1071 1040 1071 1137.5 923.5 c 128,-1,30
 1235 776 1235 776 1183 551 c 0,0,1
EndSplineSet
EndChar

StartChar: six
Encoding: 45 54 25
Width: 1103
GlyphClass: 1
Flags: W
LayerCount: 2
Fore
SplineSet
1210 539 m 0,0,1
 1150 281 1150 281 978.5 128 c 128,-1,2
 807 -25 807 -25 565 -25 c 0,3,4
 306 -25 306 -25 213 122 c 0,5,6
 117 270 117 270 172 573 c 0,7,8
 175 592 175 592 182 619 c 0,9,10
 184 627 184 627 189 647 c 0,11,12
 200 692 200 692 203 705 c 0,13,14
 303 1067 303 1067 510.5 1296.5 c 128,-1,15
 718 1526 718 1526 1000 1526 c 0,16,17
 1074 1526 1074 1526 1128 1515.5 c 128,-1,18
 1182 1505 1182 1505 1227 1495 c 1,19,-1
 1167 1235 l 1,20,21
 1107 1251 1107 1251 1051.5 1261.5 c 128,-1,22
 996 1272 996 1272 941 1272 c 0,23,24
 810 1272 810 1272 717.5 1178.5 c 128,-1,25
 625 1085 625 1085 576 926 c 1,26,27
 615 977 615 977 707 1018 c 128,-1,28
 799 1059 799 1059 871 1059 c 0,29,30
 1088 1059 1088 1059 1177.5 923.5 c 128,-1,31
 1267 788 1267 788 1210 539 c 0,0,1
888 514 m 0,32,33
 925 674 925 674 885 749.5 c 128,-1,34
 845 825 845 825 749 825 c 0,35,36
 663 825 663 825 582.5 750.5 c 128,-1,37
 502 676 502 676 465 514 c 0,38,39
 427 348 427 348 466.5 276.5 c 128,-1,40
 506 205 506 205 605 205 c 0,41,42
 702 205 702 205 775.5 275.5 c 128,-1,43
 849 346 849 346 888 514 c 0,32,33
EndSplineSet
EndChar

StartChar: seven
Encoding: 46 55 26
Width: 1102
GlyphClass: 1
Flags: W
LayerCount: 2
Fore
SplineSet
1321 1253 m 1,0,1
 1064 1103 1064 1103 855 802 c 0,2,3
 671 537 671 537 575 119 c 0,4,5
 561 60 561 60 550 0 c 1,6,-1
 243 0 l 1,7,8
 323 346 323 346 545 712.5 c 128,-1,9
 767 1079 767 1079 1090 1284 c 1,10,-1
 355 1284 l 1,11,-1
 407 1509 l 1,12,-1
 1380 1509 l 1,13,-1
 1321 1253 l 1,0,1
EndSplineSet
EndChar

StartChar: eight
Encoding: 47 56 27
Width: 1101
GlyphClass: 1
Flags: W
LayerCount: 2
Fore
SplineSet
1124 446 m 0,0,1
 1073 227 1073 227 914.5 101 c 128,-1,2
 756 -25 756 -25 545 -25 c 0,3,4
 318 -25 318 -25 224.5 90 c 128,-1,5
 131 205 131 205 181 421 c 0,6,7
 207 534 207 534 292.5 640 c 128,-1,8
 378 746 378 746 501 791 c 1,9,-1
 506 813 l 1,10,11
 417 848 417 848 386 932 c 128,-1,12
 355 1016 355 1016 383 1139 c 0,13,14
 420 1300 420 1300 560 1415 c 128,-1,15
 700 1530 700 1530 904 1530 c 0,16,17
 1111 1530 1111 1530 1193 1416.5 c 128,-1,18
 1275 1303 1275 1303 1234 1126 c 0,19,20
 1208 1012 1208 1012 1139.5 929 c 128,-1,21
 1071 846 1071 846 978 813 c 1,22,-1
 973 791 l 1,23,24
 1070 756 1070 756 1113.5 672 c 128,-1,25
 1157 588 1157 588 1124 446 c 0,0,1
959 1100 m 0,26,27
 983 1202 983 1202 955 1251 c 128,-1,28
 927 1300 927 1300 851 1300 c 256,29,30
 775 1300 775 1300 725 1250 c 128,-1,31
 675 1200 675 1200 652 1100 c 0,32,33
 627 993 627 993 656.5 946 c 128,-1,34
 686 899 686 899 758 899 c 0,35,36
 821 899 821 899 877 944 c 128,-1,37
 933 989 933 989 959 1100 c 0,26,27
844 438 m 0,38,39
 874 567 874 567 838 626.5 c 128,-1,40
 802 686 802 686 709 686 c 0,41,42
 619 686 619 686 555.5 629.5 c 128,-1,43
 492 573 492 573 461 438 c 0,44,45
 433 315 433 315 470 260 c 128,-1,46
 507 205 507 205 598 205 c 0,47,48
 682 205 682 205 749 260 c 128,-1,49
 816 315 816 315 844 438 c 0,38,39
EndSplineSet
EndChar

StartChar: nine
Encoding: 48 57 28
Width: 1103
GlyphClass: 1
Flags: W
LayerCount: 2
Fore
SplineSet
1256 801 m 0,0,1
 1139 413 1139 413 949 204 c 0,2,3
 747 -20 747 -20 459 -20 c 0,4,5
 385 -20 385 -20 331 -9.5 c 128,-1,6
 277 1 277 1 232 11 c 1,7,-1
 292 271 l 1,8,9
 352 255 352 255 407.5 244.5 c 128,-1,10
 463 234 463 234 517 234 c 0,11,12
 652 234 652 234 746 327 c 128,-1,13
 840 420 840 420 883 580 c 1,14,15
 844 529 844 529 752 488 c 128,-1,16
 660 447 660 447 587 447 c 0,17,18
 370 447 370 447 282 582.5 c 128,-1,19
 194 718 194 718 251 967 c 0,20,21
 311 1225 311 1225 481 1378 c 128,-1,22
 651 1531 651 1531 893 1531 c 0,23,24
 1152 1531 1152 1531 1245 1384 c 0,25,26
 1334 1248 1334 1248 1286 933 c 0,27,28
 1283 910 1283 910 1275 876 c 0,29,30
 1273 868 1273 868 1271 859 c 0,31,32
 1260 814 1260 814 1256 801 c 0,0,1
993 989 m 0,33,34
 1031 1155 1031 1155 991.5 1226.5 c 128,-1,35
 952 1298 952 1298 852 1298 c 0,36,37
 755 1298 755 1298 683.5 1227.5 c 128,-1,38
 612 1157 612 1157 573 989 c 0,39,40
 536 829 536 829 574.5 753.5 c 128,-1,41
 613 678 613 678 709 678 c 0,42,43
 795 678 795 678 875.5 752.5 c 128,-1,44
 956 827 956 827 993 989 c 0,33,34
EndSplineSet
EndChar

StartChar: colon
Encoding: 49 58 29
Width: 470
GlyphClass: 1
Flags: W
LayerCount: 2
Fore
SplineSet
582 823 m 1,0,-1
 279 823 l 1,1,-1
 354 1149 l 1,2,-1
 658 1149 l 1,3,-1
 582 823 l 1,0,-1
392 0 m 1,4,-1
 89 0 l 1,5,-1
 164 326 l 1,6,-1
 468 326 l 1,7,-1
 392 0 l 1,4,-1
EndSplineSet
EndChar

StartChar: semicolon
Encoding: 50 59 30
AltUni2: 00037e.ffffffff.0 00037e.ffffffff.0
Width: 470
GlyphClass: 1
Flags: W
LayerCount: 2
Fore
SplineSet
582 823 m 1,0,-1
 279 823 l 1,1,-1
 354 1149 l 1,2,-1
 658 1149 l 1,3,-1
 582 823 l 1,0,-1
399 27 m 2,4,5
 358 -152 358 -152 246.5 -244 c 128,-1,6
 135 -336 135 -336 12 -336 c 1,7,-1
 41 -209 l 1,8,9
 119 -209 119 -209 169 -174 c 128,-1,10
 219 -139 219 -139 251 0 c 1,11,-1
 89 0 l 1,12,-1
 164 326 l 1,13,-1
 468 326 l 1,14,-1
 399 27 l 2,4,5
EndSplineSet
EndChar

StartChar: less
Encoding: 51 60 31
Width: 948
GlyphClass: 1
Flags: W
LayerCount: 2
Fore
SplineSet
880 94 m 1,0,-1
 183 496 l 1,1,-1
 229 698 l 1,2,-1
 1113 1100 l 1,3,-1
 1055 852 l 1,4,-1
 502 594 l 1,5,-1
 938 342 l 1,6,-1
 880 94 l 1,0,-1
EndSplineSet
EndChar

StartChar: equal
Encoding: 52 61 32
Width: 1099
GlyphClass: 1
Flags: W
LayerCount: 2
Fore
SplineSet
1153 715 m 1,0,-1
 279 715 l 1,1,-1
 334 952 l 1,2,-1
 1208 952 l 1,3,-1
 1153 715 l 1,0,-1
1042 236 m 1,4,-1
 168 236 l 1,5,-1
 223 473 l 1,6,-1
 1097 473 l 1,7,-1
 1042 236 l 1,4,-1
EndSplineSet
EndChar

StartChar: greater
Encoding: 53 62 33
Width: 948
GlyphClass: 1
Flags: W
LayerCount: 2
Fore
SplineSet
112 94 m 1,0,-1
 169 342 l 1,1,-1
 721 594 l 1,2,-1
 287 852 l 1,3,-1
 344 1100 l 1,4,-1
 1042 698 l 1,5,-1
 995 496 l 1,6,-1
 112 94 l 1,0,-1
EndSplineSet
EndChar

StartChar: question
Encoding: 54 63 34
Width: 853
GlyphClass: 1
Flags: W
LayerCount: 2
Fore
SplineSet
1126 1208 m 0,0,1
 1104 1114 1104 1114 1053.5 1035 c 128,-1,2
 1003 956 1003 956 881 889 c 0,3,4
 785 836 785 836 725 765 c 128,-1,5
 665 694 665 694 646 612 c 0,6,7
 636 567 636 567 630 541.5 c 128,-1,8
 624 516 624 516 612 465 c 1,9,-1
 358 465 l 1,10,11
 358 465 358 465 374 534.5 c 128,-1,12
 390 604 390 604 401 653 c 0,13,14
 422 743 422 743 486 825 c 128,-1,15
 550 907 550 907 628 956 c 0,16,17
 731 1022 731 1022 767.5 1061 c 128,-1,18
 804 1100 804 1100 821 1174 c 0,19,20
 835 1235 835 1235 802.5 1272 c 128,-1,21
 770 1309 770 1309 663 1309 c 0,22,23
 568 1309 568 1309 466 1266 c 128,-1,24
 364 1223 364 1223 296 1176 c 1,25,-1
 348 1399 l 1,26,27
 435 1456 435 1456 539.5 1493 c 128,-1,28
 644 1530 644 1530 791 1530 c 0,29,30
 1014 1530 1014 1530 1084.5 1431.5 c 128,-1,31
 1155 1333 1155 1333 1126 1208 c 0,0,1
525 0 m 1,32,-1
 234 0 l 1,33,-1
 308 322 l 1,34,-1
 599 322 l 1,35,-1
 525 0 l 1,32,-1
EndSplineSet
EndChar

StartChar: at
Encoding: 55 64 35
Width: 1734
GlyphClass: 1
Flags: W
LayerCount: 2
Fore
SplineSet
1812 688 m 0,0,1
 1767 494 1767 494 1636 332 c 128,-1,2
 1505 170 1505 170 1351 170 c 0,3,4
 1237 170 1237 170 1190.5 213 c 128,-1,5
 1144 256 1144 256 1151 362 c 1,6,7
 1100 260 1100 260 1035 214 c 128,-1,8
 970 168 970 168 859 168 c 0,9,10
 737 168 737 168 675.5 265 c 128,-1,11
 614 362 614 362 666 588 c 0,12,13
 710 778 710 778 827.5 902 c 128,-1,14
 945 1026 945 1026 1110 1026 c 0,15,16
 1173 1026 1173 1026 1211.5 998.5 c 128,-1,17
 1250 971 1250 971 1261 928 c 1,18,19
 1267 956 1267 956 1274.5 988 c 128,-1,20
 1282 1020 1282 1020 1282 1020 c 1,21,-1
 1460 1020 l 1,22,23
 1460 1020 1460 1020 1414 825.5 c 128,-1,24
 1368 631 1368 631 1336 494 c 0,25,26
 1317 412 1317 412 1329.5 382 c 128,-1,27
 1342 352 1342 352 1383 352 c 0,28,29
 1480 352 1480 352 1544.5 465 c 128,-1,30
 1609 578 1609 578 1629 668 c 0,31,32
 1704 995 1704 995 1587.5 1177.5 c 128,-1,33
 1471 1360 1471 1360 1211 1360 c 0,34,35
 975 1360 975 1360 750.5 1144 c 128,-1,36
 526 928 526 928 449 594 c 0,37,38
 366 233 366 233 485 35.5 c 128,-1,39
 604 -162 604 -162 863 -162 c 0,40,41
 943 -162 943 -162 1046.5 -142.5 c 128,-1,42
 1150 -123 1150 -123 1223 -86 c 1,43,-1
 1182 -262 l 1,44,45
 1116 -295 1116 -295 1025 -319.5 c 128,-1,46
 934 -344 934 -344 821 -344 c 0,47,48
 463 -344 463 -344 309.5 -89 c 128,-1,49
 156 166 156 166 255 594 c 0,50,51
 350 1004 350 1004 634 1272 c 128,-1,52
 918 1540 918 1540 1254 1540 c 0,53,54
 1591 1540 1591 1540 1749 1319 c 128,-1,55
 1907 1098 1907 1098 1812 688 c 0,0,1
1181 584 m 0,56,57
 1190 623 1190 623 1190 623 c 129,-1,58
 1190 623 1190 623 1200 666 c 0,59,60
 1221 756 1221 756 1191.5 809 c 128,-1,61
 1162 862 1162 862 1072 862 c 0,62,63
 996 862 996 862 938.5 794.5 c 128,-1,64
 881 727 881 727 848 582 c 0,65,66
 829 500 829 500 842.5 422 c 128,-1,67
 856 344 856 344 942 344 c 0,68,69
 1024 344 1024 344 1090.5 412.5 c 128,-1,70
 1157 481 1157 481 1181 584 c 0,56,57
EndSplineSet
EndChar

StartChar: A
Encoding: 56 65 36
Width: 1262
GlyphClass: 1
Flags: W
LayerCount: 2
Fore
SplineSet
1257 0 m 1,0,-1
 934 0 l 1,1,-1
 914 362 l 1,2,-1
 451 362 l 1,3,-1
 261 0 l 1,4,-1
 4 0 l 1,5,-1
 824 1509 l 1,6,-1
 1119 1509 l 1,7,-1
 1257 0 l 1,0,-1
897 580 m 1,8,-1
 853 1135 l 1,9,-1
 563 580 l 1,10,-1
 897 580 l 1,8,-1
EndSplineSet
EndChar

StartChar: B
Encoding: 57 66 37
Width: 1202
GlyphClass: 1
Flags: W
LayerCount: 2
Fore
SplineSet
1233 479 m 0,0,1
 1180 250 1180 250 1018 125 c 128,-1,2
 856 0 856 0 622 0 c 2,3,-1
 134 0 l 1,4,-1
 482 1509 l 1,5,-1
 980 1509 l 2,6,7
 1193 1509 1193 1509 1264 1428.5 c 128,-1,8
 1335 1348 1335 1348 1302 1204 c 0,9,10
 1273 1077 1273 1077 1200.5 1003.5 c 128,-1,11
 1128 930 1128 930 1008 907 c 1,12,13
 1145 887 1145 887 1210.5 776.5 c 128,-1,14
 1276 666 1276 666 1233 479 c 0,0,1
985 1122 m 0,15,16
 1006 1212 1006 1212 970.5 1252 c 128,-1,17
 935 1292 935 1292 846 1292 c 2,18,-1
 737 1292 l 1,19,-1
 660 958 l 1,20,-1
 771 958 l 2,21,22
 868 958 868 958 918 1002.5 c 128,-1,23
 968 1047 968 1047 985 1122 c 0,15,16
924 496 m 0,24,25
 952 618 952 618 906.5 688 c 128,-1,26
 861 758 861 758 721 758 c 2,27,-1
 614 758 l 1,28,-1
 489 217 l 1,29,-1
 613 217 l 2,30,31
 747 217 747 217 820 288.5 c 128,-1,32
 893 360 893 360 924 496 c 0,24,25
EndSplineSet
EndChar

StartChar: C
Encoding: 58 67 38
Width: 1103
GlyphClass: 1
Flags: W
LayerCount: 2
Fore
SplineSet
1038 41 m 1,0,1
 1000 18 1000 18 909.5 -3.5 c 128,-1,2
 819 -25 819 -25 707 -25 c 0,3,4
 423 -25 423 -25 287.5 163.5 c 128,-1,5
 152 352 152 352 237 717 c 2,6,-1
 251 778 l 2,7,8
 329 1118 329 1118 558.5 1324 c 128,-1,9
 788 1530 788 1530 1062 1530 c 0,10,11
 1180 1530 1180 1530 1256 1515.5 c 128,-1,12
 1332 1501 1332 1501 1370 1477 c 1,13,-1
 1314 1237 l 1,14,15
 1279 1260 1279 1260 1215 1278 c 128,-1,16
 1151 1296 1151 1296 1059 1296 c 0,17,18
 888 1296 888 1296 759 1153 c 128,-1,19
 630 1010 630 1010 571 758 c 2,20,-1
 567 737 l 2,21,22
 505 467 505 467 564.5 338 c 128,-1,23
 624 209 624 209 780 209 c 0,24,25
 885 209 885 209 964.5 231.5 c 128,-1,26
 1044 254 1044 254 1092 274 c 1,27,-1
 1038 41 l 1,0,1
EndSplineSet
EndChar

StartChar: D
Encoding: 59 68 39
Width: 1260
GlyphClass: 1
Flags: W
LayerCount: 2
Fore
SplineSet
1351 723 m 2,0,1
 1266 356 1266 356 1089.5 178 c 128,-1,2
 913 0 913 0 648 0 c 2,3,-1
 134 0 l 1,4,-1
 482 1509 l 1,5,-1
 943 1509 l 2,6,7
 1259 1509 1259 1509 1350.5 1314.5 c 128,-1,8
 1442 1120 1442 1120 1365 784 c 2,9,-1
 1351 723 l 2,0,1
1035 733 m 2,10,-1
 1044 774 l 2,11,12
 1101 1022 1101 1022 1051.5 1153 c 128,-1,13
 1002 1284 1002 1284 865 1284 c 2,14,-1
 746 1284 l 1,15,-1
 502 225 l 1,16,-1
 647 225 l 2,17,18
 782 225 782 225 874 330.5 c 128,-1,19
 966 436 966 436 1035 733 c 2,10,-1
EndSplineSet
EndChar

StartChar: E
Encoding: 60 69 40
Width: 1081
GlyphClass: 1
Flags: W
LayerCount: 2
Fore
SplineSet
1026 0 m 1,0,-1
 134 0 l 1,1,-1
 482 1509 l 1,2,-1
 1336 1509 l 1,3,-1
 1284 1284 l 1,4,-1
 746 1284 l 1,5,-1
 653 879 l 1,6,-1
 1070 879 l 1,7,-1
 1018 651 l 1,8,-1
 600 651 l 1,9,-1
 502 225 l 1,10,-1
 1078 225 l 1,11,-1
 1026 0 l 1,0,-1
EndSplineSet
EndChar

StartChar: F
Encoding: 61 70 41
Width: 1028
GlyphClass: 1
Flags: W
LayerCount: 2
Fore
SplineSet
1284 1284 m 1,0,-1
 746 1284 l 1,1,-1
 653 879 l 1,2,-1
 1070 879 l 1,3,-1
 1018 651 l 1,4,-1
 600 651 l 1,5,-1
 450 0 l 1,6,-1
 134 0 l 1,7,-1
 482 1509 l 1,8,-1
 1336 1509 l 1,9,-1
 1284 1284 l 1,0,-1
EndSplineSet
EndChar

StartChar: G
Encoding: 62 71 42
Width: 1261
GlyphClass: 1
Flags: W
LayerCount: 2
Fore
SplineSet
1236 227 m 1,0,1
 1146 117 1146 117 1004.5 46 c 128,-1,2
 863 -25 863 -25 663 -25 c 0,3,4
 387 -25 387 -25 272.5 164.5 c 128,-1,5
 158 354 158 354 242 717 c 2,6,-1
 261 799 l 2,7,8
 336 1122 336 1122 557 1326 c 128,-1,9
 778 1530 778 1530 1093 1530 c 0,10,11
 1211 1530 1211 1530 1286.5 1506.5 c 128,-1,12
 1362 1483 1362 1483 1395 1460 c 1,13,-1
 1339 1217 l 1,14,15
 1296 1241 1296 1241 1229 1268.5 c 128,-1,16
 1162 1296 1162 1296 1067 1296 c 0,17,18
 898 1296 898 1296 766 1171.5 c 128,-1,19
 634 1047 634 1047 568 758 c 2,20,-1
 563 737 l 2,21,22
 494 436 494 436 547 320.5 c 128,-1,23
 600 205 600 205 741 205 c 0,24,25
 818 205 818 205 888 233.5 c 128,-1,26
 958 262 958 262 987 299 c 1,27,-1
 1058 608 l 1,28,-1
 844 608 l 1,29,-1
 890 809 l 1,30,-1
 1370 809 l 1,31,-1
 1236 227 l 1,0,1
EndSplineSet
EndChar

StartChar: H
Encoding: 63 72 43
Width: 1258
GlyphClass: 1
Flags: W
LayerCount: 2
Fore
SplineSet
1124 0 m 1,0,-1
 808 0 l 1,1,-1
 958 649 l 1,2,-1
 600 649 l 1,3,-1
 450 0 l 1,4,-1
 134 0 l 1,5,-1
 482 1509 l 1,6,-1
 798 1509 l 1,7,-1
 653 881 l 1,8,-1
 1011 881 l 1,9,-1
 1156 1509 l 1,10,-1
 1473 1509 l 1,11,-1
 1124 0 l 1,0,-1
EndSplineSet
EndChar

StartChar: I
Encoding: 64 73 44
Width: 689
GlyphClass: 1
Flags: W
LayerCount: 2
Fore
SplineSet
503 0 m 1,0,-1
 187 0 l 1,1,-1
 535 1509 l 1,2,-1
 851 1509 l 1,3,-1
 503 0 l 1,0,-1
EndSplineSet
EndChar

StartChar: J
Encoding: 65 74 45
Width: 882
GlyphClass: 1
Flags: W
LayerCount: 2
Fore
SplineSet
819 350 m 2,0,1
 784 197 784 197 665 91.5 c 128,-1,2
 546 -14 546 -14 353 -14 c 0,3,4
 240 -14 240 -14 176 2 c 128,-1,5
 112 18 112 18 74 45 c 1,6,-1
 127 276 l 1,7,8
 160 260 160 260 216.5 245.5 c 128,-1,9
 273 231 273 231 334 231 c 0,10,11
 392 231 392 231 441.5 265 c 128,-1,12
 491 299 491 299 509 379 c 2,13,-1
 770 1509 l 1,14,-1
 1086 1509 l 1,15,-1
 819 350 l 2,0,1
EndSplineSet
EndChar

StartChar: K
Encoding: 66 75 46
Width: 1243
GlyphClass: 1
Flags: W
LayerCount: 2
Fore
SplineSet
1279 0 m 1,0,-1
 908 0 l 1,1,-1
 625 555 l 1,2,-1
 564 492 l 1,3,-1
 450 0 l 1,4,-1
 134 0 l 1,5,-1
 482 1509 l 1,6,-1
 798 1509 l 1,7,-1
 652 874 l 1,8,-1
 1236 1509 l 1,9,-1
 1551 1509 l 1,10,-1
 857 803 l 1,11,-1
 1279 0 l 1,0,-1
EndSplineSet
EndChar

StartChar: L
Encoding: 67 76 47
Width: 1042
GlyphClass: 1
Flags: W
LayerCount: 2
Fore
SplineSet
971 0 m 1,0,-1
 134 0 l 1,1,-1
 482 1509 l 1,2,-1
 798 1509 l 1,3,-1
 502 225 l 1,4,-1
 1023 225 l 1,5,-1
 971 0 l 1,0,-1
EndSplineSet
EndChar

StartChar: M
Encoding: 68 77 48
Width: 1743
GlyphClass: 1
Flags: W
LayerCount: 2
Fore
SplineSet
1620 0 m 1,0,-1
 1331 0 l 1,1,-1
 1531 866 l 1,2,-1
 900 0 l 1,3,-1
 737 0 l 1,4,-1
 534 866 l 1,5,-1
 334 0 l 1,6,-1
 116 0 l 1,7,-1
 464 1509 l 1,8,-1
 698 1509 l 1,9,-1
 972 410 l 1,10,-1
 1761 1509 l 1,11,-1
 1969 1509 l 1,12,-1
 1620 0 l 1,0,-1
EndSplineSet
EndChar

StartChar: N
Encoding: 69 78 49
Width: 1294
GlyphClass: 1
Flags: W
LayerCount: 2
Fore
SplineSet
1179 0 m 1,0,-1
 1043 0 l 1,1,-1
 559 948 l 1,2,-1
 341 0 l 1,3,-1
 116 0 l 1,4,-1
 464 1509 l 1,5,-1
 633 1509 l 1,6,-1
 1096 616 l 1,7,-1
 1302 1509 l 1,8,-1
 1527 1509 l 1,9,-1
 1179 0 l 1,0,-1
EndSplineSet
EndChar

StartChar: O
Encoding: 70 79 50
Width: 1266
GlyphClass: 1
Flags: W
LayerCount: 2
Fore
SplineSet
1376 707 m 2,0,1
 1294 350 1294 350 1092.5 162.5 c 128,-1,2
 891 -25 891 -25 632 -25 c 0,3,4
 375 -25 375 -25 259.5 162.5 c 128,-1,5
 144 350 144 350 225 702 c 2,6,-1
 245 788 l 2,7,8
 321 1116 321 1116 517 1323 c 128,-1,9
 713 1530 713 1530 999 1530 c 0,10,11
 1279 1530 1279 1530 1374 1320 c 128,-1,12
 1469 1110 1469 1110 1395 788 c 2,13,-1
 1376 707 l 2,0,1
1063 727 m 2,14,-1
 1072 768 l 2,15,16
 1136 1047 1136 1047 1123 1182 c 128,-1,17
 1110 1317 1110 1317 942 1317 c 0,18,19
 787 1317 787 1317 708 1197 c 128,-1,20
 629 1077 629 1077 558 768 c 2,21,-1
 550 731 l 2,22,23
 478 420 478 420 496.5 304 c 128,-1,24
 515 188 515 188 681 188 c 0,25,26
 817 188 817 188 906.5 313 c 128,-1,27
 996 438 996 438 1063 727 c 2,14,-1
EndSplineSet
EndChar

StartChar: P
Encoding: 71 80 51
Width: 1102
GlyphClass: 1
Flags: W
LayerCount: 2
Fore
SplineSet
1294 999 m 2,0,1
 1250 807 1250 807 1118.5 709.5 c 128,-1,2
 987 612 987 612 782 612 c 2,3,-1
 591 612 l 1,4,-1
 450 0 l 1,5,-1
 134 0 l 1,6,-1
 482 1509 l 1,7,-1
 1009 1509 l 2,8,9
 1235 1509 1235 1509 1296.5 1391.5 c 128,-1,10
 1358 1274 1358 1274 1322 1118 c 2,11,-1
 1294 999 l 2,0,1
966 977 m 2,12,-1
 999 1122 l 2,13,14
 1019 1208 1019 1208 984 1249 c 128,-1,15
 949 1290 949 1290 846 1290 c 2,16,-1
 748 1290 l 1,17,-1
 639 819 l 1,18,-1
 754 819 l 2,19,20
 828 819 828 819 888 860 c 128,-1,21
 948 901 948 901 966 977 c 2,12,-1
EndSplineSet
EndChar

StartChar: Q
Encoding: 72 81 52
Width: 1266
GlyphClass: 1
Flags: W
LayerCount: 2
Fore
SplineSet
1372 707 m 2,0,1
 1301 401 1301 401 1134 212 c 128,-1,2
 967 23 967 23 769 2 c 1,3,4
 754 -86 754 -86 780.5 -125 c 128,-1,5
 807 -164 807 -164 904 -164 c 0,6,7
 956 -164 956 -164 1012.5 -164 c 128,-1,8
 1069 -164 1069 -164 1069 -164 c 1,9,-1
 1029 -340 l 1,10,-1
 751 -340 l 2,11,12
 585 -340 585 -340 522.5 -236.5 c 128,-1,13
 460 -133 460 -133 486 2 c 1,14,15
 269 78 269 78 215 261 c 128,-1,16
 161 444 161 444 221 707 c 2,17,-1
 240 788 l 2,18,19
 318 1126 318 1126 520 1328 c 128,-1,20
 722 1530 722 1530 986 1530 c 0,21,22
 1267 1530 1267 1530 1368.5 1331.5 c 128,-1,23
 1470 1133 1470 1133 1391 788 c 2,24,-1
 1372 707 l 2,0,1
1058 727 m 2,25,-1
 1068 768 l 2,26,27
 1142 1090 1142 1090 1114 1203.5 c 128,-1,28
 1086 1317 1086 1317 937 1317 c 0,29,30
 789 1317 789 1317 709 1206.5 c 128,-1,31
 629 1096 629 1096 554 768 c 2,32,-1
 544 727 l 2,33,34
 474 424 474 424 493.5 306 c 128,-1,35
 513 188 513 188 676 188 c 0,36,37
 808 188 808 188 899 310 c 128,-1,38
 990 432 990 432 1058 727 c 2,25,-1
EndSplineSet
EndChar

StartChar: R
Encoding: 73 82 53
Width: 1159
GlyphClass: 1
Flags: W
LayerCount: 2
Fore
SplineSet
1094 0 m 1,0,-1
 782 0 l 1,1,2
 863 365 863 365 838 521.5 c 128,-1,3
 813 678 813 678 681 678 c 2,4,-1
 606 678 l 1,5,-1
 450 0 l 1,6,-1
 134 0 l 1,7,-1
 482 1509 l 1,8,-1
 1035 1509 l 2,9,10
 1237 1509 1237 1509 1299 1415 c 128,-1,11
 1361 1321 1361 1321 1330 1184 c 2,12,-1
 1311 1102 l 2,13,14
 1281 973 1281 973 1189.5 895 c 128,-1,15
 1098 817 1098 817 948 803 c 1,16,17
 1101 750 1101 750 1142 567.5 c 128,-1,18
 1183 385 1183 385 1094 0 c 1,0,-1
992 1071 m 2,19,-1
 1002 1112 l 2,20,21
 1025 1210 1025 1210 986 1252 c 128,-1,22
 947 1294 947 1294 852 1294 c 2,23,-1
 749 1294 l 1,24,-1
 657 895 l 1,25,-1
 742 895 l 2,26,27
 855 895 855 895 913.5 939 c 128,-1,28
 972 983 972 983 992 1071 c 2,19,-1
EndSplineSet
EndChar

StartChar: S
Encoding: 74 83 54
Width: 1072
GlyphClass: 1
Flags: W
LayerCount: 2
Fore
SplineSet
1119 449 m 0,0,1
 1064 209 1064 209 888.5 94.5 c 128,-1,2
 713 -20 713 -20 448 -20 c 0,3,4
 296 -20 296 -20 196.5 -1 c 128,-1,5
 97 18 97 18 35 47 c 1,6,-1
 95 307 l 1,7,8
 140 272 140 272 247 242.5 c 128,-1,9
 354 213 354 213 463 213 c 0,10,11
 617 213 617 213 685.5 257 c 128,-1,12
 754 301 754 301 778 403 c 0,13,14
 793 469 793 469 763 520 c 128,-1,15
 733 571 733 571 556 655 c 0,16,17
 415 723 415 723 354 828.5 c 128,-1,18
 293 934 293 934 335 1116 c 0,19,20
 375 1290 375 1290 541 1410 c 128,-1,21
 707 1530 707 1530 951 1530 c 0,22,23
 1069 1530 1069 1530 1158.5 1509.5 c 128,-1,24
 1248 1489 1248 1489 1283 1473 c 1,25,-1
 1229 1243 l 1,26,27
 1154 1264 1154 1264 1079 1280 c 128,-1,28
 1004 1296 1004 1296 914 1296 c 0,29,30
 788 1296 788 1296 722.5 1254 c 128,-1,31
 657 1212 657 1212 642 1149 c 0,32,33
 624 1069 624 1069 656.5 1028 c 128,-1,34
 689 987 689 987 874 907 c 0,35,36
 1047 833 1047 833 1101 719.5 c 128,-1,37
 1155 606 1155 606 1119 449 c 0,0,1
EndSplineSet
EndChar

StartChar: T
Encoding: 75 84 55
Width: 951
GlyphClass: 1
Flags: W
LayerCount: 2
Fore
SplineSet
1239 1284 m 1,0,-1
 934 1284 l 1,1,-1
 638 0 l 1,2,-1
 322 0 l 1,3,-1
 618 1284 l 1,4,-1
 306 1284 l 1,5,-1
 357 1509 l 1,6,-1
 1291 1509 l 1,7,-1
 1239 1284 l 1,0,-1
EndSplineSet
EndChar

StartChar: U
Encoding: 76 85 56
Width: 1243
GlyphClass: 1
Flags: W
LayerCount: 2
Fore
SplineSet
1237 436 m 2,0,1
 1188 223 1188 223 1038.5 102.5 c 128,-1,2
 889 -18 889 -18 633 -18 c 0,3,4
 359 -18 359 -18 268.5 111 c 128,-1,5
 178 240 178 240 237 494 c 2,6,-1
 471 1509 l 1,7,-1
 787 1509 l 1,8,-1
 544 453 l 2,9,10
 516 330 516 330 553 268.5 c 128,-1,11
 590 207 590 207 717 207 c 0,12,13
 835 207 835 207 905 262 c 128,-1,14
 975 317 975 317 1008 459 c 2,15,-1
 1251 1509 l 1,16,-1
 1485 1509 l 1,17,-1
 1237 436 l 2,0,1
EndSplineSet
EndChar

StartChar: V
Encoding: 77 86 57
Width: 1160
GlyphClass: 1
Flags: W
LayerCount: 2
Fore
SplineSet
1530 1509 m 1,0,-1
 705 0 l 1,1,-1
 440 0 l 1,2,-1
 327 1509 l 1,3,-1
 669 1509 l 1,4,-1
 730 467 l 1,5,-1
 1270 1509 l 1,6,-1
 1530 1509 l 1,0,-1
EndSplineSet
EndChar

StartChar: W
Encoding: 78 87 58
Width: 1796
GlyphClass: 1
Flags: W
LayerCount: 2
Fore
SplineSet
2160 1509 m 1,0,-1
 1423 0 l 1,1,-1
 1195 0 l 1,2,-1
 1127 983 l 1,3,-1
 598 0 l 1,4,-1
 370 0 l 1,5,-1
 330 1509 l 1,6,-1
 650 1509 l 1,7,-1
 673 553 l 1,8,-1
 1172 1509 l 1,9,-1
 1396 1509 l 1,10,-1
 1455 553 l 1,11,-1
 1905 1509 l 1,12,-1
 2160 1509 l 1,0,-1
EndSplineSet
EndChar

StartChar: X
Encoding: 79 88 59
Width: 1163
GlyphClass: 1
Flags: W
LayerCount: 2
Fore
SplineSet
1174 0 m 1,0,-1
 816 0 l 1,1,-1
 668 518 l 1,2,-1
 257 0 l 1,3,-1
 -7 0 l 1,4,-1
 599 754 l 1,5,-1
 387 1509 l 1,6,-1
 745 1509 l 1,7,-1
 877 1044 l 1,8,-1
 1246 1509 l 1,9,-1
 1510 1509 l 1,10,-1
 945 809 l 1,11,-1
 1174 0 l 1,0,-1
EndSplineSet
EndChar

StartChar: Y
Encoding: 80 89 60
Width: 1234
GlyphClass: 1
Flags: W
LayerCount: 2
Fore
SplineSet
1596 1509 m 1,0,-1
 929 639 l 1,1,-1
 781 0 l 1,2,-1
 465 0 l 1,3,-1
 605 606 l 1,4,-1
 339 1509 l 1,5,-1
 708 1509 l 1,6,-1
 877 903 l 1,7,-1
 1345 1509 l 1,8,-1
 1596 1509 l 1,0,-1
EndSplineSet
EndChar

StartChar: Z
Encoding: 81 90 61
Width: 1029
GlyphClass: 1
Flags: W
LayerCount: 2
Fore
SplineSet
1001 0 m 1,0,-1
 34 0 l 1,1,-1
 81 205 l 1,2,-1
 947 1284 l 1,3,-1
 357 1284 l 1,4,-1
 409 1509 l 1,5,-1
 1349 1509 l 1,6,-1
 1303 1309 l 1,7,-1
 434 225 l 1,8,-1
 1053 225 l 1,9,-1
 1001 0 l 1,0,-1
EndSplineSet
EndChar

StartChar: bracketleft
Encoding: 82 91 62
Width: 747
GlyphClass: 1
Flags: W
LayerCount: 2
Fore
SplineSet
603 -223 m 1,0,-1
 66 -223 l 1,1,-1
 466 1509 l 1,2,-1
 1003 1509 l 1,3,-1
 961 1325 l 1,4,-1
 701 1325 l 1,5,-1
 390 -25 l 1,6,-1
 649 -25 l 1,7,-1
 603 -223 l 1,0,-1
EndSplineSet
EndChar

StartChar: backslash
Encoding: 83 92 63
Width: 883
GlyphClass: 1
Flags: W
LayerCount: 2
Fore
SplineSet
899 -170 m 1,0,-1
 689 -170 l 1,1,-1
 307 1509 l 1,2,-1
 517 1509 l 1,3,-1
 899 -170 l 1,0,-1
EndSplineSet
EndChar

StartChar: bracketright
Encoding: 84 93 64
Width: 747
GlyphClass: 1
Flags: W
LayerCount: 2
Fore
SplineSet
584 -223 m 1,0,-1
 48 -223 l 1,1,-1
 93 -25 l 1,2,-1
 352 -25 l 1,3,-1
 664 1325 l 1,4,-1
 405 1325 l 1,5,-1
 448 1509 l 1,6,-1
 984 1509 l 1,7,-1
 584 -223 l 1,0,-1
EndSplineSet
EndChar

StartChar: asciicircum
Encoding: 85 94 65
Width: 1047
GlyphClass: 1
Flags: W
LayerCount: 2
Fore
SplineSet
1199 657 m 1,0,-1
 906 657 l 1,1,-1
 773 1122 l 1,2,-1
 445 657 l 1,3,-1
 152 657 l 1,4,-1
 759 1509 l 1,5,-1
 986 1509 l 1,6,-1
 1199 657 l 1,0,-1
EndSplineSet
EndChar

StartChar: underscore
Encoding: 86 95 66
Width: 948
GlyphClass: 1
Flags: W
LayerCount: 2
Fore
SplineSet
865 -360 m 1,0,-1
 -83 -360 l 1,1,-1
 -35 -150 l 1,2,-1
 914 -150 l 1,3,-1
 865 -360 l 1,0,-1
EndSplineSet
EndChar

StartChar: grave
Encoding: 87 96 67
Width: 942
GlyphClass: 1
Flags: W
LayerCount: 2
Fore
SplineSet
1017 1323 m 1,0,-1
 815 1323 l 1,1,-1
 592 1677 l 1,2,-1
 866 1677 l 1,3,-1
 1017 1323 l 1,0,-1
EndSplineSet
EndChar

StartChar: a
Encoding: 88 97 68
Width: 1145
GlyphClass: 1
Flags: W
LayerCount: 2
Fore
SplineSet
1009 0 m 1,0,-1
 737 0 l 1,1,-1
 766 158 l 1,2,3
 683 63 683 63 609.5 23.5 c 128,-1,4
 536 -16 536 -16 441 -16 c 0,5,6
 289 -16 289 -16 211.5 92 c 128,-1,7
 134 200 134 200 197 469 c 2,8,-1
 223 583 l 2,9,10
 280 830 280 830 421 968.5 c 128,-1,11
 562 1107 562 1107 772 1107 c 0,12,13
 822 1107 822 1107 877 1091 c 128,-1,14
 932 1075 932 1075 963 1025 c 1,15,-1
 1262 1093 l 0,16,17
 1261 1093 1261 1093 1009 0 c 1,0,-1
799 317 m 1,18,-1
 922 848 l 1,19,20
 911 886 911 886 879 911.5 c 128,-1,21
 847 937 847 937 786 937 c 0,22,23
 700 937 700 937 631 859.5 c 128,-1,24
 562 782 562 782 515 575 c 2,25,-1
 497 501 l 2,26,27
 459 336 459 336 484 268.5 c 128,-1,28
 509 201 509 201 593 201 c 0,29,30
 650 201 650 201 707.5 235 c 128,-1,31
 765 269 765 269 799 317 c 1,18,-1
EndSplineSet
EndChar

StartChar: b
Encoding: 89 98 69
Width: 1145
GlyphClass: 1
Flags: W
LayerCount: 2
Fore
SplineSet
1166 500 m 2,0,1
 1112 267 1112 267 970.5 125.5 c 128,-1,2
 829 -16 829 -16 623 -16 c 0,3,4
 572 -16 572 -16 513.5 3.5 c 128,-1,5
 455 23 455 23 424 66 c 1,6,-1
 405 0 l 1,7,-1
 130 0 l 1,8,-1
 478 1509 l 1,9,-1
 762 1509 l 1,10,-1
 629 931 l 1,11,12
 720 1046 720 1046 798.5 1081 c 128,-1,13
 877 1116 877 1116 955 1116 c 0,14,15
 1113 1116 1113 1116 1182 992 c 128,-1,16
 1251 868 1251 868 1194 624 c 2,17,-1
 1166 500 l 2,0,1
878 524 m 2,18,-1
 896 602 l 2,19,20
 936 775 936 775 903 832.5 c 128,-1,21
 870 890 870 890 796 890 c 0,22,23
 743 890 743 890 682.5 853 c 128,-1,24
 622 816 622 816 590 765 c 1,25,-1
 473 256 l 1,26,27
 473 218 473 218 510 186 c 128,-1,28
 547 154 547 154 616 154 c 0,29,30
 691 154 691 154 758.5 227 c 128,-1,31
 826 300 826 300 878 524 c 2,18,-1
EndSplineSet
EndChar

StartChar: c
Encoding: 90 99 70
Width: 984
GlyphClass: 1
Flags: W
LayerCount: 2
Fore
SplineSet
899 61 m 1,0,1
 879 45 879 45 791 10 c 128,-1,2
 703 -25 703 -25 616 -25 c 0,3,4
 373 -25 373 -25 259.5 112.5 c 128,-1,5
 146 250 146 250 210 525 c 2,6,-1
 220 572 l 2,7,8
 278 821 278 821 456 971.5 c 128,-1,9
 634 1122 634 1122 874 1122 c 0,10,11
 967 1122 967 1122 1035 1094 c 128,-1,12
 1103 1066 1103 1066 1124 1034 c 1,13,-1
 1079 838 l 1,14,15
 1051 874 1051 874 995 898.5 c 128,-1,16
 939 923 939 923 868 923 c 0,17,18
 743 923 743 923 654 826.5 c 128,-1,19
 565 730 565 730 527 561 c 2,20,-1
 522 542 l 2,21,22
 478 353 478 353 514 274 c 128,-1,23
 550 195 550 195 669 195 c 0,24,25
 749 195 749 195 831.5 221.5 c 128,-1,26
 914 248 914 248 949 275 c 1,27,-1
 899 61 l 1,0,1
EndSplineSet
EndChar

StartChar: d
Encoding: 91 100 71
Width: 1145
GlyphClass: 1
Flags: W
LayerCount: 2
Fore
SplineSet
1009 0 m 1,0,-1
 737 0 l 1,1,-1
 766 158 l 1,2,3
 683 63 683 63 609.5 23.5 c 128,-1,4
 536 -16 536 -16 441 -16 c 0,5,6
 289 -16 289 -16 211.5 92 c 128,-1,7
 134 200 134 200 197 469 c 2,8,-1
 223 583 l 2,9,10
 280 830 280 830 421 968.5 c 128,-1,11
 562 1107 562 1107 772 1107 c 0,12,13
 822 1107 822 1107 877 1091 c 128,-1,14
 932 1075 932 1075 963 1025 c 1,15,-1
 1074 1509 l 1,16,-1
 1358 1509 l 1,17,-1
 1009 0 l 1,0,-1
799 317 m 1,18,-1
 922 848 l 1,19,20
 911 886 911 886 879 911.5 c 128,-1,21
 847 937 847 937 786 937 c 0,22,23
 700 937 700 937 631 859.5 c 128,-1,24
 562 782 562 782 515 575 c 2,25,-1
 497 501 l 2,26,27
 459 336 459 336 484 268.5 c 128,-1,28
 509 201 509 201 593 201 c 0,29,30
 650 201 650 201 707.5 235 c 128,-1,31
 765 269 765 269 799 317 c 1,18,-1
EndSplineSet
EndChar

StartChar: e
Encoding: 92 101 72
Width: 1135
GlyphClass: 1
Flags: W
LayerCount: 2
Fore
SplineSet
1155 484 m 1,0,-1
 487 484 l 1,1,2
 447 309 447 309 505 240.5 c 128,-1,3
 563 172 563 172 682 172 c 0,4,5
 761 172 761 172 848.5 193.5 c 128,-1,6
 936 215 936 215 1033 258 c 1,7,-1
 990 74 l 1,8,9
 904 25 904 25 807.5 0 c 128,-1,10
 711 -25 711 -25 593 -25 c 0,11,12
 362 -25 362 -25 253.5 109.5 c 128,-1,13
 145 244 145 244 205 503 c 2,14,-1
 223 582 l 2,15,16
 275 809 275 809 439 965.5 c 128,-1,17
 603 1122 603 1122 842 1122 c 0,18,19
 1065 1122 1065 1122 1149.5 973.5 c 128,-1,20
 1234 825 1234 825 1179 587 c 2,21,22
 1179 587 1179 587 1168.5 541.5 c 128,-1,23
 1158 496 1158 496 1155 484 c 1,0,-1
939 648 m 1,24,25
 966 803 966 803 926.5 870 c 128,-1,26
 887 937 887 937 798 937 c 0,27,28
 720 937 720 937 643.5 871 c 128,-1,29
 567 805 567 805 526 648 c 1,30,-1
 939 648 l 1,24,25
EndSplineSet
EndChar

StartChar: f
Encoding: 93 102 73
Width: 584
GlyphClass: 1
Flags: W
HStem: 0 21G<146 433.622> 952 176<276 366 692 836> 1333 197<750.335 973.598>
DStem2: 146 0 429 0 0.227046 0.973884<64.2539 979.035 1222.51 1395.05>
LayerCount: 2
Fore
SplineSet
1056 1454 m 1,0,-1
 945 1284 l 1,1,2
 925 1307 925 1307 902 1320 c 128,-1,3
 879 1333 879 1333 839 1333 c 0,4,5
 780 1333 780 1333 750.5 1293 c 128,-1,6
 721 1253 721 1253 702 1171 c 2,7,-1
 692 1128 l 1,8,-1
 876 1128 l 1,9,-1
 836 952 l 1,10,-1
 649 952 l 1,11,-1
 429 0 l 1,12,-1
 146 0 l 1,13,-1
 366 954 l 1,14,-1
 236 954 l 1,15,-1
 276 1128 l 1,16,-1
 411 1128 l 1,17,-1
 419 1161 l 2,18,19
 459 1333 459 1333 567.5 1431.5 c 128,-1,20
 676 1530 676 1530 826 1530 c 0,21,22
 896 1530 896 1530 957 1509.5 c 128,-1,23
 1018 1489 1018 1489 1056 1454 c 1,0,-1
EndSplineSet
EndChar

StartChar: g
Encoding: 94 103 74
Width: 1179
GlyphClass: 1
Flags: W
LayerCount: 2
Fore
SplineSet
1066 138 m 2,0,1
 1011 -99 1011 -99 841 -234 c 128,-1,2
 671 -369 671 -369 428 -369 c 0,3,4
 356 -369 356 -369 265 -352.5 c 128,-1,5
 174 -336 174 -336 110 -295 c 1,6,-1
 160 -78 l 1,7,8
 226 -115 226 -115 305.5 -129 c 128,-1,9
 385 -143 385 -143 446 -143 c 0,10,11
 613 -143 613 -143 687 -79.5 c 128,-1,12
 761 -16 761 -16 785 87 c 2,13,-1
 810 197 l 1,14,15
 773 137 773 137 684.5 70.5 c 128,-1,16
 596 4 596 4 456 4 c 0,17,18
 292 4 292 4 219 126.5 c 128,-1,19
 146 249 146 249 212 534 c 2,20,-1
 219 566 l 2,21,22
 282 839 282 839 428 973 c 128,-1,23
 574 1107 574 1107 775 1107 c 0,24,25
 852 1107 852 1107 912 1078.5 c 128,-1,26
 972 1050 972 1050 998 993 c 1,27,-1
 1021 1093 l 1,28,-1
 1287 1093 l 1,29,-1
 1066 138 l 2,0,1
881 569 m 2,30,-1
 897 636 l 2,31,32
 934 797 934 797 907 863 c 128,-1,33
 880 929 880 929 787 929 c 0,34,35
 698 929 698 929 629.5 852.5 c 128,-1,36
 561 776 561 776 520 598 c 2,37,-1
 513 569 l 2,38,39
 466 366 466 366 496.5 294.5 c 128,-1,40
 527 223 527 223 617 223 c 0,41,42
 707 223 707 223 772.5 302 c 128,-1,43
 838 381 838 381 881 569 c 2,30,-1
EndSplineSet
EndChar

StartChar: h
Encoding: 95 104 75
Width: 1131
GlyphClass: 1
Flags: W
LayerCount: 2
Fore
SplineSet
1079 328 m 1,0,1
 1075 310 1075 310 1069 265 c 128,-1,2
 1063 220 1063 220 1065 212 c 0,3,4
 1065 197 1065 197 1075 186.5 c 128,-1,5
 1085 176 1085 176 1099 176 c 0,6,7
 1150 176 1150 176 1252 342 c 1,8,-1
 1265 366 l 1,9,-1
 1319 331 l 1,10,11
 1198 124 1198 124 1120.5 51.5 c 128,-1,12
 1043 -21 1043 -21 938 -21 c 0,13,14
 902 -21 902 -21 874 -12 c 128,-1,15
 846 -3 846 -3 828 9 c 128,-1,16
 810 21 810 21 798.5 43.5 c 128,-1,17
 787 66 787 66 780.5 83.5 c 128,-1,18
 774 101 774 101 774 131 c 128,-1,19
 774 161 774 161 774.5 176.5 c 128,-1,20
 775 192 775 192 780.5 223.5 c 128,-1,21
 786 255 786 255 787.5 262.5 c 128,-1,22
 789 270 789 270 795 295 c 1,23,-1
 902 757 l 2,24,25
 913 807 913 807 893 839.5 c 128,-1,26
 873 872 873 872 814 872 c 0,27,28
 754 872 754 872 695.5 846.5 c 128,-1,29
 637 821 637 821 593 777 c 1,30,-1
 414 0 l 1,31,-1
 130 0 l 1,32,-1
 478 1509 l 1,33,-1
 762 1509 l 1,34,-1
 625 917 l 1,35,36
 688 993 688 993 786.5 1054.5 c 128,-1,37
 885 1116 885 1116 1010 1116 c 0,38,39
 1135 1116 1135 1116 1178 1031 c 128,-1,40
 1221 946 1221 946 1181 771 c 2,41,-1
 1079 328 l 1,0,1
EndSplineSet
EndChar

StartChar: i
Encoding: 96 105 76
Width: 532
GlyphClass: 1
Flags: W
LayerCount: 2
Fore
SplineSet
742 1407 m 0,0,1
 725 1335 725 1335 670 1286 c 128,-1,2
 615 1237 615 1237 553 1237 c 0,3,4
 492 1237 492 1237 459.5 1286 c 128,-1,5
 427 1335 427 1335 443 1407 c 0,6,7
 459 1477 459 1477 514.5 1526 c 128,-1,8
 570 1575 570 1575 631 1575 c 0,9,10
 693 1575 693 1575 725.5 1526 c 128,-1,11
 758 1477 758 1477 742 1407 c 0,0,1
488 337 m 1,12,13
 484 318 484 318 477.5 270.5 c 128,-1,14
 471 223 471 223 472 214 c 0,15,16
 472 198 472 198 482 187 c 128,-1,17
 492 176 492 176 505 176 c 0,18,19
 555 176 555 176 659 356 c 1,20,-1
 673 382 l 1,21,-1
 725 344 l 1,22,23
 602 129 602 129 523.5 54 c 128,-1,24
 445 -21 445 -21 339 -21 c 0,25,26
 302 -21 302 -21 274 -11.5 c 128,-1,27
 246 -2 246 -2 228 11 c 128,-1,28
 210 24 210 24 198.5 48 c 128,-1,29
 187 72 187 72 181 90.5 c 128,-1,30
 175 109 175 109 175 141 c 128,-1,31
 175 173 175 173 175.5 189.5 c 128,-1,32
 176 206 176 206 182 239.5 c 128,-1,33
 188 273 188 273 190 281 c 128,-1,34
 192 289 192 289 198 315 c 1,35,-1
 391 1151 l 1,36,-1
 676 1151 l 1,37,-1
 488 337 l 1,12,13
EndSplineSet
EndChar

StartChar: j
Encoding: 97 106 77
Width: 549
GlyphClass: 1
Flags: W
LayerCount: 2
Fore
SplineSet
762 1407 m 0,0,1
 745 1335 745 1335 690 1286 c 128,-1,2
 635 1237 635 1237 574 1237 c 0,3,4
 512 1237 512 1237 479.5 1286 c 128,-1,5
 447 1335 447 1335 463 1407 c 0,6,7
 479 1477 479 1477 534 1526 c 128,-1,8
 589 1575 589 1575 652 1575 c 0,9,10
 713 1575 713 1575 745.5 1526 c 128,-1,11
 778 1477 778 1477 762 1407 c 0,0,1
448 76 m 2,12,13
 400 -131 400 -131 284 -243.5 c 128,-1,14
 168 -356 168 -356 21 -356 c 0,15,16
 -42 -356 -42 -356 -109 -348 c 128,-1,17
 -176 -340 -176 -340 -222 -324 c 1,18,-1
 -171 -106 l 1,19,20
 -145 -117 -145 -117 -105 -124 c 128,-1,21
 -65 -131 -65 -131 -18 -131 c 0,22,23
 49 -131 49 -131 91 -93 c 128,-1,24
 133 -55 133 -55 153 33 c 2,25,-1
 411 1151 l 1,26,-1
 696 1151 l 1,27,-1
 448 76 l 2,12,13
EndSplineSet
EndChar

StartChar: k
Encoding: 98 107 78
Width: 1030
GlyphClass: 1
Flags: W
LayerCount: 2
Fore
SplineSet
967 182 m 1,0,1
 978 159 978 159 992 159 c 0,2,3
 1040 159 1040 159 1131 317 c 2,4,-1
 1158 364 l 1,5,-1
 1205 328 l 1,6,7
 1091 124 1091 124 1016.5 50.5 c 128,-1,8
 942 -23 942 -23 846 -23 c 0,9,10
 740 -23 740 -23 708 44 c 1,11,-1
 522 469 l 1,12,-1
 414 0 l 1,13,-1
 130 0 l 1,14,-1
 478 1509 l 1,15,-1
 762 1509 l 1,16,-1
 571 684 l 1,17,-1
 1008 1151 l 1,18,-1
 1261 1151 l 1,19,-1
 763 639 l 1,20,-1
 967 182 l 1,0,1
EndSplineSet
EndChar

StartChar: l
Encoding: 99 108 79
Width: 555
GlyphClass: 1
Flags: W
LayerCount: 2
Fore
SplineSet
498 337 m 1,0,1
 494 318 494 318 487.5 270.5 c 128,-1,2
 481 223 481 223 483 214 c 0,3,4
 483 198 483 198 492.5 187 c 128,-1,5
 502 176 502 176 515 176 c 0,6,7
 565 176 565 176 668 355 c 1,8,-1
 683 382 l 1,9,-1
 736 344 l 1,10,11
 613 129 613 129 534 54 c 128,-1,12
 455 -21 455 -21 349 -21 c 0,13,14
 304 -21 304 -21 272 -7 c 128,-1,15
 240 7 240 7 222.5 27.5 c 128,-1,16
 205 48 205 48 196.5 81 c 128,-1,17
 188 114 188 114 186 139.5 c 128,-1,18
 184 165 184 165 188.5 203.5 c 128,-1,19
 193 242 193 242 197 260 c 128,-1,20
 201 278 201 278 208 308 c 0,21,22
 209 313 209 313 209 315 c 1,23,-1
 485 1509 l 1,24,-1
 769 1509 l 1,25,-1
 498 337 l 1,0,1
EndSplineSet
EndChar

StartChar: m
Encoding: 100 109 80
Width: 1704
GlyphClass: 1
Flags: W
LayerCount: 2
Fore
SplineSet
1601 1116 m 0,0,1
 1698 1115 1698 1115 1751 1024 c 0,2,3
 1809 925 1809 925 1775 776 c 2,4,-1
 1671 328 l 1,5,6
 1667 310 1667 310 1661.5 265 c 128,-1,7
 1656 220 1656 220 1658 212 c 0,8,9
 1658 197 1658 197 1668 186.5 c 128,-1,10
 1678 176 1678 176 1691 176 c 0,11,12
 1742 176 1742 176 1845 342 c 1,13,-1
 1858 366 l 1,14,-1
 1911 331 l 1,15,16
 1790 124 1790 124 1712.5 51.5 c 128,-1,17
 1635 -21 1635 -21 1531 -21 c 0,18,19
 1495 -21 1495 -21 1467 -12 c 128,-1,20
 1439 -3 1439 -3 1420.5 9 c 128,-1,21
 1402 21 1402 21 1391 43.5 c 128,-1,22
 1380 66 1380 66 1373.5 83.5 c 128,-1,23
 1367 101 1367 101 1366.5 131 c 128,-1,24
 1366 161 1366 161 1366.5 176.5 c 128,-1,25
 1367 192 1367 192 1372.5 223.5 c 128,-1,26
 1378 255 1378 255 1380 262.5 c 128,-1,27
 1382 270 1382 270 1387 295 c 1,28,-1
 1494 757 l 2,29,30
 1504 801 1504 801 1475.5 836.5 c 128,-1,31
 1447 872 1447 872 1396 872 c 0,32,33
 1329 872 1329 872 1275 840 c 128,-1,34
 1221 808 1221 808 1181 759 c 1,35,-1
 1006 0 l 1,36,-1
 722 0 l 1,37,-1
 896 757 l 2,38,39
 907 803 907 803 882 837.5 c 128,-1,40
 857 872 857 872 799 872 c 0,41,42
 733 872 733 872 683 846 c 128,-1,43
 633 820 633 820 593 777 c 1,44,-1
 414 0 l 1,45,-1
 130 0 l 1,46,-1
 382 1093 l 1,47,-1
 655 1093 l 1,48,-1
 619 911 l 1,49,50
 685 1005 685 1005 779.5 1060.5 c 128,-1,51
 874 1116 874 1116 991 1116 c 0,52,53
 1096 1116 1096 1116 1144 1058.5 c 128,-1,54
 1192 1001 1192 1001 1197 900 c 1,55,56
 1281 1049 1281 1049 1379 1113 c 0,57,58
 1474 1174 1474 1174 1609 1174 c 0,59,60
 1612 1174 1612 1174 1601 1116 c 0,0,1
EndSplineSet
EndChar

StartChar: n
Encoding: 101 110 81
Width: 1131
GlyphClass: 1
Flags: W
LayerCount: 2
Fore
SplineSet
1079 328 m 1,0,1
 1075 310 1075 310 1069 265 c 128,-1,2
 1063 220 1063 220 1065 212 c 0,3,4
 1065 197 1065 197 1075 186.5 c 128,-1,5
 1085 176 1085 176 1099 176 c 0,6,7
 1150 176 1150 176 1252 342 c 1,8,-1
 1265 366 l 1,9,-1
 1319 331 l 1,10,11
 1198 124 1198 124 1120.5 51.5 c 128,-1,12
 1043 -21 1043 -21 938 -21 c 0,13,14
 902 -21 902 -21 874 -12 c 128,-1,15
 846 -3 846 -3 828 9 c 128,-1,16
 810 21 810 21 798.5 43.5 c 128,-1,17
 787 66 787 66 780.5 83.5 c 128,-1,18
 774 101 774 101 774 131 c 128,-1,19
 774 161 774 161 774.5 176.5 c 128,-1,20
 775 192 775 192 780.5 223.5 c 128,-1,21
 786 255 786 255 787.5 262.5 c 128,-1,22
 789 270 789 270 795 295 c 1,23,-1
 902 757 l 2,24,25
 912 799 912 799 886.5 835.5 c 128,-1,26
 861 872 861 872 799 872 c 0,27,28
 739 872 739 872 687 845.5 c 128,-1,29
 635 819 635 819 593 777 c 1,30,-1
 414 0 l 1,31,-1
 130 0 l 1,32,-1
 382 1093 l 1,33,-1
 655 1093 l 1,34,-1
 618 909 l 1,35,36
 667 991 667 991 768 1053.5 c 128,-1,37
 869 1116 869 1116 993 1116 c 0,38,39
 1118 1116 1118 1116 1169.5 1031 c 128,-1,40
 1221 946 1221 946 1181 771 c 2,41,-1
 1079 328 l 1,0,1
EndSplineSet
EndChar

StartChar: o
Encoding: 102 111 82
Width: 1196
GlyphClass: 1
Flags: W
LayerCount: 2
Fore
SplineSet
1217 514 m 2,0,1
 1158 260 1158 260 990.5 117.5 c 128,-1,2
 823 -25 823 -25 590 -25 c 0,3,4
 359 -25 359 -25 254.5 120.5 c 128,-1,5
 150 266 150 266 207 514 c 2,6,-1
 223 583 l 2,7,8
 279 825 279 825 450 973.5 c 128,-1,9
 621 1122 621 1122 853 1122 c 0,10,11
 1088 1122 1088 1122 1188.5 972.5 c 128,-1,12
 1289 823 1289 823 1234 583 c 2,13,-1
 1217 514 l 2,0,1
931 541 m 2,14,-1
 935 557 l 2,15,16
 985 774 985 774 941.5 852.5 c 128,-1,17
 898 931 898 931 807 931 c 0,18,19
 716 931 716 931 638 846.5 c 128,-1,20
 560 762 560 762 512 557 c 2,21,-1
 509 541 l 2,22,23
 457 315 457 315 496.5 240.5 c 128,-1,24
 536 166 536 166 632 166 c 0,25,26
 719 166 719 166 798.5 238.5 c 128,-1,27
 878 311 878 311 931 541 c 2,14,-1
EndSplineSet
EndChar

StartChar: p
Encoding: 103 112 83
Width: 1145
GlyphClass: 1
Flags: W
LayerCount: 2
Fore
SplineSet
1167 506 m 2,0,1
 1109 257 1109 257 965.5 121.5 c 128,-1,2
 822 -14 822 -14 623 -14 c 0,3,4
 572 -14 572 -14 515.5 2 c 128,-1,5
 459 18 459 18 428 61 c 1,6,-1
 335 -342 l 1,7,-1
 51 -342 l 1,8,-1
 382 1093 l 1,9,-1
 655 1093 l 1,10,-1
 623 923 l 1,11,12
 676 1011 676 1011 770 1063.5 c 128,-1,13
 864 1116 864 1116 962 1116 c 0,14,15
 1102 1116 1102 1116 1179.5 1006 c 128,-1,16
 1257 896 1257 896 1196 633 c 2,17,-1
 1167 506 l 2,0,1
877 520 m 2,18,-1
 893 591 l 2,19,20
 933 763 933 763 905 826.5 c 128,-1,21
 877 890 877 890 803 890 c 0,22,23
 745 890 745 890 685.5 854 c 128,-1,24
 626 818 626 818 593 776 c 1,25,-1
 474 260 l 1,26,27
 472 224 472 224 510 190 c 128,-1,28
 548 156 548 156 616 156 c 0,29,30
 677 156 677 156 750.5 223 c 128,-1,31
 824 290 824 290 877 520 c 2,18,-1
EndSplineSet
EndChar

StartChar: q
Encoding: 104 113 84
Width: 1145
GlyphClass: 1
Flags: W
LayerCount: 2
Fore
SplineSet
931 -342 m 1,0,-1
 647 -342 l 1,1,-1
 761 152 l 1,2,3
 724 100 724 100 638.5 42 c 128,-1,4
 553 -16 553 -16 448 -16 c 0,5,6
 280 -16 280 -16 208 95 c 128,-1,7
 136 206 136 206 199 481 c 2,8,-1
 232 624 l 2,9,10
 279 829 279 829 423 968 c 128,-1,11
 567 1107 567 1107 770 1107 c 0,12,13
 850 1107 850 1107 902.5 1080.5 c 128,-1,14
 955 1054 955 1054 977 993 c 1,15,-1
 1058 1093 l 1,16,-1
 1262 1093 l 1,17,-1
 931 -342 l 1,0,-1
799 317 m 1,18,-1
 923 854 l 1,19,20
 901 903 901 903 864 920 c 128,-1,21
 827 937 827 937 787 937 c 0,22,23
 698 937 698 937 629.5 856.5 c 128,-1,24
 561 776 561 776 517 586 c 2,25,-1
 502 518 l 2,26,27
 462 345 462 345 483.5 273 c 128,-1,28
 505 201 505 201 593 201 c 0,29,30
 654 201 654 201 706 232 c 128,-1,31
 758 263 758 263 799 317 c 1,18,-1
EndSplineSet
EndChar

StartChar: r
Encoding: 105 114 85
Width: 891
GlyphClass: 1
Flags: W
LayerCount: 2
Fore
SplineSet
1051 751 m 1,0,-1
 799 751 l 1,1,2
 810 797 810 797 800 829.5 c 128,-1,3
 790 862 790 862 738 862 c 0,4,5
 689 862 689 862 649.5 833 c 128,-1,6
 610 804 610 804 592 772 c 1,7,-1
 414 0 l 1,8,-1
 130 0 l 1,9,-1
 382 1093 l 1,10,-1
 655 1093 l 1,11,-1
 619 911 l 1,12,13
 680 1009 680 1009 753.5 1062.5 c 128,-1,14
 827 1116 827 1116 910 1116 c 0,15,16
 1034 1116 1034 1116 1073 1022 c 0,17,18
 1103 952 1103 952 1076 835 c 0,19,20
 1067 796 1067 796 1051 751 c 1,0,-1
EndSplineSet
EndChar

StartChar: s
Encoding: 106 115 86
Width: 820
GlyphClass: 1
Flags: W
LayerCount: 2
Fore
SplineSet
845 329 m 0,0,1
 810 178 810 178 685 76.5 c 128,-1,2
 560 -25 560 -25 326 -25 c 0,3,4
 229 -25 229 -25 153.5 -6.5 c 128,-1,5
 78 12 78 12 48 39 c 1,6,-1
 93 236 l 1,7,8
 128 211 128 211 197.5 185.5 c 128,-1,9
 267 160 267 160 345 160 c 0,10,11
 445 160 445 160 507 197 c 128,-1,12
 569 234 569 234 583 291 c 0,13,14
 596 347 596 347 568 381.5 c 128,-1,15
 540 416 540 416 405 465 c 0,16,17
 278 509 278 509 246.5 590 c 128,-1,18
 215 671 215 671 245 799 c 0,19,20
 275 930 275 930 385.5 1020.5 c 128,-1,21
 496 1111 496 1111 689 1111 c 0,22,23
 778 1111 778 1111 836.5 1095.5 c 128,-1,24
 895 1080 895 1080 942 1051 c 1,25,-1
 901 871 l 1,26,27
 867 895 867 895 798.5 911 c 128,-1,28
 730 927 730 927 664 927 c 0,29,30
 587 927 587 927 533 898.5 c 128,-1,31
 479 870 479 870 468 821 c 0,32,33
 455 765 455 765 486.5 743 c 128,-1,34
 518 721 518 721 636 680 c 0,35,36
 786 628 786 628 830.5 544.5 c 128,-1,37
 875 461 875 461 845 329 c 0,0,1
EndSplineSet
EndChar

StartChar: t
Encoding: 107 116 87
Width: 742
GlyphClass: 1
Flags: W
LayerCount: 2
Fore
SplineSet
909 952 m 1,0,-1
 649 952 l 1,1,-1
 513 362 l 2,2,3
 492 272 492 272 508 230 c 128,-1,4
 524 188 524 188 598 188 c 0,5,6
 633 188 633 188 667 194.5 c 128,-1,7
 701 201 701 201 731 211 c 1,8,-1
 689 31 l 1,9,10
 640 10 640 10 572.5 0 c 128,-1,11
 505 -10 505 -10 442 -10 c 0,12,13
 304 -10 304 -10 247 91.5 c 128,-1,14
 190 193 190 193 234 383 c 2,15,-1
 366 954 l 1,16,-1
 249 954 l 1,17,-1
 287 1118 l 1,18,-1
 416 1126 l 1,19,-1
 600 1509 l 1,20,-1
 778 1509 l 1,21,-1
 690 1128 l 1,22,-1
 950 1128 l 1,23,-1
 909 952 l 1,0,-1
EndSplineSet
EndChar

StartChar: u
Encoding: 108 117 88
Width: 1145
GlyphClass: 1
Flags: W
LayerCount: 2
Fore
SplineSet
1006 0 m 1,0,-1
 733 0 l 1,1,-1
 770 180 l 1,2,3
 704 104 704 104 603.5 40.5 c 128,-1,4
 503 -23 503 -23 377 -23 c 0,5,6
 259 -23 259 -23 209.5 54 c 128,-1,7
 160 131 160 131 206 328 c 2,8,-1
 382 1093 l 1,9,-1
 666 1093 l 1,10,-1
 498 366 l 2,11,12
 479 282 479 282 504.5 252.5 c 128,-1,13
 530 223 530 223 577 223 c 0,14,15
 637 223 637 223 693 247 c 128,-1,16
 749 271 749 271 796 321 c 1,17,-1
 974 1093 l 1,18,-1
 1259 1093 l 1,19,-1
 1006 0 l 1,0,-1
EndSplineSet
EndChar

StartChar: v
Encoding: 109 118 89
Width: 998
GlyphClass: 1
Flags: W
LayerCount: 2
Fore
SplineSet
1266 1093 m 1,0,-1
 590 0 l 1,1,-1
 391 0 l 1,2,-1
 246 1093 l 1,3,-1
 269 896 l 0,4,5
 268 909 268 909 258.5 918.5 c 128,-1,6
 249 928 249 928 237 928 c 0,7,8
 189 928 189 928 95 772 c 2,9,-1
 73 734 l 1,10,-1
 24 769 l 1,11,12
 139 972 139 972 213.5 1043.5 c 128,-1,13
 288 1115 288 1115 388 1115 c 0,14,15
 522 1115 522 1115 536 983 c 0,16,-1
 523 1093 l 1,17,-1
 602 349 l 1,18,-1
 1018 1024 l 0,19,20
 1077 1120 1077 1120 1170 1119 c 0,21,22
 1247 1119 1247 1119 1282 1052.5 c 128,-1,23
 1317 986 1317 986 1332 811 c 1,24,-1
 1285 782 l 1,25,-1
 1270 873 l 2,26,27
 1263 921 1263 921 1247.5 947.5 c 128,-1,28
 1232 974 1232 974 1214 974 c 0,29,30
 1194 974 1194 974 1174 939 c 0,31,-1
 1266 1093 l 1,0,-1
EndSplineSet
EndChar

StartChar: w
Encoding: 110 119 90
Width: 1497
GlyphClass: 1
Flags: W
LayerCount: 2
Fore
SplineSet
1769 1093 m 1,0,-1
 1116 0 l 1,1,-1
 947 0 l 1,2,-1
 882 556 l 1,3,-1
 546 0 l 1,4,-1
 378 0 l 1,5,-1
 247 1093 l 1,6,-1
 268 898 l 0,7,8
 267 911 267 911 257.5 920.5 c 128,-1,9
 248 930 248 930 236 930 c 0,10,11
 190 930 190 930 96 777 c 2,12,-1
 73 737 l 1,13,-1
 23 771 l 1,14,15
 137 972 137 972 212 1043.5 c 128,-1,16
 287 1115 287 1115 385 1115 c 0,17,18
 517 1115 517 1115 531 981 c 0,19,-1
 520 1093 l 1,20,-1
 597 416 l 1,21,-1
 976 1093 l 1,22,-1
 1101 1093 l 1,23,-1
 1161 416 l 1,24,-1
 1531 1068 l 0,25,26
 1593 1177 1593 1177 1688 1177 c 0,27,28
 1765 1177 1765 1177 1798 1097.5 c 128,-1,29
 1831 1018 1831 1018 1838 810 c 1,30,-1
 1790 781 l 1,31,-1
 1775 871 l 2,32,33
 1768 919 1768 919 1752.5 945.5 c 128,-1,34
 1737 972 1737 972 1719 972 c 0,35,36
 1699 972 1699 972 1679 937 c 0,37,-1
 1769 1093 l 1,0,-1
EndSplineSet
EndChar

StartChar: x
Encoding: 111 120 91
Width: 1028
GlyphClass: 1
Flags: W
LayerCount: 2
Fore
SplineSet
978 191 m 1,0,1
 986 167 986 167 1005 167 c 0,2,3
 1053 167 1053 167 1148 325 c 2,4,-1
 1169 361 l 1,5,-1
 1219 326 l 1,6,7
 1103 122 1103 122 1027.5 50 c 128,-1,8
 952 -22 952 -22 852 -22 c 0,9,10
 738 -22 738 -22 709 60 c 1,11,-1
 588 382 l 1,12,-1
 281 34 l 1,13,14
 229 -25 229 -25 148 -25 c 0,15,16
 67 -25 67 -25 31.5 43 c 128,-1,17
 -4 111 -4 111 -21 291 c 1,18,-1
 30 322 l 1,19,-1
 43 241 l 2,20,21
 51 188 51 188 66.5 158.5 c 128,-1,22
 82 129 82 129 101 129 c 0,23,24
 104 129 104 129 107 130 c 128,-1,25
 110 131 110 131 112.5 132.5 c 128,-1,26
 115 134 115 134 118 137 c 128,-1,27
 121 140 121 140 122.5 142 c 128,-1,28
 124 144 124 144 127.5 148 c 128,-1,29
 131 152 131 152 133 154 c 1,30,-1
 522 567 l 1,31,-1
 297 1093 l 1,32,-1
 614 1093 l 1,33,-1
 727 788 l 1,34,-1
 1003 1093 l 1,35,-1
 1259 1093 l 1,36,-1
 797 604 l 1,37,-1
 978 191 l 1,0,1
EndSplineSet
EndChar

StartChar: y
Encoding: 112 121 92
Width: 998
GlyphClass: 1
Flags: W
LayerCount: 2
Fore
SplineSet
1266 1093 m 1,0,-1
 367 -342 l 1,1,-1
 142 -342 l 1,2,-1
 382 27 l 1,3,-1
 244 1093 l 1,4,-1
 268 897 l 0,5,6
 267 910 267 910 257 920 c 128,-1,7
 247 930 247 930 236 930 c 0,8,9
 188 930 188 930 93 771 c 1,10,-1
 72 733 l 1,11,-1
 22 768 l 1,12,13
 137 971 137 971 212 1043 c 128,-1,14
 287 1115 287 1115 386 1115 c 0,15,16
 520 1115 520 1115 535 983 c 0,17,-1
 522 1093 l 1,18,-1
 600 347 l 1,19,-1
 1044 1093 l 1,20,-1
 996 1014 l 0,21,22
 1058 1118 1058 1118 1158 1118 c 0,23,24
 1241 1118 1241 1118 1277.5 1050 c 128,-1,25
 1314 982 1314 982 1330 800 c 1,26,-1
 1278 768 l 1,27,-1
 1266 847 l 2,28,29
 1258 903 1258 903 1242 932.5 c 128,-1,30
 1226 962 1226 962 1206 962 c 0,31,32
 1187 962 1187 962 1166 930 c 0,33,-1
 1266 1093 l 1,0,-1
EndSplineSet
EndChar

StartChar: z
Encoding: 113 122 93
Width: 874
GlyphClass: 1
Flags: W
LayerCount: 2
Fore
SplineSet
855 0 m 1,0,-1
 35 0 l 1,1,-1
 84 212 l 1,2,-1
 743 888 l 1,3,-1
 249 888 l 1,4,-1
 296 1093 l 1,5,-1
 1085 1093 l 1,6,-1
 1036 881 l 1,7,-1
 362 205 l 1,8,-1
 902 205 l 1,9,-1
 855 0 l 1,0,-1
EndSplineSet
EndChar

StartChar: braceleft
Encoding: 114 123 94
Width: 749
GlyphClass: 1
Flags: W
LayerCount: 2
Fore
SplineSet
604 -344 m 1,0,-1
 414 -344 l 2,1,2
 299 -344 299 -344 247 -265 c 128,-1,3
 195 -186 195 -186 218 -86 c 0,4,5
 246 35 246 35 269.5 139.5 c 128,-1,6
 293 244 293 244 323 373 c 0,7,8
 337 434 337 434 310.5 461.5 c 128,-1,9
 284 489 284 489 188 489 c 1,10,-1
 243 731 l 1,11,12
 343 731 343 731 380 747.5 c 128,-1,13
 417 764 417 764 431 825 c 0,14,15
 461 956 461 956 480 1043 c 128,-1,16
 499 1130 499 1130 527 1251 c 0,17,18
 550 1352 550 1352 642 1430.5 c 128,-1,19
 734 1509 734 1509 842 1509 c 2,20,-1
 1032 1509 l 1,21,-1
 988 1317 l 1,22,23
 988 1317 988 1317 956 1317 c 128,-1,24
 924 1317 924 1317 889 1317 c 0,25,26
 842 1317 842 1317 824 1270 c 128,-1,27
 806 1223 806 1223 780 1110 c 0,28,29
 725 870 725 870 672 755.5 c 128,-1,30
 619 641 619 641 498 612 c 1,31,32
 606 575 606 575 613.5 498.5 c 128,-1,33
 621 422 621 422 569 197 c 0,34,35
 516 -33 516 -33 509.5 -92.5 c 128,-1,36
 503 -152 503 -152 550 -152 c 0,37,38
 584 -152 584 -152 616.5 -152 c 128,-1,39
 649 -152 649 -152 649 -152 c 1,40,-1
 604 -344 l 1,0,-1
EndSplineSet
EndChar

StartChar: bar
Encoding: 115 124 95
Width: 778
GlyphClass: 1
Flags: W
LayerCount: 2
Fore
SplineSet
416 -410 m 1,0,-1
 176 -410 l 1,1,-1
 619 1511 l 1,2,-1
 859 1511 l 1,3,-1
 416 -410 l 1,0,-1
EndSplineSet
EndChar

StartChar: braceright
Encoding: 116 125 96
Width: 749
GlyphClass: 1
Flags: W
LayerCount: 2
Fore
SplineSet
788 489 m 1,0,1
 691 489 691 489 652 461.5 c 128,-1,2
 613 434 613 434 599 373 c 0,3,4
 569 244 569 244 544 139.5 c 128,-1,5
 519 35 519 35 491 -86 c 0,6,7
 468 -186 468 -186 380 -265 c 128,-1,8
 292 -344 292 -344 176 -344 c 2,9,-1
 -14 -344 l 1,10,-1
 30 -152 l 1,11,12
 30 -152 30 -152 62.5 -152 c 128,-1,13
 95 -152 95 -152 129 -152 c 0,14,15
 176 -152 176 -152 197 -92.5 c 128,-1,16
 218 -33 218 -33 271 197 c 0,17,18
 323 422 323 422 366 498.5 c 128,-1,19
 409 575 409 575 534 612 c 1,20,21
 426 641 426 641 426 755.5 c 128,-1,22
 426 870 426 870 482 1110 c 0,23,24
 508 1223 508 1223 512 1270 c 128,-1,25
 516 1317 516 1317 468 1317 c 0,26,27
 434 1317 434 1317 402 1317 c 128,-1,28
 370 1317 370 1317 370 1317 c 1,29,-1
 414 1509 l 1,30,-1
 604 1509 l 2,31,32
 713 1509 713 1509 768 1430.5 c 128,-1,33
 823 1352 823 1352 800 1251 c 0,34,35
 772 1130 772 1130 751 1043 c 128,-1,36
 730 956 730 956 700 825 c 0,37,38
 686 764 686 764 714 747.5 c 128,-1,39
 742 731 742 731 843 731 c 1,40,-1
 788 489 l 1,0,1
EndSplineSet
EndChar

StartChar: asciitilde
Encoding: 117 126 97
Width: 1210
GlyphClass: 1
Flags: W
LayerCount: 2
Fore
SplineSet
1353 731 m 0,0,1
 1326 616 1326 616 1230.5 531 c 128,-1,2
 1135 446 1135 446 989 446 c 0,3,4
 903 446 903 446 829.5 492.5 c 128,-1,5
 756 539 756 539 700 596 c 0,6,7
 693 604 693 604 688 607 c 128,-1,8
 683 610 683 610 675 618 c 0,9,10
 636 664 636 664 598 699.5 c 128,-1,11
 560 735 560 735 512 735 c 0,12,13
 449 735 449 735 414 699.5 c 128,-1,14
 379 664 379 664 370 621 c 0,15,16
 358 571 358 571 365 530 c 128,-1,17
 372 489 372 489 392 449 c 1,18,-1
 215 449 l 1,19,20
 188 489 188 489 178.5 537.5 c 128,-1,21
 169 586 169 586 189 672 c 0,22,23
 214 782 214 782 316 869 c 128,-1,24
 418 956 418 956 551 956 c 0,25,26
 637 956 637 956 710.5 911 c 128,-1,27
 784 866 784 866 839 809 c 0,28,29
 850 797 850 797 852.5 795 c 128,-1,30
 855 793 855 793 861 782 c 0,31,32
 900 737 900 737 941 702.5 c 128,-1,33
 982 668 982 668 1030 668 c 0,34,35
 1093 668 1093 668 1127.5 703.5 c 128,-1,36
 1162 739 1162 739 1172 782 c 0,37,38
 1183 831 1183 831 1176.5 872 c 128,-1,39
 1170 913 1170 913 1149 954 c 1,40,-1
 1326 954 l 1,41,42
 1353 913 1353 913 1363 865 c 128,-1,43
 1373 817 1373 817 1353 731 c 0,0,1
EndSplineSet
EndChar

StartChar: Aring
Encoding: 155 197 99
Width: 1262
GlyphClass: 1
Flags: W
LayerCount: 2
Fore
SplineSet
1257 0 m 1,0,-1
 934 0 l 1,1,-1
 914 362 l 1,2,-1
 451 362 l 1,3,-1
 261 0 l 1,4,-1
 4 0 l 1,5,-1
 758 1386 l 1,6,7
 729 1419 729 1419 719 1470.5 c 128,-1,8
 709 1522 709 1522 723 1581 c 0,9,10
 749 1692 749 1692 841 1768.5 c 128,-1,11
 933 1845 933 1845 1042 1845 c 0,12,13
 1152 1845 1152 1845 1207.5 1768.5 c 128,-1,14
 1263 1692 1263 1692 1237 1581 c 0,15,16
 1225 1528 1225 1528 1197 1481 c 128,-1,17
 1169 1434 1169 1434 1131 1401 c 1,18,-1
 1257 0 l 1,0,-1
1102 1581 m 0,19,20
 1114 1632 1114 1632 1087 1672 c 128,-1,21
 1060 1712 1060 1712 1011 1712 c 0,22,23
 963 1712 963 1712 916.5 1672 c 128,-1,24
 870 1632 870 1632 858 1581 c 0,25,26
 846 1528 846 1528 874 1489 c 128,-1,27
 902 1450 902 1450 950 1450 c 0,28,29
 999 1450 999 1450 1044.5 1489 c 128,-1,30
 1090 1528 1090 1528 1102 1581 c 0,19,20
897 580 m 1,31,-1
 853 1135 l 1,32,-1
 563 580 l 1,33,-1
 897 580 l 1,31,-1
EndSplineSet
EndChar

StartChar: dagger
Encoding: 356 8224 130
Width: 974
GlyphClass: 1
Flags: W
LayerCount: 2
Fore
SplineSet
1181 952 m 1,0,-1
 848 952 l 1,1,-1
 511 -342 l 1,2,-1
 288 -342 l 1,3,-1
 549 952 l 1,4,-1
 233 952 l 1,5,-1
 278 1149 l 1,6,-1
 594 1149 l 1,7,-1
 677 1509 l 1,8,-1
 977 1509 l 1,9,-1
 894 1149 l 1,10,-1
 1227 1149 l 1,11,-1
 1181 952 l 1,0,-1
EndSplineSet
EndChar

StartChar: degree
Encoding: 134 176 131
Width: 763
GlyphClass: 1
Flags: W
LayerCount: 2
Fore
SplineSet
1005 1163 m 0,0,1
 970 1012 970 1012 843.5 903.5 c 128,-1,2
 717 795 717 795 577 795 c 0,3,4
 436 795 436 795 360 903.5 c 128,-1,5
 284 1012 284 1012 319 1163 c 0,6,7
 354 1315 354 1315 480 1423.5 c 128,-1,8
 606 1532 606 1532 747 1532 c 0,9,10
 887 1532 887 1532 963.5 1423.5 c 128,-1,11
 1040 1315 1040 1315 1005 1163 c 0,0,1
811 1163 m 0,12,13
 827 1231 827 1231 794.5 1277 c 128,-1,14
 762 1323 762 1323 699 1323 c 256,15,16
 636 1323 636 1323 582.5 1277 c 128,-1,17
 529 1231 529 1231 513 1163 c 0,18,19
 498 1096 498 1096 530 1050 c 128,-1,20
 562 1004 562 1004 625 1004 c 256,21,22
 688 1004 688 1004 742 1050 c 128,-1,23
 796 1096 796 1096 811 1163 c 0,12,13
EndSplineSet
EndChar

StartChar: cent
Encoding: 120 162 132
Width: 1100
GlyphClass: 1
Flags: W
LayerCount: 2
Fore
SplineSet
972 43 m 1,0,1
 960 31 960 31 908 18.5 c 128,-1,2
 856 6 856 6 788 2 c 1,3,-1
 755 -143 l 1,4,-1
 597 -143 l 1,5,-1
 630 0 l 1,6,7
 399 16 399 16 301.5 173 c 128,-1,8
 204 330 204 330 271 616 c 0,9,10
 274 627 274 627 276.5 639 c 128,-1,11
 279 651 279 651 282 666 c 0,12,13
 341 922 341 922 516.5 1067 c 128,-1,14
 692 1212 692 1212 913 1229 c 1,15,-1
 950 1389 l 1,16,-1
 1108 1389 l 1,17,-1
 1071 1227 l 1,18,19
 1130 1221 1130 1221 1171.5 1208.5 c 128,-1,20
 1213 1196 1213 1196 1234 1184 c 1,21,-1
 1184 969 l 1,22,23
 1148 987 1148 987 1096 1003.5 c 128,-1,24
 1044 1020 1044 1020 966 1020 c 0,25,26
 829 1020 829 1020 728.5 924.5 c 128,-1,27
 628 829 628 829 587 651 c 2,28,-1
 583 631 l 2,29,30
 540 444 540 444 577.5 336.5 c 128,-1,31
 615 229 615 229 751 229 c 0,32,33
 838 229 838 229 910 239.5 c 128,-1,34
 982 250 982 250 1023 262 c 1,35,-1
 972 43 l 1,0,1
EndSplineSet
EndChar

StartChar: sterling
Encoding: 121 163 133
Width: 1105
GlyphClass: 1
Flags: W
LayerCount: 2
Fore
SplineSet
1049 0 m 1,0,-1
 158 0 l 1,1,-1
 303 631 l 1,2,-1
 167 631 l 1,3,-1
 213 831 l 1,4,-1
 349 831 l 1,5,-1
 393 1020 l 2,6,7
 444 1241 444 1241 628 1385.5 c 128,-1,8
 812 1530 812 1530 1025 1530 c 0,9,10
 1143 1530 1143 1530 1203 1517.5 c 128,-1,11
 1263 1505 1263 1505 1339 1481 c 1,12,-1
 1287 1253 l 1,13,14
 1211 1280 1211 1280 1151.5 1290 c 128,-1,15
 1092 1300 1092 1300 1021 1300 c 0,16,17
 890 1300 890 1300 816 1231.5 c 128,-1,18
 742 1163 742 1163 703 993 c 2,19,-1
 666 831 l 1,20,-1
 936 831 l 1,21,-1
 890 631 l 1,22,-1
 620 631 l 1,23,-1
 526 225 l 1,24,-1
 1101 225 l 1,25,-1
 1049 0 l 1,0,-1
EndSplineSet
EndChar

StartChar: section
Encoding: 125 167 134
Width: 840
GlyphClass: 1
Flags: W
LayerCount: 2
Fore
SplineSet
956 772 m 0,0,1
 936 684 936 684 891 617.5 c 128,-1,2
 846 551 846 551 781 508 c 1,3,4
 813 483 813 483 833 431 c 128,-1,5
 853 379 853 379 833 289 c 0,6,7
 799 143 799 143 669.5 59 c 128,-1,8
 540 -25 540 -25 364 -25 c 0,9,10
 269 -25 269 -25 187 -2.5 c 128,-1,11
 105 20 105 20 74 37 c 1,12,-1
 121 240 l 1,13,14
 156 219 156 219 228.5 190.5 c 128,-1,15
 301 162 301 162 371 162 c 0,16,17
 469 162 469 162 523.5 199 c 128,-1,18
 578 236 578 236 591 289 c 0,19,20
 600 330 600 330 577.5 371 c 128,-1,21
 555 412 555 412 439 475 c 0,22,23
 352 524 352 524 293 586.5 c 128,-1,24
 234 649 234 649 263 776 c 0,25,26
 278 840 278 840 325 903.5 c 128,-1,27
 372 967 372 967 422 1001 c 1,28,29
 373 1032 373 1032 358.5 1086.5 c 128,-1,30
 344 1141 344 1141 361 1214 c 0,31,32
 391 1343 391 1343 502 1436.5 c 128,-1,33
 613 1530 613 1530 786 1530 c 0,34,35
 883 1530 883 1530 954 1507.5 c 128,-1,36
 1025 1485 1025 1485 1053 1466 c 1,37,-1
 1004 1253 l 1,38,39
 966 1286 966 1286 896.5 1314.5 c 128,-1,40
 827 1343 827 1343 745 1343 c 0,41,42
 672 1343 672 1343 632.5 1316.5 c 128,-1,43
 593 1290 593 1290 582 1241 c 0,44,45
 566 1171 566 1171 621.5 1134.5 c 128,-1,46
 677 1098 677 1098 747 1063 c 0,47,48
 880 997 880 997 926.5 921.5 c 128,-1,49
 973 846 973 846 956 772 c 0,0,1
713 725 m 0,50,51
 721 758 721 758 688.5 803 c 128,-1,52
 656 848 656 848 551 905 c 1,53,54
 525 891 525 891 503 859 c 128,-1,55
 481 827 481 827 476 807 c 0,56,57
 459 735 459 735 505.5 703.5 c 128,-1,58
 552 672 552 672 649 616 c 1,59,60
 672 633 672 633 689 664.5 c 128,-1,61
 706 696 706 696 713 725 c 0,50,51
EndSplineSet
EndChar

StartChar: bullet
Encoding: 358 8226 135
Width: 1104
GlyphClass: 1
Flags: W
LayerCount: 2
Fore
SplineSet
333 768 m 0,0,1
 374 944 374 944 520.5 1069.5 c 128,-1,2
 667 1195 667 1195 829 1195 c 256,3,4
 991 1195 991 1195 1079 1069 c 128,-1,5
 1167 943 1167 943 1126 768 c 0,6,7
 1086 595 1086 595 941 468 c 128,-1,8
 796 341 796 341 631 341 c 256,9,10
 466 341 466 341 379.5 467.5 c 128,-1,11
 293 594 293 594 333 768 c 0,0,1
EndSplineSet
EndChar

StartChar: paragraph
Encoding: 140 182 136
Width: 1105
GlyphClass: 1
Flags: W
LayerCount: 2
Fore
SplineSet
995 0 m 1,0,-1
 812 0 l 1,1,-1
 1108 1284 l 1,2,-1
 1015 1284 l 1,3,-1
 719 0 l 1,4,-1
 519 0 l 1,5,-1
 661 616 l 1,6,7
 446 616 446 616 341 715.5 c 128,-1,8
 236 815 236 815 287 1034 c 2,9,-1
 299 1085 l 2,10,11
 343 1274 343 1274 499.5 1391.5 c 128,-1,12
 656 1509 656 1509 890 1509 c 2,13,-1
 1343 1509 l 1,14,-1
 995 0 l 1,0,-1
710 852 m 1,15,-1
 809 1280 l 1,16,17
 706 1280 706 1280 631 1223.5 c 128,-1,18
 556 1167 556 1167 534 1071 c 0,19,20
 511 971 511 971 550.5 911.5 c 128,-1,21
 590 852 590 852 710 852 c 1,15,-1
EndSplineSet
EndChar

StartChar: germandbls
Encoding: 181 223 137
Width: 1214
GlyphClass: 1
Flags: W
LayerCount: 2
Fore
SplineSet
1249 326 m 0,0,1
 1208 147 1208 147 1093.5 62 c 128,-1,2
 979 -23 979 -23 784 -23 c 0,3,4
 770 -22 770 -22 735 -20 c 0,5,6
 735 -20 735 -20 700 -18 c 1,7,-1
 750 199 l 1,8,9
 861 199 861 199 899 226.5 c 128,-1,10
 937 254 937 254 950 313 c 0,11,12
 966 383 966 383 921.5 437.5 c 128,-1,13
 877 492 877 492 835 528 c 0,14,15
 733 614 733 614 706 686 c 128,-1,16
 679 758 679 758 709 887 c 0,17,18
 729 975 729 975 811 1060 c 128,-1,19
 893 1145 893 1145 906 1198 c 0,20,21
 916 1241 916 1241 900 1266.5 c 128,-1,22
 884 1292 884 1292 834 1292 c 0,23,24
 784 1292 784 1292 738 1250 c 128,-1,25
 692 1208 692 1208 674 1130 c 2,26,-1
 414 0 l 1,27,-1
 130 0 l 1,28,-1
 384 1102 l 2,29,30
 421 1264 421 1264 558 1386.5 c 128,-1,31
 695 1509 695 1509 870 1509 c 0,32,33
 1066 1509 1066 1509 1136 1435.5 c 128,-1,34
 1206 1362 1206 1362 1174 1225 c 0,35,36
 1151 1126 1151 1126 1066.5 1056.5 c 128,-1,37
 982 987 982 987 971 938 c 0,38,39
 958 881 958 881 979.5 839 c 128,-1,40
 1001 797 1001 797 1099 709 c 0,41,42
 1189 627 1189 627 1232 533.5 c 128,-1,43
 1275 440 1275 440 1249 326 c 0,0,1
EndSplineSet
EndChar

StartChar: registered
Encoding: 132 174 138
Width: 1413
GlyphClass: 1
Flags: W
LayerCount: 2
Fore
SplineSet
1483 690 m 0,0,1
 1419 414 1419 414 1193.5 220.5 c 128,-1,2
 968 27 968 27 713 27 c 0,3,4
 457 27 457 27 321 220.5 c 128,-1,5
 185 414 185 414 248 690 c 0,6,7
 312 967 312 967 538 1162.5 c 128,-1,8
 764 1358 764 1358 1020 1358 c 0,9,10
 1275 1358 1275 1358 1411 1162.5 c 128,-1,11
 1547 967 1547 967 1483 690 c 0,0,1
1337 690 m 256,12,13
 1385 899 1385 899 1283 1056.5 c 128,-1,14
 1181 1214 1181 1214 987 1214 c 256,15,16
 793 1214 793 1214 619.5 1056.5 c 128,-1,17
 446 899 446 899 397 690 c 256,18,19
 349 481 349 481 450 323.5 c 128,-1,20
 551 166 551 166 745 166 c 256,21,22
 939 166 939 166 1114 323.5 c 128,-1,23
 1289 481 1289 481 1337 690 c 256,12,13
1040 342 m 1,24,-1
 864 342 l 1,25,26
 864 342 864 342 870.5 371.5 c 128,-1,27
 877 401 877 401 893 469 c 0,28,29
 911 545 911 545 896.5 599 c 128,-1,30
 882 653 882 653 836 653 c 0,31,32
 825 653 825 653 807.5 653 c 128,-1,33
 790 653 790 653 790 653 c 257,34,35
 790 653 790 653 768.5 559 c 128,-1,36
 747 465 747 465 719 342 c 1,37,38
 686 342 686 342 640.5 342 c 128,-1,39
 595 342 595 342 561 342 c 1,40,-1
 725 1053 l 1,41,42
 725 1053 725 1053 826.5 1053 c 128,-1,43
 928 1053 928 1053 982 1053 c 0,44,45
 1086 1053 1086 1053 1128 1010 c 128,-1,46
 1170 967 1170 967 1154 899 c 0,47,48
 1152 891 1152 891 1146.5 867.5 c 128,-1,49
 1141 844 1141 844 1140 838 c 0,50,51
 1127 780 1127 780 1088.5 742.5 c 128,-1,52
 1050 705 1050 705 1002 694 c 1,53,54
 1062 655 1062 655 1072 587.5 c 128,-1,55
 1082 520 1082 520 1067 459 c 0,56,57
 1063 442 1063 442 1040 342 c 1,24,-1
992 831 m 0,58,59
 994 838 994 838 995 844 c 128,-1,60
 996 850 996 850 998 858 c 0,61,62
 1006 891 1006 891 993 914.5 c 128,-1,63
 980 938 980 938 952 938 c 0,64,65
 944 938 944 938 908 938 c 128,-1,66
 872 938 872 938 856 938 c 1,67,-1
 812 748 l 1,68,69
 812 748 812 748 847.5 748 c 128,-1,70
 883 748 883 748 908 748 c 0,71,72
 941 748 941 748 961.5 768 c 128,-1,73
 982 788 982 788 992 831 c 0,58,59
EndSplineSet
EndChar

StartChar: copyright
Encoding: 127 169 139
Width: 1413
GlyphClass: 1
Flags: W
LayerCount: 2
Fore
SplineSet
1483 690 m 0,0,1
 1419 414 1419 414 1193.5 220.5 c 128,-1,2
 968 27 968 27 713 27 c 0,3,4
 457 27 457 27 321 220.5 c 128,-1,5
 185 414 185 414 248 690 c 0,6,7
 312 967 312 967 538 1162.5 c 128,-1,8
 764 1358 764 1358 1020 1358 c 0,9,10
 1275 1358 1275 1358 1411 1162.5 c 128,-1,11
 1547 967 1547 967 1483 690 c 0,0,1
1337 690 m 256,12,13
 1385 899 1385 899 1283 1056.5 c 128,-1,14
 1181 1214 1181 1214 987 1214 c 256,15,16
 793 1214 793 1214 619.5 1056.5 c 128,-1,17
 446 899 446 899 397 690 c 256,18,19
 349 481 349 481 450 323.5 c 128,-1,20
 551 166 551 166 745 166 c 256,21,22
 939 166 939 166 1114 323.5 c 128,-1,23
 1289 481 1289 481 1337 690 c 256,12,13
1025 379 m 1,24,25
 992 360 992 360 933.5 344 c 128,-1,26
 875 328 875 328 815 328 c 0,27,28
 657 328 657 328 589.5 404.5 c 128,-1,29
 522 481 522 481 563 657 c 2,30,-1
 571 692 l 2,31,32
 607 850 607 850 720 938 c 128,-1,33
 833 1026 833 1026 980 1026 c 0,34,35
 1054 1026 1054 1026 1097 1009.5 c 128,-1,36
 1140 993 1140 993 1163 977 c 1,37,-1
 1134 850 l 1,38,39
 1112 870 1112 870 1069 886.5 c 128,-1,40
 1026 903 1026 903 979 903 c 0,41,42
 897 903 897 903 844 854 c 128,-1,43
 791 805 791 805 763 682 c 2,44,-1
 760 668 l 2,45,46
 731 541 731 541 759 502 c 128,-1,47
 787 463 787 463 868 463 c 0,48,49
 926 463 926 463 976.5 479.5 c 128,-1,50
 1027 496 1027 496 1056 514 c 1,51,-1
 1025 379 l 1,24,25
EndSplineSet
EndChar

StartChar: trademark
Encoding: 369 8482 140
Width: 1339
GlyphClass: 1
Flags: W
LayerCount: 2
Fore
SplineSet
1505 885 m 1,0,-1
 1343 885 l 1,1,-1
 1418 1208 l 1,2,-1
 1194 1016 l 1,3,-1
 1150 1016 l 1,4,-1
 1017 1206 l 1,5,-1
 943 885 l 1,6,-1
 817 885 l 1,7,-1
 957 1493 l 1,8,-1
 1047 1493 l 1,9,-1
 1251 1202 l 1,10,-1
 1586 1493 l 1,11,-1
 1645 1493 l 1,12,-1
 1505 885 l 1,0,-1
854 1372 m 1,13,-1
 669 1372 l 1,14,-1
 556 885 l 1,15,-1
 411 885 l 1,16,-1
 524 1372 l 1,17,-1
 340 1372 l 1,18,-1
 367 1493 l 1,19,-1
 882 1493 l 1,20,-1
 854 1372 l 1,13,-1
EndSplineSet
EndChar

StartChar: acute
Encoding: 138 180 141
Width: 942
GlyphClass: 1
Flags: W
LayerCount: 2
Fore
SplineSet
1118 1677 m 1,0,-1
 731 1323 l 1,1,-1
 529 1323 l 1,2,-1
 844 1677 l 1,3,-1
 1118 1677 l 1,0,-1
EndSplineSet
EndChar

StartChar: dieresis
Encoding: 126 168 142
Width: 946
GlyphClass: 1
Flags: W
LayerCount: 2
Fore
SplineSet
1160 1479 m 0,0,1
 1147 1421 1147 1421 1100 1380 c 128,-1,2
 1053 1339 1053 1339 999 1339 c 0,3,4
 948 1339 948 1339 920 1380 c 128,-1,5
 892 1421 892 1421 906 1479 c 0,6,7
 919 1534 919 1534 965.5 1575 c 128,-1,8
 1012 1616 1012 1616 1063 1616 c 0,9,10
 1117 1616 1117 1616 1145 1575 c 128,-1,11
 1173 1534 1173 1534 1160 1479 c 0,0,1
733 1479 m 0,12,13
 720 1421 720 1421 673 1380 c 128,-1,14
 626 1339 626 1339 573 1339 c 0,15,16
 521 1339 521 1339 493.5 1380 c 128,-1,17
 466 1421 466 1421 480 1479 c 0,18,19
 493 1534 493 1534 539 1575 c 128,-1,20
 585 1616 585 1616 637 1616 c 0,21,22
 690 1616 690 1616 718 1575 c 128,-1,23
 746 1534 746 1534 733 1479 c 0,12,13
EndSplineSet
EndChar

StartChar: notequal
Encoding: 397 8800 143
Width: 1188
GlyphClass: 1
Flags: W
LayerCount: 2
Fore
SplineSet
1065 236 m 1,0,-1
 469 236 l 1,1,-1
 334 25 l 1,2,-1
 184 117 l 1,3,-1
 260 236 l 1,4,-1
 125 236 l 1,5,-1
 125 473 l 1,6,-1
 412 473 l 1,7,-1
 567 715 l 1,8,-1
 125 715 l 1,9,-1
 125 952 l 1,10,-1
 721 952 l 1,11,-1
 870 1186 l 1,12,-1
 1022 1094 l 1,13,-1
 930 952 l 1,14,-1
 1065 952 l 1,15,-1
 1065 715 l 1,16,-1
 778 715 l 1,17,-1
 623 473 l 1,18,-1
 1065 473 l 1,19,-1
 1065 236 l 1,0,-1
EndSplineSet
EndChar

StartChar: AE
Encoding: 156 198 144
Width: 1660
GlyphClass: 1
Flags: W
LayerCount: 2
Fore
SplineSet
1593 0 m 1,0,-1
 725 0 l 1,1,-1
 808 362 l 1,2,-1
 458 362 l 1,3,-1
 224 0 l 1,4,-1
 -50 0 l 1,5,-1
 942 1509 l 1,6,-1
 1905 1509 l 1,7,-1
 1853 1284 l 1,8,-1
 1330 1284 l 1,9,-1
 1236 879 l 1,10,-1
 1640 879 l 1,11,-1
 1587 651 l 1,12,-1
 1184 651 l 1,13,-1
 1085 225 l 1,14,-1
 1645 225 l 1,15,-1
 1593 0 l 1,0,-1
859 580 m 1,16,-1
 1007 1223 l 1,17,-1
 600 580 l 1,18,-1
 859 580 l 1,16,-1
EndSplineSet
EndChar

StartChar: infinity
Encoding: 394 8734 146
Width: 1544
GlyphClass: 1
Flags: W
LayerCount: 2
Fore
SplineSet
1460 682 m 0,0,1
 1460 512 1460 512 1360 425 c 128,-1,2
 1260 338 1260 338 1100 338 c 0,3,4
 987 338 987 338 906 385 c 128,-1,5
 825 432 825 432 766 512 c 1,6,7
 707 426 707 426 634 384 c 128,-1,8
 561 342 561 342 440 342 c 0,9,10
 281 342 281 342 178.5 428 c 128,-1,11
 76 514 76 514 76 682 c 256,12,13
 76 850 76 850 180.5 936 c 128,-1,14
 285 1022 285 1022 436 1022 c 0,15,16
 553 1022 553 1022 634 973 c 128,-1,17
 715 924 715 924 770 842 c 1,18,19
 827 922 827 922 906 970 c 128,-1,20
 985 1018 985 1018 1094 1018 c 0,21,22
 1262 1018 1262 1018 1361 928 c 128,-1,23
 1460 838 1460 838 1460 682 c 0,0,1
1274 682 m 0,24,25
 1274 758 1274 758 1220.5 805 c 128,-1,26
 1167 852 1167 852 1096 852 c 0,27,28
 1038 852 1038 852 991 820 c 128,-1,29
 944 788 944 788 877 684 c 1,30,31
 934 586 934 586 983 549 c 128,-1,32
 1032 512 1032 512 1100 512 c 0,33,34
 1169 512 1169 512 1221.5 560 c 128,-1,35
 1274 608 1274 608 1274 682 c 0,24,25
657 676 m 1,36,37
 606 770 606 770 556 809 c 128,-1,38
 506 848 506 848 436 848 c 0,39,40
 369 848 369 848 315.5 799 c 128,-1,41
 262 750 262 750 262 680 c 0,42,43
 262 602 262 602 314.5 555 c 128,-1,44
 367 508 367 508 436 508 c 0,45,46
 506 508 506 508 557 546 c 128,-1,47
 608 584 608 584 657 676 c 1,36,37
EndSplineSet
EndChar

StartChar: plusminus
Encoding: 135 177 147
Width: 1097
GlyphClass: 1
Flags: W
LayerCount: 2
Fore
SplineSet
1071 647 m 1,0,-1
 803 647 l 1,1,-1
 740 375 l 1,2,-1
 530 375 l 1,3,-1
 593 647 l 1,4,-1
 327 647 l 1,5,-1
 381 883 l 1,6,-1
 647 883 l 1,7,-1
 710 1155 l 1,8,-1
 920 1155 l 1,9,-1
 857 883 l 1,10,-1
 1125 883 l 1,11,-1
 1071 647 l 1,0,-1
932 0 m 1,12,-1
 177 0 l 1,13,-1
 228 217 l 1,14,-1
 982 217 l 1,15,-1
 932 0 l 1,12,-1
EndSplineSet
EndChar

StartChar: lessequal
Encoding: 398 8804 148
Width: 1024
GlyphClass: 1
Flags: W
LayerCount: 2
Fore
SplineSet
925 311 m 1,0,-1
 75 657 l 1,1,-1
 75 866 l 1,2,-1
 925 1214 l 1,3,-1
 925 950 l 1,4,-1
 450 766 l 1,5,-1
 925 573 l 1,6,-1
 925 311 l 1,0,-1
925 0 m 1,7,-1
 75 0 l 1,8,-1
 75 221 l 1,9,-1
 925 221 l 1,10,-1
 925 0 l 1,7,-1
EndSplineSet
EndChar

StartChar: yen
Encoding: 123 165 150
Width: 1226
GlyphClass: 1
Flags: W
LayerCount: 2
Fore
SplineSet
1583 1509 m 1,0,-1
 916 725 l 1,1,-1
 897 643 l 1,2,-1
 1196 643 l 1,3,-1
 1156 471 l 1,4,-1
 857 471 l 1,5,-1
 835 373 l 1,6,-1
 1133 373 l 1,7,-1
 1094 201 l 1,8,-1
 795 201 l 1,9,-1
 749 0 l 1,10,-1
 471 0 l 1,11,-1
 517 201 l 1,12,-1
 218 201 l 1,13,-1
 257 373 l 1,14,-1
 557 373 l 1,15,-1
 579 471 l 1,16,-1
 280 471 l 1,17,-1
 320 643 l 1,18,-1
 619 643 l 1,19,-1
 630 690 l 1,20,-1
 345 1509 l 1,21,-1
 695 1509 l 1,22,-1
 883 969 l 1,23,-1
 1331 1509 l 1,24,-1
 1583 1509 l 1,0,-1
EndSplineSet
EndChar

StartChar: mu
Encoding: 139 181 151
Width: 1131
GlyphClass: 1
Flags: W
LayerCount: 2
Fore
SplineSet
1082 327 m 1,0,1
 1078 309 1078 309 1072 264.5 c 128,-1,2
 1066 220 1066 220 1068 212 c 0,3,4
 1068 197 1068 197 1078 186.5 c 128,-1,5
 1088 176 1088 176 1101 176 c 0,6,7
 1151 176 1151 176 1253 348 c 1,8,-1
 1267 372 l 1,9,-1
 1320 337 l 1,10,11
 1198 126 1198 126 1119.5 52.5 c 128,-1,12
 1041 -21 1041 -21 935 -21 c 0,13,14
 898 -21 898 -21 870.5 -11.5 c 128,-1,15
 843 -2 843 -2 824.5 10.5 c 128,-1,16
 806 23 806 23 794.5 46.5 c 128,-1,17
 783 70 783 70 777 88.5 c 128,-1,18
 771 107 771 107 771 138.5 c 128,-1,19
 771 170 771 170 771.5 186 c 128,-1,20
 772 202 772 202 778 235 c 128,-1,21
 784 268 784 268 785.5 276 c 128,-1,22
 787 284 787 284 793 309 c 1,23,24
 744 228 744 228 642 42 c 0,25,26
 574 0 574 0 488 0 c 0,27,28
 460 0 460 0 437.5 0 c 128,-1,29
 415 0 415 0 392 8 c 1,30,-1
 311 -342 l 1,31,-1
 51 -342 l 1,32,-1
 382 1093 l 1,33,-1
 666 1093 l 1,34,-1
 501 381 l 2,35,36
 477 278 477 278 506.5 251.5 c 128,-1,37
 536 225 536 225 581 225 c 0,38,39
 641 225 641 225 702.5 251.5 c 128,-1,40
 764 278 764 278 798 329 c 1,41,-1
 974 1093 l 1,42,-1
 1259 1093 l 1,43,-1
 1082 327 l 1,0,1
EndSplineSet
EndChar

StartChar: partialdiff
Encoding: 386 8706 152
Width: 1190
GlyphClass: 1
Flags: W
LayerCount: 2
Fore
SplineSet
1114 573 m 0,0,1
 1096 287 1096 287 955.5 131 c 128,-1,2
 815 -25 815 -25 543 -25 c 0,3,4
 315 -25 315 -25 189 137 c 128,-1,5
 63 299 63 299 63 528 c 0,6,7
 63 778 63 778 186 924.5 c 128,-1,8
 309 1071 309 1071 543 1071 c 0,9,10
 621 1071 621 1071 686.5 1033 c 128,-1,11
 752 995 752 995 788 954 c 1,12,13
 770 1137 770 1137 686 1231 c 128,-1,14
 602 1325 602 1325 461 1325 c 0,15,16
 401 1325 401 1325 348 1312.5 c 128,-1,17
 295 1300 295 1300 231 1268 c 1,18,-1
 231 1499 l 1,19,20
 266 1513 266 1513 323.5 1529.5 c 128,-1,21
 381 1546 381 1546 461 1546 c 0,22,23
 764 1546 764 1546 930 1306.5 c 128,-1,24
 1096 1067 1096 1067 1114 705 c 0,25,26
 1114 692 1114 692 1115 647 c 128,-1,27
 1116 602 1116 602 1114 573 c 0,0,1
780 532 m 0,28,29
 780 657 780 657 734 756.5 c 128,-1,30
 688 856 688 856 584 856 c 0,31,32
 496 856 496 856 446.5 788.5 c 128,-1,33
 397 721 397 721 397 528 c 0,34,35
 397 369 397 369 440 266.5 c 128,-1,36
 483 164 483 164 584 164 c 0,37,38
 682 164 682 164 731 266.5 c 128,-1,39
 780 369 780 369 780 532 c 0,28,29
EndSplineSet
EndChar

StartChar: summation
Encoding: 389 8721 153
Width: 1276
GlyphClass: 1
Flags: W
LayerCount: 2
Fore
SplineSet
1214 0 m 1,0,-1
 86 0 l 1,1,-1
 86 199 l 1,2,-1
 651 770 l 1,3,-1
 106 1315 l 1,4,-1
 106 1509 l 1,5,-1
 1133 1509 l 1,6,-1
 1133 1284 l 1,7,-1
 545 1284 l 1,8,-1
 1042 786 l 1,9,-1
 516 264 l 1,10,-1
 1214 264 l 1,11,-1
 1214 0 l 1,0,-1
EndSplineSet
EndChar

StartChar: product
Encoding: 388 8719 154
Width: 1360
GlyphClass: 1
Flags: W
LayerCount: 2
Fore
SplineSet
1335 1284 m 1,0,-1
 1182 1284 l 1,1,-1
 1182 0 l 1,2,-1
 844 0 l 1,3,-1
 844 1284 l 1,4,-1
 516 1284 l 1,5,-1
 516 0 l 1,6,-1
 178 0 l 1,7,-1
 178 1284 l 1,8,-1
 27 1284 l 1,9,-1
 27 1509 l 1,10,-1
 1335 1509 l 1,11,-1
 1335 1284 l 1,0,-1
EndSplineSet
EndChar

StartChar: pi
Encoding: 346 960 155
Width: 1191
GlyphClass: 1
Flags: W
LayerCount: 2
Fore
SplineSet
1354 894 m 1,0,-1
 1224 894 l 1,1,-1
 1017 0 l 1,2,-1
 733 0 l 1,3,-1
 940 894 l 1,4,-1
 659 894 l 1,5,-1
 453 0 l 1,6,-1
 169 0 l 1,7,-1
 375 894 l 1,8,-1
 245 894 l 1,9,-1
 291 1093 l 1,10,-1
 1400 1093 l 1,11,-1
 1354 894 l 1,0,-1
EndSplineSet
EndChar

StartChar: integral
Encoding: 395 8747 156
Width: 967
GlyphClass: 1
Flags: W
LayerCount: 2
Fore
SplineSet
995 1460 m 1,0,-1
 895 1251 l 1,1,2
 870 1272 870 1272 837.5 1290.5 c 128,-1,3
 805 1309 805 1309 758 1309 c 0,4,5
 700 1309 700 1309 674.5 1269 c 128,-1,6
 649 1229 649 1229 649 1151 c 2,7,-1
 649 57 l 2,8,9
 649 -127 649 -127 534.5 -240.5 c 128,-1,10
 420 -354 420 -354 254 -354 c 0,11,12
 137 -354 137 -354 74.5 -335.5 c 128,-1,13
 12 -317 12 -317 -37 -285 c 1,14,-1
 57 -86 l 1,15,16
 82 -106 82 -106 118 -123.5 c 128,-1,17
 154 -141 154 -141 201 -141 c 0,18,19
 258 -141 258 -141 283.5 -97 c 128,-1,20
 309 -53 309 -53 309 25 c 2,21,-1
 309 1118 l 2,22,23
 309 1303 309 1303 424 1416.5 c 128,-1,24
 539 1530 539 1530 705 1530 c 0,25,26
 821 1530 821 1530 883.5 1511.5 c 128,-1,27
 946 1493 946 1493 995 1460 c 1,0,-1
EndSplineSet
EndChar

StartChar: ordfeminine
Encoding: 128 170 157
Width: 855
GlyphClass: 1
Flags: W
LayerCount: 2
Fore
SplineSet
903 566 m 1,0,-1
 670 566 l 1,1,-1
 691 666 l 1,2,3
 653 613 653 613 594 583 c 128,-1,4
 535 553 535 553 455 553 c 0,5,6
 316 553 316 553 262.5 627 c 128,-1,7
 209 701 209 701 243 846 c 2,8,-1
 246 861 l 2,9,10
 280 1009 280 1009 393 1093 c 128,-1,11
 506 1177 506 1177 664 1177 c 0,12,13
 712 1177 712 1177 743 1160.5 c 128,-1,14
 774 1144 774 1144 791 1122 c 1,15,-1
 815 1229 l 2,16,17
 830 1294 830 1294 808.5 1325 c 128,-1,18
 787 1356 787 1356 717 1356 c 0,19,20
 642 1356 642 1356 576.5 1324.5 c 128,-1,21
 511 1293 511 1293 459 1250 c 1,22,-1
 509 1468 l 1,23,24
 570 1493 570 1493 643.5 1511.5 c 128,-1,25
 717 1530 717 1530 815 1530 c 0,26,27
 975 1530 975 1530 1033 1454 c 128,-1,28
 1091 1378 1091 1378 1049 1197 c 2,29,-1
 903 566 l 1,0,-1
834 272 m 1,30,-1
 127 272 l 1,31,-1
 171 463 l 1,32,-1
 878 463 l 1,33,-1
 834 272 l 1,30,-1
736 861 m 2,34,-1
 740 877 l 2,35,36
 756 944 756 944 733 978.5 c 128,-1,37
 710 1013 710 1013 649 1013 c 0,38,39
 595 1013 595 1013 555 981 c 128,-1,40
 515 949 515 949 498 877 c 2,41,-1
 494 860 l 2,42,43
 476 784 476 784 504 760 c 128,-1,44
 532 736 532 736 586 736 c 0,45,46
 633 736 633 736 677 765.5 c 128,-1,47
 721 795 721 795 736 861 c 2,34,-1
EndSplineSet
EndChar

StartChar: ordmasculine
Encoding: 144 186 158
Width: 970
GlyphClass: 1
Flags: W
LayerCount: 2
Fore
SplineSet
1132 1014 m 2,0,1
 1082 799 1082 799 945 678 c 128,-1,2
 808 557 808 557 619 557 c 256,3,4
 430 557 430 557 347 681 c 128,-1,5
 264 805 264 805 312 1014 c 2,6,-1
 326 1075 l 2,7,8
 373 1280 373 1280 513.5 1406 c 128,-1,9
 654 1532 654 1532 843 1532 c 0,10,11
 1034 1532 1034 1532 1113.5 1405 c 128,-1,12
 1193 1278 1193 1278 1146 1075 c 2,13,-1
 1132 1014 l 2,0,1
925 272 m 1,14,-1
 159 272 l 1,15,-1
 203 463 l 1,16,-1
 969 463 l 1,17,-1
 925 272 l 1,14,-1
883 1038 m 2,18,-1
 886 1051 l 2,19,20
 925 1221 925 1221 894.5 1282 c 128,-1,21
 864 1343 864 1343 797 1343 c 0,22,23
 730 1343 730 1343 673 1276.5 c 128,-1,24
 616 1210 616 1210 579 1051 c 2,25,-1
 576 1038 l 2,26,27
 535 862 535 862 563 803.5 c 128,-1,28
 591 745 591 745 661 745 c 0,29,30
 724 745 724 745 782.5 801.5 c 128,-1,31
 841 858 841 858 883 1038 c 2,18,-1
EndSplineSet
EndChar

StartChar: Omega
Encoding: 345 937 159
AltUni2: 002126.ffffffff.0 002126.ffffffff.0
Width: 1421
GlyphClass: 1
Flags: W
LayerCount: 2
Fore
SplineSet
1544 831 m 2,0,1
 1504 657 1504 657 1386 535.5 c 128,-1,2
 1268 414 1268 414 1118 354 c 1,3,-1
 1088 225 l 1,4,-1
 1393 225 l 1,5,-1
 1341 0 l 1,6,-1
 822 0 l 1,7,-1
 926 453 l 1,8,9
 1050 494 1050 494 1122 613.5 c 128,-1,10
 1194 733 1194 733 1226 870 c 2,11,-1
 1236 911 l 2,12,13
 1289 1141 1289 1141 1232 1241 c 128,-1,14
 1175 1341 1175 1341 1020 1341 c 0,15,16
 869 1341 869 1341 765 1243 c 128,-1,17
 661 1145 661 1145 607 911 c 2,18,-1
 597 870 l 2,19,20
 560 711 560 711 585 598 c 128,-1,21
 610 485 610 485 705 453 c 1,22,-1
 600 0 l 1,23,-1
 80 0 l 1,24,-1
 132 225 l 1,25,-1
 437 225 l 1,26,-1
 467 354 l 1,27,28
 365 391 365 391 290.5 513 c 128,-1,29
 216 635 216 635 265 850 c 2,30,-1
 288 946 l 2,31,32
 343 1186 343 1186 541.5 1358 c 128,-1,33
 740 1530 740 1530 1072 1530 c 0,34,35
 1377 1530 1377 1530 1504 1368 c 128,-1,36
 1631 1206 1631 1206 1571 946 c 2,37,-1
 1544 831 l 2,0,1
EndSplineSet
EndChar

StartChar: ae
Encoding: 188 230 160
Width: 1626
GlyphClass: 1
Flags: W
LayerCount: 2
Fore
SplineSet
1651 477 m 1,0,-1
 1015 477 l 1,1,2
 975 306 975 306 1030.5 239 c 128,-1,3
 1086 172 1086 172 1200 172 c 0,4,5
 1275 172 1275 172 1358 193.5 c 128,-1,6
 1441 215 1441 215 1533 257 c 1,7,-1
 1491 74 l 1,8,9
 1407 25 1407 25 1314.5 0 c 128,-1,10
 1222 -25 1222 -25 1107 -25 c 0,11,12
 978 -25 978 -25 896 21.5 c 128,-1,13
 814 68 814 68 764 174 c 1,14,15
 697 78 697 78 611 32 c 128,-1,16
 525 -14 525 -14 404 -14 c 0,17,18
 245 -14 245 -14 169.5 77.5 c 128,-1,19
 94 169 94 169 137 355 c 2,20,-1
 141 375 l 2,21,22
 184 559 184 559 317.5 658.5 c 128,-1,23
 451 758 451 758 636 758 c 0,24,25
 690 758 690 758 738 738.5 c 128,-1,26
 786 719 786 719 803 690 c 1,27,-1
 827 794 l 2,28,29
 839 848 839 848 804 885.5 c 128,-1,30
 769 923 769 923 687 923 c 0,31,32
 600 923 600 923 527 902.5 c 128,-1,33
 454 882 454 882 395 851 c 1,34,-1
 438 1038 l 1,35,36
 512 1070 512 1070 597.5 1093 c 128,-1,37
 683 1116 683 1116 799 1116 c 0,38,39
 896 1116 896 1116 952.5 1091 c 128,-1,40
 1009 1066 1009 1066 1046 1019 c 1,41,42
 1096 1067 1096 1067 1178.5 1123.5 c 128,-1,43
 1261 1180 1261 1180 1373 1180 c 0,44,45
 1585 1180 1585 1180 1661 1016.5 c 128,-1,46
 1737 853 1737 853 1677 590 c 2,47,48
 1677 590 1677 590 1665.5 540 c 128,-1,49
 1654 490 1654 490 1651 477 c 1,0,-1
1440 641 m 1,50,51
 1468 800 1468 800 1435.5 868.5 c 128,-1,52
 1403 937 1403 937 1319 937 c 0,53,54
 1245 937 1245 937 1170.5 869.5 c 128,-1,55
 1096 802 1096 802 1054 641 c 1,56,-1
 1440 641 l 1,50,51
731 369 m 2,57,-1
 737 397 l 2,58,59
 759 492 759 492 730.5 542 c 128,-1,60
 702 592 702 592 625 592 c 0,61,62
 551 592 551 592 501.5 545 c 128,-1,63
 452 498 452 498 429 395 c 2,64,-1
 422 367 l 2,65,66
 397 260 397 260 430 224 c 128,-1,67
 463 188 463 188 533 188 c 0,68,69
 593 188 593 188 651 231.5 c 128,-1,70
 709 275 709 275 731 369 c 2,57,-1
EndSplineSet
EndChar

StartChar: questiondown
Encoding: 149 191 162
Width: 853
GlyphClass: 1
Flags: W
LayerCount: 2
Fore
SplineSet
901 1190 m 1,0,-1
 609 1190 l 1,1,-1
 683 1511 l 1,2,-1
 975 1511 l 1,3,-1
 901 1190 l 1,0,-1
862 113 m 1,4,5
 774 55 774 55 669.5 18.5 c 128,-1,6
 565 -18 565 -18 419 -18 c 0,7,8
 196 -18 196 -18 125 80 c 128,-1,9
 54 178 54 178 83 303 c 0,10,11
 108 410 108 410 166.5 484.5 c 128,-1,12
 225 559 225 559 329 623 c 0,13,14
 424 682 424 682 484.5 749.5 c 128,-1,15
 545 817 545 817 563 899 c 0,16,17
 573 944 573 944 579.5 970 c 128,-1,18
 586 996 586 996 598 1047 c 1,19,-1
 851 1047 l 1,20,21
 851 1047 851 1047 834.5 977 c 128,-1,22
 818 907 818 907 807 858 c 0,23,24
 786 768 786 768 722.5 686 c 128,-1,25
 659 604 659 604 581 555 c 0,26,27
 478 489 478 489 440 444 c 128,-1,28
 402 399 402 399 388 338 c 0,29,30
 374 276 374 276 406.5 239.5 c 128,-1,31
 439 203 439 203 546 203 c 0,32,33
 641 203 641 203 743.5 246 c 128,-1,34
 846 289 846 289 913 336 c 1,35,-1
 862 113 l 1,4,5
EndSplineSet
EndChar

StartChar: exclamdown
Encoding: 119 161 163
Width: 652
GlyphClass: 1
Flags: W
LayerCount: 2
Fore
SplineSet
757 1190 m 1,0,-1
 460 1190 l 1,1,-1
 534 1509 l 1,2,-1
 830 1509 l 1,3,-1
 757 1190 l 1,0,-1
503 0 m 1,4,-1
 164 0 l 1,5,-1
 430 995 l 1,6,-1
 697 995 l 1,7,-1
 503 0 l 1,4,-1
EndSplineSet
EndChar

StartChar: logicalnot
Encoding: 130 172 164
Width: 1106
GlyphClass: 1
Flags: W
LayerCount: 2
Fore
SplineSet
1074 358 m 1,0,-1
 868 358 l 1,1,-1
 919 580 l 1,2,-1
 230 580 l 1,3,-1
 280 797 l 1,4,-1
 1175 797 l 1,5,-1
 1074 358 l 1,0,-1
EndSplineSet
EndChar

StartChar: radical
Encoding: 393 8730 165
Width: 1251
GlyphClass: 1
Flags: W
LayerCount: 2
Fore
SplineSet
1350 1509 m 1,0,-1
 580 -49 l 1,1,-1
 381 -49 l 1,2,-1
 41 414 l 1,3,-1
 287 569 l 1,4,-1
 475 283 l 1,5,-1
 1051 1509 l 1,6,-1
 1350 1509 l 1,0,-1
EndSplineSet
EndChar

StartChar: florin
Encoding: 334 402 166
Width: 814
GlyphClass: 1
Flags: W
LayerCount: 2
Fore
SplineSet
1199 1460 m 1,0,-1
 1065 1251 l 1,1,2
 1051 1270 1051 1270 1026 1289.5 c 128,-1,3
 1001 1309 1001 1309 961 1309 c 0,4,5
 913 1309 913 1309 874.5 1276 c 128,-1,6
 836 1243 836 1243 814 1151 c 2,7,-1
 757 903 l 1,8,-1
 1000 903 l 1,9,-1
 959 727 l 1,10,-1
 716 727 l 1,11,-1
 562 57 l 2,12,13
 520 -127 520 -127 402.5 -240.5 c 128,-1,14
 285 -354 285 -354 140 -354 c 0,15,16
 41 -354 41 -354 -10.5 -335.5 c 128,-1,17
 -62 -317 -62 -317 -98 -285 c 1,18,-1
 29 -86 l 1,19,20
 46 -106 46 -106 73.5 -123.5 c 128,-1,21
 101 -141 101 -141 139 -141 c 0,22,23
 188 -141 188 -141 220 -97 c 128,-1,24
 252 -53 252 -53 270 25 c 2,25,-1
 432 729 l 1,26,-1
 305 729 l 1,27,-1
 345 903 l 1,28,-1
 472 903 l 1,29,-1
 522 1118 l 2,30,31
 564 1298 564 1298 692.5 1414 c 128,-1,32
 821 1530 821 1530 962 1530 c 0,33,34
 1063 1530 1063 1530 1115 1510.5 c 128,-1,35
 1167 1491 1167 1491 1199 1460 c 1,0,-1
EndSplineSet
EndChar

StartChar: approxequal
Encoding: 396 8776 167
Width: 1188
GlyphClass: 1
Flags: W
LayerCount: 2
Fore
SplineSet
1065 715 m 1,0,-1
 819 602 l 1,1,-1
 348 807 l 1,2,-1
 125 715 l 1,3,-1
 125 952 l 1,4,-1
 369 1065 l 1,5,-1
 840 860 l 1,6,-1
 1065 952 l 1,7,-1
 1065 715 l 1,0,-1
1065 236 m 1,8,-1
 819 123 l 1,9,-1
 348 328 l 1,10,-1
 125 236 l 1,11,-1
 125 473 l 1,12,-1
 369 586 l 1,13,-1
 840 381 l 1,14,-1
 1065 473 l 1,15,-1
 1065 236 l 1,8,-1
EndSplineSet
EndChar

StartChar: Delta
Encoding: 387 8710 168
Width: 1360
GlyphClass: 1
Flags: W
LayerCount: 2
Fore
SplineSet
1346 0 m 1,0,-1
 -2 0 l 1,1,-1
 559 1509 l 1,2,-1
 772 1509 l 1,3,-1
 1346 0 l 1,0,-1
891 246 m 1,4,-1
 618 1008 l 1,5,-1
 342 246 l 1,6,-1
 891 246 l 1,4,-1
EndSplineSet
EndChar

StartChar: guillemotleft
Encoding: 129 171 169
Width: 1262
GlyphClass: 1
Flags: W
LayerCount: 2
Fore
SplineSet
1229 123 m 1,0,-1
 740 496 l 1,1,-1
 789 709 l 1,2,-1
 1452 1090 l 1,3,-1
 1389 815 l 1,4,-1
 1018 602 l 1,5,-1
 1292 397 l 1,6,-1
 1229 123 l 1,0,-1
654 123 m 1,7,-1
 165 496 l 1,8,-1
 214 709 l 1,9,-1
 877 1090 l 1,10,-1
 814 815 l 1,11,-1
 443 602 l 1,12,-1
 717 397 l 1,13,-1
 654 123 l 1,7,-1
EndSplineSet
EndChar

StartChar: ellipsis
Encoding: 359 8230 171
Width: 1621
GlyphClass: 1
Flags: W
CounterMasks: 1 70
LayerCount: 2
Fore
SplineSet
1506 0 m 1,0,-1
 1203 0 l 1,1,-1
 1278 326 l 1,2,-1
 1581 326 l 1,3,-1
 1506 0 l 1,0,-1
965 0 m 1,4,-1
 662 0 l 1,5,-1
 738 326 l 1,6,-1
 1040 326 l 1,7,-1
 965 0 l 1,4,-1
424 0 m 1,8,-1
 121 0 l 1,9,-1
 196 326 l 1,10,-1
 499 326 l 1,11,-1
 424 0 l 1,8,-1
EndSplineSet
EndChar

StartChar: OE
Encoding: 289 338 176
Width: 1743
GlyphClass: 1
Flags: W
LayerCount: 2
Fore
SplineSet
1688 0 m 1,0,-1
 877 0 l 1,1,2
 828 -16 828 -16 795 -20.5 c 128,-1,3
 762 -25 762 -25 680 -25 c 0,4,5
 364 -25 364 -25 252.5 156.5 c 128,-1,6
 141 338 141 338 225 702 c 0,7,8
 229 719 229 719 234 740.5 c 128,-1,9
 239 762 239 762 245 788 c 0,10,11
 326 1139 326 1139 538 1334.5 c 128,-1,12
 750 1530 750 1530 1039 1530 c 0,13,14
 1113 1530 1113 1530 1163 1519.5 c 128,-1,15
 1213 1509 1213 1509 1251 1509 c 2,16,-1
 1998 1509 l 1,17,-1
 1946 1284 l 1,18,-1
 1437 1284 l 1,19,-1
 1344 879 l 1,20,-1
 1743 879 l 1,21,-1
 1690 651 l 1,22,-1
 1291 651 l 1,23,-1
 1193 225 l 1,24,-1
 1739 225 l 1,25,-1
 1688 0 l 1,0,-1
1134 1296 m 1,26,27
 1100 1305 1100 1305 1060.5 1310 c 128,-1,28
 1021 1315 1021 1315 970 1315 c 0,29,30
 823 1315 823 1315 725.5 1192 c 128,-1,31
 628 1069 628 1069 558 768 c 0,32,33
 554 752 554 752 553 746.5 c 128,-1,34
 552 741 552 741 549 727 c 0,35,36
 484 445 484 445 514.5 316.5 c 128,-1,37
 545 188 545 188 717 188 c 0,38,39
 777 188 777 188 815.5 198.5 c 128,-1,40
 854 209 854 209 884 223 c 1,41,42
 884 223 884 223 1006 747.5 c 128,-1,43
 1128 1272 1128 1272 1134 1296 c 1,26,27
EndSplineSet
EndChar

StartChar: oe
Encoding: 290 339 177
Width: 1777
GlyphClass: 1
Flags: W
LayerCount: 2
Fore
SplineSet
1798 484 m 1,0,-1
 1128 484 l 1,1,2
 1088 309 1088 309 1146.5 240.5 c 128,-1,3
 1205 172 1205 172 1325 172 c 0,4,5
 1404 172 1404 172 1490.5 193.5 c 128,-1,6
 1577 215 1577 215 1675 258 c 1,7,-1
 1633 74 l 1,8,9
 1546 25 1546 25 1448.5 0 c 128,-1,10
 1351 -25 1351 -25 1230 -25 c 0,11,12
 1135 -25 1135 -25 1048.5 7 c 128,-1,13
 962 39 962 39 910 129 c 1,14,15
 841 63 841 63 752 19 c 128,-1,16
 663 -25 663 -25 561 -25 c 0,17,18
 355 -25 355 -25 252.5 120.5 c 128,-1,19
 150 266 150 266 207 516 c 0,20,21
 211 535 211 535 216 555.5 c 128,-1,22
 221 576 221 576 225 594 c 0,23,24
 280 831 280 831 452.5 976.5 c 128,-1,25
 625 1122 625 1122 824 1122 c 0,26,27
 955 1122 955 1122 1022.5 1087 c 128,-1,28
 1090 1052 1090 1052 1121 986 c 1,29,30
 1195 1052 1195 1052 1287 1087 c 128,-1,31
 1379 1122 1379 1122 1480 1122 c 0,32,33
 1705 1122 1705 1122 1791 973.5 c 128,-1,34
 1877 825 1877 825 1821 586 c 2,35,36
 1821 586 1821 586 1811 541 c 128,-1,37
 1801 496 1801 496 1798 484 c 1,0,-1
1582 648 m 1,38,39
 1608 803 1608 803 1568.5 870 c 128,-1,40
 1529 937 1529 937 1440 937 c 0,41,42
 1363 937 1363 937 1286 871 c 128,-1,43
 1209 805 1209 805 1168 648 c 1,44,-1
 1582 648 l 1,38,39
896 532 m 0,45,46
 900 550 900 550 901.5 556 c 128,-1,47
 903 562 903 562 906 577 c 0,48,49
 942 731 942 731 917.5 831 c 128,-1,50
 893 931 893 931 794 931 c 0,51,52
 692 931 692 931 625 844 c 128,-1,53
 558 757 558 757 517 577 c 0,54,55
 514 562 514 562 511.5 552.5 c 128,-1,56
 509 543 509 543 506 532 c 0,57,58
 463 347 463 347 490 257.5 c 128,-1,59
 517 168 517 168 617 168 c 0,60,61
 716 168 716 168 784 254.5 c 128,-1,62
 852 341 852 341 896 532 c 0,45,46
EndSplineSet
EndChar

StartChar: endash
Encoding: 348 8211 178
Width: 949
GlyphClass: 1
Flags: W
LayerCount: 2
Fore
SplineSet
1025 561 m 1,0,-1
 184 561 l 1,1,-1
 239 799 l 1,2,-1
 1080 799 l 1,3,-1
 1025 561 l 1,0,-1
EndSplineSet
EndChar

StartChar: emdash
Encoding: 349 8212 179
Width: 1584
GlyphClass: 1
Flags: W
LayerCount: 2
Fore
SplineSet
1641 561 m 1,0,-1
 202 561 l 1,1,-1
 257 799 l 1,2,-1
 1696 799 l 1,3,-1
 1641 561 l 1,0,-1
EndSplineSet
EndChar

StartChar: quotedblleft
Encoding: 353 8220 180
Width: 1017
GlyphClass: 1
Flags: W
LayerCount: 2
Fore
SplineSet
1101 854 m 1,0,-1
 785 854 l 1,1,-1
 864 1194 l 2,2,3
 905 1372 905 1372 1019.5 1451 c 128,-1,4
 1134 1530 1134 1530 1257 1530 c 1,5,-1
 1223 1382 l 1,6,7
 1145 1382 1145 1382 1099 1343.5 c 128,-1,8
 1053 1305 1053 1305 1027 1194 c 1,9,-1
 1180 1194 l 1,10,-1
 1101 854 l 1,0,-1
634 854 m 1,11,-1
 318 854 l 1,12,-1
 397 1194 l 2,13,14
 438 1372 438 1372 552.5 1451 c 128,-1,15
 667 1530 667 1530 790 1530 c 1,16,-1
 756 1382 l 1,17,18
 678 1382 678 1382 632 1343.5 c 128,-1,19
 586 1305 586 1305 560 1194 c 1,20,-1
 713 1194 l 1,21,-1
 634 854 l 1,11,-1
EndSplineSet
EndChar

StartChar: quotedblright
Encoding: 354 8221 181
Width: 1017
GlyphClass: 1
Flags: W
LayerCount: 2
Fore
SplineSet
1178 1169 m 2,0,1
 1137 991 1137 991 1022.5 912.5 c 128,-1,2
 908 834 908 834 784 834 c 1,3,-1
 818 981 l 1,4,5
 896 981 896 981 942.5 1020 c 128,-1,6
 989 1059 989 1059 1014 1169 c 1,7,-1
 861 1169 l 1,8,-1
 940 1509 l 1,9,-1
 1256 1509 l 1,10,-1
 1178 1169 l 2,0,1
711 1169 m 2,11,12
 670 991 670 991 555.5 912.5 c 128,-1,13
 441 834 441 834 317 834 c 1,14,-1
 351 981 l 1,15,16
 429 981 429 981 475.5 1020 c 128,-1,17
 522 1059 522 1059 547 1169 c 1,18,-1
 395 1169 l 1,19,-1
 473 1509 l 1,20,-1
 789 1509 l 1,21,-1
 711 1169 l 2,11,12
EndSplineSet
EndChar

StartChar: quoteleft
Encoding: 350 8216 182
Width: 625
GlyphClass: 1
Flags: W
LayerCount: 2
Fore
SplineSet
672 854 m 1,0,-1
 356 854 l 1,1,-1
 434 1194 l 2,2,3
 475 1372 475 1372 589.5 1451 c 128,-1,4
 704 1530 704 1530 828 1530 c 1,5,-1
 794 1382 l 1,6,7
 716 1382 716 1382 669.5 1343.5 c 128,-1,8
 623 1305 623 1305 598 1194 c 1,9,-1
 750 1194 l 1,10,-1
 672 854 l 1,0,-1
EndSplineSet
EndChar

StartChar: quoteright
Encoding: 351 8217 183
Width: 625
GlyphClass: 1
Flags: W
LayerCount: 2
Fore
SplineSet
748 1169 m 2,0,1
 707 991 707 991 592.5 912.5 c 128,-1,2
 478 834 478 834 355 834 c 1,3,-1
 388 981 l 1,4,5
 466 981 466 981 512.5 1020 c 128,-1,6
 559 1059 559 1059 584 1169 c 1,7,-1
 432 1169 l 1,8,-1
 510 1509 l 1,9,-1
 827 1509 l 1,10,-1
 748 1169 l 2,0,1
EndSplineSet
EndChar

StartChar: divide
Encoding: 205 247 184
Width: 1100
GlyphClass: 1
Flags: W
LayerCount: 2
Fore
SplineSet
933 1036 m 0,0,1
 918 973 918 973 865.5 928 c 128,-1,2
 813 883 813 883 754 883 c 0,3,4
 694 883 694 883 663 928 c 128,-1,5
 632 973 632 973 646 1036 c 0,6,7
 661 1100 661 1100 713 1145 c 128,-1,8
 765 1190 765 1190 825 1190 c 0,9,10
 884 1190 884 1190 916 1145 c 128,-1,11
 948 1100 948 1100 933 1036 c 0,0,1
1134 582 m 1,12,-1
 237 582 l 1,13,-1
 287 799 l 1,14,-1
 1184 799 l 1,15,-1
 1134 582 l 1,12,-1
770 332 m 0,16,17
 755 268 755 268 702.5 223 c 128,-1,18
 650 178 650 178 591 178 c 0,19,20
 531 178 531 178 500 223 c 128,-1,21
 469 268 469 268 484 332 c 0,22,23
 499 395 499 395 551 440 c 128,-1,24
 603 485 603 485 662 485 c 0,25,26
 721 485 721 485 753 440 c 128,-1,27
 785 395 785 395 770 332 c 0,16,17
EndSplineSet
EndChar

StartChar: lozenge
Encoding: 403 9674 185
Width: 1372
GlyphClass: 1
Flags: W
LayerCount: 2
Fore
SplineSet
1280 682 m 1,0,-1
 686 88 l 1,1,-1
 92 682 l 1,2,-1
 686 1276 l 1,3,-1
 1280 682 l 1,0,-1
973 682 m 1,4,-1
 686 969 l 1,5,-1
 399 682 l 1,6,-1
 686 395 l 1,7,-1
 973 682 l 1,4,-1
EndSplineSet
EndChar

StartChar: fraction
Encoding: 363 8260 188
AltUni2: 002215.ffffffff.0 002215.ffffffff.0
Width: 489
GlyphClass: 1
Flags: W
LayerCount: 2
Fore
SplineSet
1133 1509 m 1,0,-1
 -94 0 l 1,1,-1
 -296 0 l 1,2,-1
 931 1509 l 1,3,-1
 1133 1509 l 1,0,-1
EndSplineSet
EndChar

StartChar: Euro
Encoding: 368 8364 189
Width: 1413
GlyphClass: 1
Flags: W
LayerCount: 2
Fore
SplineSet
1315 715 m 1,0,-1
 254 715 l 1,1,-1
 324 825 l 1,2,-1
 1384 825 l 1,3,-1
 1315 715 l 1,0,-1
1177 495 m 1,4,-1
 203 495 l 1,5,-1
 273 605 l 1,6,-1
 1247 605 l 1,7,-1
 1177 495 l 1,4,-1
1301 149 m 1,8,9
 1106 0 1106 0 869 0 c 0,10,11
 609 0 609 0 475.5 190 c 128,-1,12
 342 380 342 380 407 660 c 256,13,14
 472 940 472 940 692.5 1130 c 128,-1,15
 913 1320 913 1320 1173 1320 c 256,16,17
 1433 1320 1433 1320 1571 1124 c 1,18,-1
 1500 1013 l 1,19,20
 1375 1210 1375 1210 1148 1210 c 0,21,22
 934 1210 934 1210 748 1050 c 128,-1,23
 562 890 562 890 509 660 c 256,24,25
 456 430 456 430 568 270 c 128,-1,26
 680 110 680 110 894 110 c 0,27,28
 1126 110 1126 110 1338 311 c 1,29,-1
 1301 149 l 1,8,9
EndSplineSet
EndChar

StartChar: guilsinglleft
Encoding: 361 8249 190
Width: 688
GlyphClass: 1
Flags: W
LayerCount: 2
Fore
SplineSet
656 123 m 1,0,-1
 166 496 l 1,1,-1
 216 709 l 1,2,-1
 879 1090 l 1,3,-1
 816 815 l 1,4,-1
 445 602 l 1,5,-1
 719 397 l 1,6,-1
 656 123 l 1,0,-1
EndSplineSet
EndChar

StartChar: fi
Encoding: 407 64257 192
Width: 1294
GlyphClass: 1
Flags: W
LayerCount: 2
Fore
SplineSet
1149 0 m 1,0,-1
 829 0 l 1,1,-1
 829 961 l 1,2,-1
 489 961 l 1,3,-1
 489 0 l 1,4,-1
 170 0 l 1,5,-1
 170 963 l 1,6,-1
 18 963 l 1,7,-1
 18 1151 l 1,8,-1
 176 1151 l 1,9,-1
 176 1194 l 2,10,11
 176 1362 176 1362 276.5 1462.5 c 128,-1,12
 377 1563 377 1563 545 1563 c 0,13,14
 625 1563 625 1563 701.5 1541.5 c 128,-1,15
 778 1520 778 1520 829 1487 c 1,16,-1
 745 1317 l 1,17,18
 719 1337 719 1337 687 1351.5 c 128,-1,19
 655 1366 655 1366 608 1366 c 0,20,21
 541 1366 541 1366 516.5 1325 c 128,-1,22
 492 1284 492 1284 492 1204 c 2,23,-1
 492 1151 l 1,24,-1
 1149 1151 l 1,25,-1
 1149 0 l 1,0,-1
EndSplineSet
EndChar

StartChar: fl
Encoding: 408 64258 193
Width: 1276
GlyphClass: 1
Flags: W
LayerCount: 2
Fore
SplineSet
1135 0 m 1,0,-1
 815 0 l 1,1,-1
 815 1290 l 1,2,3
 786 1331 786 1331 742 1348.5 c 128,-1,4
 698 1366 698 1366 653 1366 c 0,5,6
 561 1366 561 1366 526.5 1315 c 128,-1,7
 492 1264 492 1264 492 1184 c 2,8,-1
 492 1151 l 1,9,-1
 707 1151 l 1,10,-1
 707 961 l 1,11,-1
 489 961 l 1,12,-1
 489 0 l 1,13,-1
 170 0 l 1,14,-1
 170 963 l 1,15,-1
 18 963 l 1,16,-1
 18 1151 l 1,17,-1
 176 1151 l 1,18,-1
 176 1161 l 2,19,20
 176 1333 176 1333 271.5 1448 c 128,-1,21
 367 1563 367 1563 545 1563 c 0,22,23
 627 1563 627 1563 699.5 1549.5 c 128,-1,24
 772 1536 772 1536 815 1509 c 1,25,-1
 1135 1509 l 1,26,-1
 1135 0 l 1,0,-1
EndSplineSet
EndChar

StartChar: daggerdbl
Encoding: 357 8225 194
Width: 974
GlyphClass: 1
Flags: W
LayerCount: 2
Fore
SplineSet
1120 672 m 1,0,-1
 756 672 l 1,1,-1
 515 -342 l 1,2,-1
 292 -342 l 1,3,-1
 518 672 l 1,4,-1
 172 672 l 1,5,-1
 212 848 l 1,6,-1
 552 848 l 1,7,-1
 577 975 l 1,8,-1
 241 975 l 1,9,-1
 282 1151 l 1,10,-1
 610 1151 l 1,11,-1
 681 1509 l 1,12,-1
 980 1509 l 1,13,-1
 887 1151 l 1,14,-1
 1231 1151 l 1,15,-1
 1190 975 l 1,16,-1
 838 975 l 1,17,-1
 805 848 l 1,18,-1
 1161 848 l 1,19,-1
 1120 672 l 1,0,-1
EndSplineSet
EndChar

StartChar: periodcentered
Encoding: 141 183 195
AltUni2: 002219.ffffffff.0 002219.ffffffff.0
Width: 625
GlyphClass: 1
Flags: W
LayerCount: 2
Fore
SplineSet
586 524 m 1,0,-1
 283 524 l 1,1,-1
 358 850 l 1,2,-1
 661 850 l 1,3,-1
 586 524 l 1,0,-1
EndSplineSet
EndChar

StartChar: quotesinglbase
Encoding: 352 8218 196
Width: 625
GlyphClass: 1
Flags: W
LayerCount: 2
Fore
SplineSet
478 0 m 2,0,1
 437 -178 437 -178 322.5 -257 c 128,-1,2
 208 -336 208 -336 84 -336 c 1,3,-1
 119 -188 l 1,4,5
 197 -188 197 -188 243 -149.5 c 0,6,7
 288 -111 288 -111 314 0 c 1,8,-1
 162 0 l 1,9,-1
 240 340 l 1,10,-1
 557 340 l 1,11,-1
 478 0 l 2,0,1
EndSplineSet
EndChar

StartChar: quotedblbase
Encoding: 355 8222 197
Width: 1017
GlyphClass: 1
Flags: W
LayerCount: 2
Fore
SplineSet
908 0 m 2,0,1
 867 -178 867 -178 752.5 -257 c 128,-1,2
 638 -336 638 -336 514 -336 c 1,3,-1
 548 -188 l 1,4,5
 626 -188 626 -188 672 -149.5 c 128,-1,6
 718 -111 718 -111 744 0 c 1,7,-1
 592 0 l 1,8,-1
 670 340 l 1,9,-1
 986 340 l 1,10,-1
 908 0 l 2,0,1
441 0 m 2,11,12
 400 -178 400 -178 285.5 -257 c 128,-1,13
 171 -336 171 -336 47 -336 c 1,14,-1
 81 -188 l 1,15,16
 159 -188 159 -188 205.5 -149.5 c 128,-1,17
 252 -111 252 -111 277 0 c 1,18,-1
 125 0 l 1,19,-1
 203 340 l 1,20,-1
 519 340 l 1,21,-1
 441 0 l 2,11,12
EndSplineSet
EndChar

StartChar: perthousand
Encoding: 360 8240 198
Width: 2378
GlyphClass: 1
Flags: W
LayerCount: 2
Fore
SplineSet
1049 1153 m 2,0,1
 1015 1006 1015 1006 897 915.5 c 128,-1,2
 779 825 779 825 619 825 c 0,3,4
 461 825 461 825 379 919.5 c 128,-1,5
 297 1014 297 1014 329 1151 c 2,6,-1
 341 1206 l 2,7,8
 370 1333 370 1333 487.5 1432.5 c 128,-1,9
 605 1532 605 1532 782 1532 c 0,10,11
 949 1532 949 1532 1021 1439 c 128,-1,12
 1093 1346 1093 1346 1061 1206 c 2,13,-1
 1049 1153 l 2,0,1
1686 1509 m 1,14,-1
 375 0 l 1,15,-1
 212 0 l 1,16,-1
 1523 1509 l 1,17,-1
 1686 1509 l 1,14,-1
2385 305 m 2,18,19
 2347 139 2347 139 2230 58 c 128,-1,20
 2113 -23 2113 -23 1957 -23 c 0,21,22
 1789 -23 1789 -23 1711 69.5 c 128,-1,23
 1633 162 1633 162 1665 303 c 2,24,-1
 1678 358 l 2,25,26
 1706 481 1706 481 1825 582.5 c 128,-1,27
 1944 684 1944 684 2120 684 c 0,28,29
 2287 684 2287 684 2358.5 592 c 128,-1,30
 2430 500 2430 500 2397 358 c 2,31,-1
 2385 305 l 2,18,19
1574 305 m 2,32,33
 1536 139 1536 139 1419 58 c 128,-1,34
 1302 -23 1302 -23 1147 -23 c 0,35,36
 979 -23 979 -23 901 69.5 c 128,-1,37
 823 162 823 162 855 303 c 2,38,-1
 868 358 l 2,39,40
 896 481 896 481 1015 582.5 c 128,-1,41
 1134 684 1134 684 1310 684 c 0,42,43
 1477 684 1477 684 1548 592 c 128,-1,44
 1619 500 1619 500 1586 358 c 2,45,-1
 1574 305 l 2,32,33
813 1163 m 2,46,-1
 817 1180 l 2,47,48
 836 1262 836 1262 825.5 1312 c 128,-1,49
 815 1362 815 1362 743 1362 c 0,50,51
 672 1362 672 1362 633.5 1314 c 128,-1,52
 595 1266 595 1266 575 1180 c 2,53,-1
 571 1163 l 2,54,55
 555 1094 555 1094 568.5 1037.5 c 128,-1,56
 582 981 582 981 657 981 c 0,57,58
 724 981 724 981 759.5 1033 c 128,-1,59
 795 1085 795 1085 813 1163 c 2,46,-1
2151 315 m 2,60,-1
 2155 332 l 2,61,62
 2174 414 2174 414 2163 464 c 128,-1,63
 2152 514 2152 514 2081 514 c 0,64,65
 2010 514 2010 514 1971 466 c 128,-1,66
 1932 418 1932 418 1912 332 c 2,67,-1
 1908 315 l 2,68,69
 1892 246 1892 246 1906 189.5 c 128,-1,70
 1920 133 1920 133 1994 133 c 0,71,72
 2060 133 2060 133 2096.5 185.5 c 128,-1,73
 2133 238 2133 238 2151 315 c 2,60,-1
1340 315 m 2,74,-1
 1344 332 l 2,75,76
 1363 414 1363 414 1352.5 464 c 128,-1,77
 1342 514 1342 514 1270 514 c 0,78,79
 1199 514 1199 514 1160.5 466 c 128,-1,80
 1122 418 1122 418 1102 332 c 2,81,-1
 1098 315 l 2,82,83
 1082 246 1082 246 1096 189.5 c 128,-1,84
 1110 133 1110 133 1184 133 c 0,85,86
 1250 133 1250 133 1286 185.5 c 128,-1,87
 1322 238 1322 238 1340 315 c 2,74,-1
EndSplineSet
EndChar

StartChar: uniF8FF
Encoding: 406 63743 210
Width: 1585
GlyphClass: 1
Flags: W
LayerCount: 2
Fore
SplineSet
1346 762 m 0,0,1
 1346 532 1346 532 1184 370.5 c 128,-1,2
 1022 209 1022 209 793 209 c 0,3,4
 563 209 563 209 401.5 370.5 c 128,-1,5
 240 532 240 532 240 762 c 0,6,7
 240 991 240 991 401.5 1153 c 128,-1,8
 563 1315 563 1315 793 1315 c 0,9,10
 1022 1315 1022 1315 1184 1153 c 128,-1,11
 1346 991 1346 991 1346 762 c 0,0,1
EndSplineSet
EndChar

StartChar: dotlessi
Encoding: 261 305 215
Width: 532
GlyphClass: 1
Flags: W
LayerCount: 2
Fore
SplineSet
487 327 m 1,0,1
 483 309 483 309 477.5 264.5 c 128,-1,2
 472 220 472 220 474 212 c 0,3,4
 474 197 474 197 484 186.5 c 128,-1,5
 494 176 494 176 506 176 c 0,6,7
 556 176 556 176 658 345 c 1,8,-1
 672 370 l 1,9,-1
 725 334 l 1,10,11
 603 125 603 125 524.5 52 c 128,-1,12
 446 -21 446 -21 341 -21 c 0,13,14
 304 -21 304 -21 276 -12 c 128,-1,15
 248 -3 248 -3 229.5 9.5 c 128,-1,16
 211 22 211 22 199.5 44.5 c 128,-1,17
 188 67 188 67 181.5 85 c 128,-1,18
 175 103 175 103 175 133 c 128,-1,19
 175 163 175 163 175.5 179 c 128,-1,20
 176 195 176 195 181.5 227 c 128,-1,21
 187 259 187 259 188.5 266.5 c 128,-1,22
 190 274 190 274 196 299 c 1,23,-1
 380 1093 l 1,24,-1
 664 1093 l 1,25,-1
 487 327 l 1,0,1
EndSplineSet
EndChar

StartChar: circumflex
Encoding: 335 710 216
Width: 950
GlyphClass: 1
Flags: W
LayerCount: 2
Fore
SplineSet
1217 1323 m 1,0,-1
 1015 1323 l 1,1,-1
 825 1516 l 1,2,-1
 546 1323 l 1,3,-1
 345 1323 l 1,4,-1
 754 1677 l 1,5,-1
 971 1677 l 1,6,-1
 1217 1323 l 1,0,-1
EndSplineSet
EndChar

StartChar: tilde
Encoding: 342 732 217
Width: 949
GlyphClass: 1
Flags: W
LayerCount: 2
Fore
SplineSet
1227 1520 m 1,0,1
 1185 1456 1185 1456 1102.5 1397.5 c 128,-1,2
 1020 1339 1020 1339 929 1339 c 0,3,4
 868 1339 868 1339 840.5 1355.5 c 128,-1,5
 813 1372 813 1372 776 1397 c 0,6,7
 740 1421 740 1421 713 1435.5 c 128,-1,8
 686 1450 686 1450 646 1450 c 256,9,10
 606 1450 606 1450 571 1435.5 c 128,-1,11
 536 1421 536 1421 487 1368 c 1,12,-1
 412 1452 l 1,13,14
 452 1507 452 1507 530.5 1568.5 c 128,-1,15
 609 1630 609 1630 722 1630 c 0,16,17
 773 1630 773 1630 803 1612.5 c 128,-1,18
 833 1595 833 1595 861 1573 c 0,19,20
 889 1550 889 1550 918 1534 c 128,-1,21
 947 1518 947 1518 1000 1518 c 0,22,23
 1048 1518 1048 1518 1080.5 1543.5 c 128,-1,24
 1113 1569 1113 1569 1146 1612 c 1,25,-1
 1227 1520 l 1,0,1
EndSplineSet
EndChar

StartChar: macron
Encoding: 133 175 218
AltUni2: 0002c9.ffffffff.0 0002c9.ffffffff.0
Width: 946
GlyphClass: 1
Flags: W
LayerCount: 2
Fore
SplineSet
1114 1335 m 1,0,-1
 447 1335 l 1,1,-1
 489 1518 l 1,2,-1
 1157 1518 l 1,3,-1
 1114 1335 l 1,0,-1
EndSplineSet
EndChar

StartChar: breve
Encoding: 338 728 219
Width: 945
GlyphClass: 1
Flags: W
LayerCount: 2
Fore
SplineSet
1183 1657 m 1,0,1
 1149 1509 1149 1509 1022 1413 c 128,-1,2
 895 1317 895 1317 777 1317 c 0,3,4
 642 1317 642 1317 568 1413 c 128,-1,5
 494 1509 494 1509 528 1657 c 1,6,-1
 684 1657 l 1,7,8
 673 1579 673 1579 707.5 1530 c 128,-1,9
 742 1481 742 1481 815 1481 c 256,10,11
 888 1481 888 1481 944.5 1530 c 128,-1,12
 1001 1579 1001 1579 1027 1657 c 1,13,-1
 1183 1657 l 1,0,1
EndSplineSet
EndChar

StartChar: dotaccent
Encoding: 339 729 220
Width: 937
GlyphClass: 1
Flags: W
LayerCount: 2
Fore
SplineSet
955 1483 m 0,0,1
 940 1419 940 1419 887 1374 c 128,-1,2
 834 1329 834 1329 776 1329 c 256,3,4
 717 1329 717 1329 685 1374 c 128,-1,5
 653 1419 653 1419 668 1483 c 0,6,7
 683 1546 683 1546 735.5 1591 c 128,-1,8
 788 1636 788 1636 847 1636 c 256,9,10
 906 1636 906 1636 938 1591 c 128,-1,11
 970 1546 970 1546 955 1483 c 0,0,1
EndSplineSet
EndChar

StartChar: ring
Encoding: 340 730 221
Width: 942
GlyphClass: 1
Flags: W
LayerCount: 2
Fore
SplineSet
1093 1581 m 256,0,1
 1067 1468 1067 1468 976.5 1392.5 c 128,-1,2
 886 1317 886 1317 775 1317 c 256,3,4
 664 1317 664 1317 609 1392.5 c 128,-1,5
 554 1468 554 1468 580 1581 c 256,6,7
 606 1694 606 1694 696.5 1769.5 c 128,-1,8
 787 1845 787 1845 897 1845 c 256,9,10
 1008 1845 1008 1845 1063.5 1769.5 c 128,-1,11
 1119 1694 1119 1694 1093 1581 c 256,0,1
958 1581 m 256,12,13
 970 1634 970 1634 943 1673 c 128,-1,14
 916 1712 916 1712 867 1712 c 256,15,16
 818 1712 818 1712 772.5 1673 c 128,-1,17
 727 1634 727 1634 715 1581 c 256,18,19
 703 1528 703 1528 730 1489 c 128,-1,20
 757 1450 757 1450 806 1450 c 256,21,22
 855 1450 855 1450 900.5 1489 c 128,-1,23
 946 1528 946 1528 958 1581 c 256,12,13
EndSplineSet
EndChar

StartChar: cedilla
Encoding: 142 184 222
Width: 940
GlyphClass: 1
Flags: W
LayerCount: 2
Fore
SplineSet
684 -256 m 0,0,1
 657 -371 657 -371 564 -431.5 c 128,-1,2
 471 -492 471 -492 378 -492 c 0,3,4
 309 -492 309 -492 290.5 -486.5 c 128,-1,5
 272 -481 272 -481 246 -469 c 1,6,-1
 276 -336 l 1,7,8
 298 -350 298 -350 323.5 -356 c 128,-1,9
 349 -362 349 -362 383 -362 c 0,10,11
 421 -362 421 -362 453 -337.5 c 128,-1,12
 485 -313 485 -313 495 -270 c 0,13,14
 508 -215 508 -215 487.5 -192.5 c 128,-1,15
 467 -170 467 -170 424 -170 c 2,16,-1
 336 -170 l 1,17,-1
 381 25 l 1,18,-1
 531 25 l 1,19,-1
 512 -57 l 1,20,21
 612 -57 612 -57 659 -108.5 c 128,-1,22
 706 -160 706 -160 684 -256 c 0,0,1
EndSplineSet
EndChar

StartChar: hungarumlaut
Encoding: 343 733 223
Width: 950
GlyphClass: 1
Flags: W
LayerCount: 2
Fore
SplineSet
1354 1677 m 1,0,-1
 987 1323 l 1,1,-1
 804 1323 l 1,2,-1
 1118 1677 l 1,3,-1
 1354 1677 l 1,0,-1
964 1677 m 1,4,-1
 596 1323 l 1,5,-1
 414 1323 l 1,6,-1
 728 1677 l 1,7,-1
 964 1677 l 1,4,-1
EndSplineSet
EndChar

StartChar: ogonek
Encoding: 341 731 224
Width: 939
GlyphClass: 1
Flags: W
LayerCount: 2
Fore
SplineSet
499 -471 m 1,0,1
 456 -483 456 -483 432 -487.5 c 128,-1,2
 408 -492 408 -492 386 -492 c 0,3,4
 273 -492 273 -492 219.5 -435.5 c 128,-1,5
 166 -379 166 -379 197 -246 c 0,6,7
 223 -135 223 -135 312.5 -67.5 c 128,-1,8
 402 0 402 0 509 0 c 2,9,-1
 589 0 l 1,10,-1
 554 -150 l 1,11,-1
 474 -150 l 2,12,13
 430 -150 430 -150 398 -175.5 c 128,-1,14
 366 -201 366 -201 355 -246 c 0,15,16
 344 -295 344 -295 366 -318.5 c 128,-1,17
 388 -342 388 -342 426 -342 c 0,18,19
 433 -342 433 -342 453 -339 c 128,-1,20
 473 -336 473 -336 489 -332 c 1,21,-1
 499 -471 l 1,0,1
EndSplineSet
EndChar

StartChar: caron
Encoding: 336 711 225
Width: 950
GlyphClass: 1
Flags: W
LayerCount: 2
Fore
SplineSet
1299 1677 m 1,0,-1
 890 1323 l 1,1,-1
 672 1323 l 1,2,-1
 426 1677 l 1,3,-1
 628 1677 l 1,4,-1
 818 1485 l 1,5,-1
 1097 1677 l 1,6,-1
 1299 1677 l 1,0,-1
EndSplineSet
EndChar

StartChar: brokenbar
Encoding: 124 166 232
Width: 778
GlyphClass: 1
Flags: W
LayerCount: 2
Fore
SplineSet
671 690 m 1,0,-1
 431 690 l 1,1,-1
 620 1509 l 1,2,-1
 860 1509 l 1,3,-1
 671 690 l 1,0,-1
418 -408 m 1,4,-1
 178 -408 l 1,5,-1
 367 412 l 1,6,-1
 607 412 l 1,7,-1
 418 -408 l 1,4,-1
EndSplineSet
EndChar

StartChar: eth
Encoding: 198 240 234
Width: 1047
GlyphClass: 1
Flags: W
LayerCount: 2
Fore
SplineSet
1109 573 m 0,0,1
 1030 287 1030 287 868.5 131 c 128,-1,2
 707 -25 707 -25 471 -25 c 0,3,4
 275 -25 275 -25 199.5 137 c 128,-1,5
 124 299 124 299 176 528 c 0,6,7
 233 776 233 776 376.5 923.5 c 128,-1,8
 520 1071 520 1071 720 1071 c 0,9,10
 788 1071 788 1071 838 1032 c 128,-1,11
 888 993 888 993 907 954 c 1,12,13
 920 1034 920 1034 916 1099.5 c 128,-1,14
 912 1165 912 1165 891 1212 c 1,15,-1
 780 1104 l 1,16,-1
 713 1206 l 1,17,-1
 812 1303 l 1,18,19
 793 1315 793 1315 767 1320 c 128,-1,20
 741 1325 741 1325 710 1325 c 0,21,22
 659 1325 659 1325 609 1311.5 c 128,-1,23
 559 1298 559 1298 497 1268 c 1,24,-1
 550 1499 l 1,25,26
 592 1518 592 1518 643 1532 c 128,-1,27
 694 1546 694 1546 760 1546 c 0,28,29
 833 1546 833 1546 894.5 1528.5 c 128,-1,30
 956 1511 956 1511 993 1479 c 1,31,-1
 1122 1599 l 1,32,-1
 1207 1509 l 1,33,-1
 1079 1391 l 1,34,35
 1150 1286 1150 1286 1166 1107 c 128,-1,36
 1182 928 1182 928 1139 705 c 0,37,38
 1136 692 1136 692 1125.5 646 c 128,-1,39
 1115 600 1115 600 1109 573 c 0,0,1
802 532 m 0,40,41
 830 655 830 655 814 755.5 c 128,-1,42
 798 856 798 856 709 856 c 0,43,44
 635 856 635 856 576.5 787.5 c 128,-1,45
 518 719 518 719 474 528 c 0,46,47
 437 369 437 369 451 266.5 c 128,-1,48
 465 164 465 164 550 164 c 0,49,50
 634 164 634 164 699 266.5 c 128,-1,51
 764 369 764 369 802 532 c 0,40,41
EndSplineSet
EndChar

StartChar: Thorn
Encoding: 180 222 237
Width: 1104
GlyphClass: 1
Flags: W
LayerCount: 2
Fore
SplineSet
1227 705 m 2,0,1
 1186 528 1186 528 1042 421.5 c 128,-1,2
 898 315 898 315 708 315 c 2,3,-1
 523 315 l 1,4,-1
 450 0 l 1,5,-1
 134 0 l 1,6,-1
 482 1509 l 1,7,-1
 798 1509 l 1,8,-1
 726 1194 l 1,9,-1
 886 1194 l 2,10,11
 1102 1194 1102 1194 1197 1090.5 c 128,-1,12
 1292 987 1292 987 1241 768 c 2,13,-1
 1227 705 l 2,0,1
914 713 m 2,14,-1
 929 776 l 2,15,16
 952 877 952 877 915 936 c 128,-1,17
 878 995 878 995 752 995 c 2,18,-1
 680 995 l 1,19,-1
 570 522 l 1,20,-1
 643 522 l 2,21,22
 750 522 750 522 820 565 c 128,-1,23
 890 608 890 608 914 713 c 2,14,-1
EndSplineSet
EndChar

StartChar: thorn
Encoding: 212 254 238
Width: 1145
GlyphClass: 1
Flags: W
LayerCount: 2
Fore
SplineSet
1170 520 m 2,0,1
 1111 265 1111 265 969 124.5 c 128,-1,2
 827 -16 827 -16 623 -16 c 0,3,4
 572 -16 572 -16 515.5 0 c 128,-1,5
 459 16 459 16 427 59 c 1,6,-1
 335 -342 l 1,7,-1
 51 -342 l 1,8,-1
 479 1511 l 1,9,-1
 762 1511 l 1,10,-1
 629 933 l 1,11,12
 715 1042 715 1042 796 1079 c 128,-1,13
 877 1116 877 1116 955 1116 c 0,14,15
 1122 1116 1122 1116 1185.5 989 c 128,-1,16
 1249 862 1249 862 1199 644 c 2,17,-1
 1170 520 l 2,0,1
880 533 m 2,18,-1
 896 602 l 2,19,20
 936 775 936 775 902 832.5 c 128,-1,21
 868 890 868 890 806 890 c 0,22,23
 741 890 741 890 681.5 853 c 128,-1,24
 622 816 622 816 590 765 c 1,25,-1
 473 258 l 1,26,27
 471 222 471 222 509 188 c 128,-1,28
 547 154 547 154 616 154 c 0,29,30
 684 154 684 154 754 222 c 128,-1,31
 824 290 824 290 880 533 c 2,18,-1
EndSplineSet
EndChar

StartChar: minus
Encoding: 390 8722 239
Width: 1188
GlyphClass: 1
Flags: W
LayerCount: 2
Fore
SplineSet
1085 569 m 1,0,-1
 104 569 l 1,1,-1
 104 807 l 1,2,-1
 1085 807 l 1,3,-1
 1085 569 l 1,0,-1
EndSplineSet
EndChar

StartChar: multiply
Encoding: 173 215 240
Width: 1096
GlyphClass: 1
Flags: W
LayerCount: 2
Fore
SplineSet
1019 438 m 1,0,-1
 850 293 l 1,1,-1
 674 545 l 1,2,-1
 382 293 l 1,3,-1
 280 438 l 1,4,-1
 573 690 l 1,5,-1
 397 942 l 1,6,-1
 565 1087 l 1,7,-1
 741 836 l 1,8,-1
 1034 1087 l 1,9,-1
 1135 942 l 1,10,-1
 843 690 l 1,11,-1
 1019 438 l 1,0,-1
EndSplineSet
EndChar

StartChar: onesuperior
Encoding: 143 185 241
Width: 697
GlyphClass: 1
Flags: W
LayerCount: 2
Fore
SplineSet
615 590 m 1,0,-1
 404 590 l 1,1,-1
 557 1251 l 1,2,-1
 406 1251 l 1,3,-1
 436 1380 l 1,4,5
 552 1393 552 1393 608.5 1438 c 128,-1,6
 665 1483 665 1483 677 1511 c 1,7,-1
 828 1511 l 1,8,-1
 615 590 l 1,0,-1
EndSplineSet
EndChar

StartChar: twosuperior
Encoding: 136 178 242
Width: 849
GlyphClass: 1
Flags: W
LayerCount: 2
Fore
SplineSet
886 590 m 1,0,-1
 267 590 l 1,1,-1
 308 770 l 1,2,3
 574 989 574 989 686.5 1075 c 128,-1,4
 799 1161 799 1161 818 1247 c 0,5,6
 831 1305 831 1305 809.5 1329.5 c 128,-1,7
 788 1354 788 1354 737 1354 c 0,8,9
 674 1354 674 1354 641.5 1325 c 128,-1,10
 609 1296 609 1296 595 1268 c 1,11,-1
 403 1268 l 1,12,13
 452 1391 452 1391 563 1459.5 c 128,-1,14
 674 1528 674 1528 790 1528 c 0,15,16
 952 1528 952 1528 1007.5 1455 c 128,-1,17
 1063 1382 1063 1382 1038 1270 c 0,18,19
 1004 1124 1004 1124 793 962.5 c 128,-1,20
 582 801 582 801 514 760 c 1,21,-1
 925 760 l 1,22,-1
 886 590 l 1,0,-1
EndSplineSet
EndChar

StartChar: threesuperior
Encoding: 137 179 243
Width: 849
GlyphClass: 1
Flags: W
LayerCount: 2
Fore
SplineSet
946 856 m 0,0,1
 917 731 917 731 812.5 650 c 128,-1,2
 708 569 708 569 559 569 c 0,3,4
 468 569 468 569 394 608 c 128,-1,5
 320 647 320 647 283 733 c 1,6,-1
 434 827 l 1,7,8
 461 772 461 772 498.5 748.5 c 128,-1,9
 536 725 536 725 567 725 c 0,10,11
 643 725 643 725 685.5 761 c 128,-1,12
 728 797 728 797 744 866 c 0,13,14
 762 942 762 942 718.5 965.5 c 128,-1,15
 675 989 675 989 622 989 c 2,16,-1
 535 989 l 1,17,-1
 568 1133 l 1,18,-1
 661 1133 l 2,19,20
 735 1133 735 1133 775.5 1163.5 c 128,-1,21
 816 1194 816 1194 830 1253 c 0,22,23
 842 1305 842 1305 817 1334.5 c 128,-1,24
 792 1364 792 1364 741 1364 c 0,25,26
 676 1364 676 1364 644 1335.5 c 128,-1,27
 612 1307 612 1307 592 1268 c 1,28,-1
 406 1268 l 1,29,30
 459 1395 459 1395 565.5 1461.5 c 128,-1,31
 672 1528 672 1528 786 1528 c 0,32,33
 929 1528 929 1528 987.5 1460.5 c 128,-1,34
 1046 1393 1046 1393 1022 1286 c 0,35,36
 1001 1194 1001 1194 955 1146 c 128,-1,37
 909 1098 909 1098 861 1075 c 1,38,39
 924 1044 924 1044 944 989 c 128,-1,40
 964 934 964 934 946 856 c 0,0,1
EndSplineSet
EndChar

StartChar: coloncur
Encoding: 420 -1 330
Width: 1292
GlyphClass: 1
Flags: W
LayerCount: 2
Fore
SplineSet
1229 90 m 1,0,1
 1153 39 1153 39 1049.5 7 c 128,-1,2
 946 -25 946 -25 801 -25 c 0,3,4
 430 -25 430 -25 254 165.5 c 128,-1,5
 78 356 78 356 78 717 c 2,6,-1
 78 778 l 2,7,8
 78 1118 78 1118 267.5 1324 c 128,-1,9
 457 1530 457 1530 829 1530 c 0,10,11
 956 1530 956 1530 1054.5 1495 c 128,-1,12
 1153 1460 1153 1460 1229 1407 c 1,13,-1
 1229 1135 l 1,14,15
 1149 1210 1149 1210 1064 1249 c 128,-1,16
 979 1288 979 1288 881 1288 c 0,17,18
 627 1288 627 1288 527.5 1149 c 128,-1,19
 428 1010 428 1010 428 758 c 2,20,-1
 428 737 l 2,21,22
 428 467 428 467 532.5 344 c 128,-1,23
 637 221 637 221 834 221 c 0,24,25
 967 221 967 221 1070.5 266 c 128,-1,26
 1174 311 1174 311 1229 360 c 1,27,-1
 1229 90 l 1,0,1
1178 1731 m 1,28,-1
 854 -188 l 1,29,-1
 698 -188 l 1,30,-1
 1022 1731 l 1,31,-1
 1178 1731 l 1,28,-1
858 1731 m 1,32,-1
 535 -188 l 1,33,-1
 379 -188 l 1,34,-1
 702 1731 l 1,35,-1
 858 1731 l 1,32,-1
EndSplineSet
EndChar

StartChar: pesetas
Encoding: 367 8359 332
Width: 1622
GlyphClass: 1
Flags: W
LayerCount: 2
Fore
SplineSet
1338 1040 m 2,0,1
 1300 877 1300 877 1179 785.5 c 128,-1,2
 1058 694 1058 694 835 694 c 2,3,-1
 610 694 l 1,4,-1
 450 0 l 1,5,-1
 134 0 l 1,6,-1
 482 1509 l 1,7,-1
 1043 1509 l 2,8,9
 1247 1509 1247 1509 1325 1415 c 128,-1,10
 1403 1321 1403 1321 1371 1180 c 2,11,-1
 1338 1040 l 2,0,1
1047 1059 m 2,12,-1
 1066 1143 l 2,13,14
 1086 1229 1086 1229 1048.5 1259.5 c 128,-1,15
 1011 1290 1011 1290 908 1290 c 2,16,-1
 748 1290 l 1,17,-1
 658 901 l 1,18,-1
 836 901 l 2,19,20
 910 901 910 901 969.5 942 c 128,-1,21
 1029 983 1029 983 1047 1059 c 2,12,-1
1172 444 m 1,22,-1
 985 444 l 1,23,-1
 966 362 l 2,24,25
 943 264 943 264 951.5 226 c 128,-1,26
 960 188 960 188 1004 188 c 0,27,28
 1029 188 1029 188 1053 192.5 c 128,-1,29
 1077 197 1077 197 1111 211 c 1,30,-1
 1069 31 l 1,31,32
 1033 6 1033 6 994.5 -2 c 128,-1,33
 956 -10 956 -10 902 -10 c 0,34,35
 755 -10 755 -10 721 91.5 c 128,-1,36
 687 193 687 193 731 383 c 2,37,-1
 745 446 l 1,38,-1
 618 446 l 1,39,-1
 656 610 l 1,40,-1
 803 618 l 1,41,-1
 909 872 l 1,42,-1
 1084 872 l 1,43,-1
 1026 621 l 1,44,-1
 1213 621 l 1,45,-1
 1172 444 l 1,22,-1
1624 205 m 0,46,47
 1602 109 1602 109 1525.5 50.5 c 128,-1,48
 1449 -8 1449 -8 1300 -8 c 0,49,50
 1237 -8 1237 -8 1189 3 c 128,-1,51
 1141 14 1141 14 1122 31 c 1,52,-1
 1164 211 l 1,53,54
 1188 197 1188 197 1231 179.5 c 128,-1,55
 1274 162 1274 162 1323 162 c 0,56,57
 1361 162 1361 162 1389.5 171 c 128,-1,58
 1418 180 1418 180 1424 207 c 0,59,60
 1431 236 1431 236 1396 251 c 128,-1,61
 1361 266 1361 266 1340 274 c 0,62,63
 1259 303 1259 303 1242.5 362.5 c 128,-1,64
 1226 422 1226 422 1245 504 c 0,65,66
 1264 588 1264 588 1334 645 c 128,-1,67
 1404 702 1404 702 1526 702 c 0,68,69
 1584 702 1584 702 1625 691 c 128,-1,70
 1666 680 1666 680 1690 666 c 1,71,-1
 1653 506 l 1,72,73
 1630 522 1630 522 1586.5 532.5 c 128,-1,74
 1543 543 1543 543 1502 543 c 0,75,76
 1473 543 1473 543 1450 533.5 c 128,-1,77
 1427 524 1427 524 1420 494 c 0,78,79
 1414 467 1414 467 1430.5 456.5 c 128,-1,80
 1447 446 1447 446 1490 430 c 0,81,82
 1596 393 1596 393 1618.5 336 c 128,-1,83
 1641 279 1641 279 1624 205 c 0,46,47
EndSplineSet
EndChar

StartChar: rupees
Encoding: 421 -1 333
Width: 1729
GlyphClass: 1
Flags: W
LayerCount: 2
Fore
SplineSet
1180 0 m 1,0,-1
 844 0 l 1,1,2
 840 365 840 365 774.5 521.5 c 128,-1,3
 709 678 709 678 567 678 c 2,4,-1
 487 678 l 1,5,-1
 487 0 l 1,6,-1
 147 0 l 1,7,-1
 147 1509 l 1,8,-1
 741 1509 l 2,9,10
 958 1509 958 1509 1048.5 1415 c 128,-1,11
 1139 1321 1139 1321 1139 1184 c 2,12,-1
 1139 1102 l 2,13,14
 1139 973 1139 973 1060 895 c 128,-1,15
 981 817 981 817 823 803 c 1,16,17
 1001 750 1001 750 1090.5 567.5 c 128,-1,18
 1180 385 1180 385 1180 0 c 1,0,-1
829 1071 m 2,19,-1
 829 1112 l 2,20,21
 829 1210 829 1210 777 1252 c 128,-1,22
 725 1294 725 1294 623 1294 c 2,23,-1
 487 1294 l 1,24,-1
 487 895 l 1,25,-1
 604 895 l 2,26,27
 725 895 725 895 777 939 c 128,-1,28
 829 983 829 983 829 1071 c 2,19,-1
1698 199 m 0,29,30
 1698 102 1698 102 1630.5 44 c 128,-1,31
 1563 -14 1563 -14 1403 -14 c 0,32,33
 1335 -14 1335 -14 1281 -3 c 128,-1,34
 1227 8 1227 8 1202 25 c 1,35,-1
 1202 205 l 1,36,37
 1231 190 1231 190 1282 173 c 128,-1,38
 1333 156 1333 156 1386 156 c 0,39,40
 1427 156 1427 156 1455 165 c 128,-1,41
 1483 174 1483 174 1483 201 c 0,42,43
 1483 229 1483 229 1442 244.5 c 128,-1,44
 1401 260 1401 260 1376 268 c 0,45,46
 1282 297 1282 297 1249.5 356.5 c 128,-1,47
 1217 416 1217 416 1217 498 c 0,48,49
 1217 582 1217 582 1278 639 c 128,-1,50
 1339 696 1339 696 1470 696 c 0,51,52
 1532 696 1532 696 1579 685 c 128,-1,53
 1626 674 1626 674 1655 659 c 1,54,-1
 1655 500 l 1,55,56
 1626 516 1626 516 1577 526.5 c 128,-1,57
 1528 537 1528 537 1483 537 c 0,58,59
 1452 537 1452 537 1429.5 527.5 c 128,-1,60
 1407 518 1407 518 1407 487 c 0,61,62
 1407 461 1407 461 1427.5 450.5 c 128,-1,63
 1448 440 1448 440 1499 424 c 0,64,65
 1622 387 1622 387 1660 329.5 c 128,-1,66
 1698 272 1698 272 1698 199 c 0,29,30
EndSplineSet
EndChar

StartChar: pesoph
Encoding: 422 -1 334
Width: 1374
GlyphClass: 1
Flags: W
LayerCount: 2
Fore
SplineSet
1188 877 m 2,0,1
 1188 713 1188 713 1080.5 621.5 c 128,-1,2
 973 530 973 530 733 530 c 2,3,-1
 487 530 l 1,4,-1
 487 0 l 1,5,-1
 147 0 l 1,6,-1
 147 1509 l 1,7,-1
 754 1509 l 2,8,9
 973 1509 973 1509 1080.5 1417 c 128,-1,10
 1188 1325 1188 1325 1188 1159 c 2,11,-1
 1188 877 l 2,0,1
870 895 m 2,12,-1
 870 1122 l 2,13,14
 870 1208 870 1208 822 1249 c 128,-1,15
 774 1290 774 1290 664 1290 c 2,16,-1
 487 1290 l 1,17,-1
 487 737 l 1,18,-1
 682 737 l 2,19,20
 762 737 762 737 816 778 c 128,-1,21
 870 819 870 819 870 895 c 2,12,-1
1307 924 m 1,22,-1
 94 924 l 1,23,-1
 94 1100 l 1,24,-1
 1307 1100 l 1,25,-1
 1307 924 l 1,22,-1
EndSplineSet
EndChar

StartChar: rupiah
Encoding: 405 63197 335
Width: 2183
GlyphClass: 1
Flags: W
LayerCount: 2
Fore
SplineSet
1118 0 m 1,0,-1
 782 0 l 1,1,2
 778 365 778 365 723 521.5 c 128,-1,3
 668 678 668 678 526 678 c 2,4,-1
 487 678 l 1,5,-1
 487 0 l 1,6,-1
 147 0 l 1,7,-1
 147 1509 l 1,8,-1
 700 1509 l 2,9,10
 868 1509 868 1509 972.5 1422 c 128,-1,11
 1077 1335 1077 1335 1077 1184 c 2,12,-1
 1077 1102 l 2,13,14
 1077 973 1077 973 998.5 895 c 128,-1,15
 920 817 920 817 762 803 c 1,16,17
 940 750 940 750 1029 567.5 c 128,-1,18
 1118 385 1118 385 1118 0 c 1,0,-1
768 1071 m 2,19,-1
 768 1112 l 2,20,21
 768 1210 768 1210 726 1252 c 128,-1,22
 684 1294 684 1294 582 1294 c 2,23,-1
 487 1294 l 1,24,-1
 487 895 l 1,25,-1
 563 895 l 2,26,27
 684 895 684 895 726 939 c 128,-1,28
 768 983 768 983 768 1071 c 2,19,-1
2142 434 m 2,29,30
 2142 207 2142 207 2018 96.5 c 128,-1,31
 1894 -14 1894 -14 1722 -14 c 0,32,33
 1663 -14 1663 -14 1592.5 2 c 128,-1,34
 1522 18 1522 18 1473 61 c 1,35,-1
 1473 -342 l 1,36,-1
 1174 -342 l 1,37,-1
 1174 926 l 1,38,-1
 1460 926 l 1,39,-1
 1468 813 l 1,40,41
 1513 874 1513 874 1575.5 911 c 128,-1,42
 1638 948 1638 948 1753 948 c 0,43,44
 1939 948 1939 948 2040.5 824 c 128,-1,45
 2142 700 2142 700 2142 526 c 2,46,-1
 2142 434 l 2,29,30
1812 446 m 2,47,-1
 1812 481 l 2,48,49
 1812 608 1812 608 1766 665.5 c 128,-1,50
 1720 723 1720 723 1626 723 c 0,51,52
 1559 723 1559 723 1529 696.5 c 128,-1,53
 1499 670 1499 670 1473 625 c 1,54,-1
 1473 248 l 1,55,56
 1489 221 1489 221 1526 198.5 c 128,-1,57
 1563 176 1563 176 1606 176 c 0,58,59
 1704 176 1704 176 1758 233.5 c 128,-1,60
 1812 291 1812 291 1812 446 c 2,47,-1
EndSplineSet
EndChar

StartChar: blank
Encoding: 423 -1 336
Width: 1364
GlyphClass: 1
Flags: W
LayerCount: 2
Fore
SplineSet
1206 -350 m 1,0,-1
 162 -350 l 1,1,-1
 162 0 l 1,2,-1
 352 0 l 1,3,-1
 352 -162 l 1,4,-1
 1014 -162 l 1,5,-1
 1014 0 l 1,6,-1
 1206 0 l 1,7,-1
 1206 -350 l 1,0,-1
EndSplineSet
EndChar

StartChar: pageup
Encoding: 377 8670 337
Width: 1536
GlyphClass: 1
Flags: W
LayerCount: 2
Fore
SplineSet
1259 1043 m 1,0,-1
 904 1043 l 1,1,-1
 904 822 l 1,2,-1
 1199 822 l 1,3,-1
 1199 614 l 1,4,-1
 904 614 l 1,5,-1
 904 442 l 1,6,-1
 1199 442 l 1,7,-1
 1199 234 l 1,8,-1
 904 234 l 1,9,-1
 904 -171 l 1,10,-1
 636 -171 l 1,11,-1
 636 234 l 1,12,-1
 341 234 l 1,13,-1
 341 442 l 1,14,-1
 636 442 l 1,15,-1
 636 614 l 1,16,-1
 341 614 l 1,17,-1
 341 822 l 1,18,-1
 636 822 l 1,19,-1
 636 1043 l 1,20,-1
 281 1043 l 1,21,-1
 770 1536 l 1,22,-1
 1259 1043 l 1,0,-1
EndSplineSet
EndChar

StartChar: capslock
Encoding: 385 8682 338
Width: 2388
GlyphClass: 1
Flags: W
LayerCount: 2
Fore
SplineSet
2220 512 m 1,0,-1
 1708 512 l 1,1,-1
 1708 172 l 1,2,-1
 684 172 l 1,3,-1
 684 512 l 1,4,-1
 172 512 l 1,5,-1
 1196 1536 l 1,6,-1
 2220 512 l 1,0,-1
1806 684 m 1,7,-1
 1196 1294 l 1,8,-1
 584 683 l 1,9,-1
 852 684 l 1,10,-1
 852 340 l 1,11,-1
 1536 340 l 1,12,-1
 1536 684 l 1,13,-1
 1806 684 l 1,7,-1
1708 -512 m 1,14,-1
 684 -512 l 1,15,-1
 684 0 l 1,16,-1
 1708 0 l 1,17,-1
 1708 -512 l 1,14,-1
1536 -340 m 1,18,-1
 1536 -172 l 1,19,-1
 852 -172 l 1,20,-1
 852 -340 l 1,21,-1
 1536 -340 l 1,18,-1
EndSplineSet
EndChar

StartChar: arrowupwhite
Encoding: 2 5 339
Width: 2188
GlyphClass: 1
Flags: W
LayerCount: 2
Fore
SplineSet
2118 512 m 1,0,-1
 1606 512 l 1,1,-1
 1606 0 l 1,2,-1
 582 0 l 1,3,-1
 582 512 l 1,4,-1
 70 512 l 1,5,-1
 1094 1536 l 1,6,-1
 2118 512 l 1,0,-1
1704 684 m 1,7,-1
 1094 1294 l 1,8,-1
 482 683 l 1,9,-1
 750 684 l 1,10,-1
 750 172 l 1,11,-1
 1434 172 l 1,12,-1
 1434 684 l 1,13,-1
 1704 684 l 1,7,-1
EndSplineSet
EndChar

StartChar: propellor
Encoding: 12 17 340
Width: 1876
GlyphClass: 1
Flags: W
LayerCount: 2
Fore
SplineSet
1708 340 m 0,0,1
 1708 203 1708 203 1607.5 101.5 c 128,-1,2
 1507 0 1507 0 1366 0 c 0,3,4
 1227 0 1227 0 1125.5 100.5 c 128,-1,5
 1024 201 1024 201 1024 340 c 2,6,-1
 1024 512 l 1,7,-1
 854 512 l 1,8,-1
 854 340 l 2,9,10
 854 203 854 203 753.5 101.5 c 128,-1,11
 653 0 653 0 512 0 c 0,12,13
 373 0 373 0 272.5 100.5 c 128,-1,14
 172 201 172 201 172 340 c 0,15,16
 172 483 172 483 272.5 583.5 c 128,-1,17
 373 684 373 684 512 684 c 2,18,-1
 684 684 l 1,19,-1
 684 852 l 1,20,-1
 512 852 l 2,21,22
 371 852 371 852 271.5 954.5 c 128,-1,23
 172 1057 172 1057 172 1194 c 0,24,25
 172 1335 172 1335 272.5 1435.5 c 128,-1,26
 373 1536 373 1536 512 1536 c 256,27,28
 651 1536 651 1536 752.5 1435.5 c 128,-1,29
 854 1335 854 1335 854 1196 c 2,30,-1
 854 1024 l 1,31,-1
 1024 1024 l 1,32,-1
 1024 1196 l 2,33,34
 1024 1335 1024 1335 1125.5 1435.5 c 128,-1,35
 1227 1536 1227 1536 1364 1536 c 0,36,37
 1505 1536 1505 1536 1606.5 1435.5 c 128,-1,38
 1708 1335 1708 1335 1708 1196 c 256,39,40
 1708 1057 1708 1057 1607.5 954.5 c 128,-1,41
 1507 852 1507 852 1364 852 c 2,42,-1
 1196 852 l 1,43,-1
 1196 684 l 1,44,-1
 1366 684 l 2,45,46
 1505 684 1505 684 1606.5 582.5 c 128,-1,47
 1708 481 1708 481 1708 340 c 0,0,1
1536 1196 m 256,48,49
 1536 1266 1536 1266 1486 1315 c 128,-1,50
 1436 1364 1436 1364 1366 1364 c 256,51,52
 1296 1364 1296 1364 1246 1315 c 128,-1,53
 1196 1266 1196 1266 1196 1196 c 2,54,-1
 1196 1024 l 1,55,-1
 1366 1024 l 2,56,57
 1438 1024 1438 1024 1487 1075 c 128,-1,58
 1536 1126 1536 1126 1536 1196 c 256,48,49
684 1024 m 1,59,-1
 684 1196 l 2,60,61
 684 1266 684 1266 633 1315 c 128,-1,62
 582 1364 582 1364 512 1364 c 256,63,64
 442 1364 442 1364 392 1315 c 128,-1,65
 342 1266 342 1266 342 1196 c 0,66,67
 342 1124 342 1124 392 1074 c 128,-1,68
 442 1024 442 1024 512 1024 c 2,69,-1
 684 1024 l 1,59,-1
1024 684 m 1,70,-1
 1024 852 l 1,71,-1
 854 852 l 1,72,-1
 854 684 l 1,73,-1
 1024 684 l 1,70,-1
1536 340 m 0,74,75
 1536 412 1536 412 1486 462 c 128,-1,76
 1436 512 1436 512 1366 512 c 2,77,-1
 1196 512 l 1,78,-1
 1196 340 l 2,79,80
 1196 270 1196 270 1246 221 c 128,-1,81
 1296 172 1296 172 1366 172 c 256,82,83
 1436 172 1436 172 1486 222 c 128,-1,84
 1536 272 1536 272 1536 340 c 0,74,75
684 340 m 2,85,-1
 684 512 l 1,86,-1
 512 512 l 2,87,88
 440 512 440 512 391 461 c 128,-1,89
 342 410 342 410 342 340 c 256,90,91
 342 270 342 270 392 221 c 128,-1,92
 442 172 442 172 512 172 c 256,93,94
 582 172 582 172 633 221 c 128,-1,95
 684 270 684 270 684 340 c 2,85,-1
EndSplineSet
EndChar

StartChar: clear
Encoding: 21 28 341
Width: 2220
GlyphClass: 1
Flags: W
LayerCount: 2
Fore
SplineSet
2048 0 m 1,0,-1
 1694 0 l 1,1,-1
 1851 -252 l 1,2,-1
 1708 -340 l 1,3,-1
 1493 0 l 1,4,-1
 727 0 l 1,5,-1
 512 -340 l 1,6,-1
 367 -252 l 1,7,-1
 524 0 l 1,8,-1
 172 0 l 1,9,-1
 172 1536 l 1,10,-1
 524 1536 l 1,11,-1
 367 1788 l 1,12,-1
 512 1876 l 1,13,-1
 727 1536 l 1,14,-1
 1493 1536 l 1,15,-1
 1708 1876 l 1,16,-1
 1851 1788 l 1,17,-1
 1694 1536 l 1,18,-1
 2048 1536 l 1,19,-1
 2048 0 l 1,0,-1
1384 1364 m 1,20,-1
 834 1364 l 1,21,-1
 1110 928 l 1,22,-1
 1384 1364 l 1,20,-1
1878 172 m 1,23,-1
 1878 1364 l 1,24,-1
 1587 1364 l 1,25,-1
 1210 768 l 1,26,-1
 1587 172 l 1,27,-1
 1878 172 l 1,23,-1
1010 768 m 1,28,-1
 633 1364 l 1,29,-1
 342 1364 l 1,30,-1
 342 172 l 1,31,-1
 633 172 l 1,32,-1
 1010 768 l 1,28,-1
1384 172 m 1,33,-1
 1110 608 l 1,34,-1
 834 172 l 1,35,-1
 1384 172 l 1,33,-1
EndSplineSet
EndChar

StartChar: arrowleft
Encoding: 371 8592 342
Width: 2048
GlyphClass: 1
Flags: W
LayerCount: 2
Fore
SplineSet
1880 624 m 1,0,-1
 668 624 l 1,1,-1
 668 270 l 1,2,-1
 172 768 l 1,3,-1
 668 1266 l 1,4,-1
 668 912 l 1,5,-1
 1880 912 l 1,6,-1
 1880 624 l 1,0,-1
EndSplineSet
EndChar

StartChar: enter
Encoding: 424 -1 344
Width: 2220
GlyphClass: 1
Flags: W
LayerCount: 2
Fore
SplineSet
2048 1234 m 1,0,-1
 172 1234 l 1,1,-1
 172 1506 l 1,2,-1
 2048 1506 l 1,3,-1
 2048 1234 l 1,0,-1
1922 424 m 1,4,-1
 1725 227 l 1,5,-1
 1110 844 l 1,6,-1
 495 227 l 1,7,-1
 296 424 l 1,8,-1
 1110 1234 l 1,9,-1
 1922 424 l 1,4,-1
EndSplineSet
EndChar

StartChar: arrowupleft
Encoding: 375 8624 345
Width: 1876
GlyphClass: 1
Flags: W
LayerCount: 2
Fore
SplineSet
1681 207 m 1,0,-1
 1473 -1 l 1,1,-1
 420 1050 l 1,2,-1
 172 802 l 1,3,-1
 172 1506 l 1,4,-1
 876 1506 l 1,5,-1
 628 1258 l 1,6,-1
 1681 207 l 1,0,-1
EndSplineSet
EndChar

StartChar: arrowtableft
Encoding: 1 3 346
AltUni2: 0021e4.ffffffff.0 0021e4.ffffffff.0
Width: 2048
GlyphClass: 1
Flags: W
LayerCount: 2
Fore
SplineSet
1956 624 m 1,0,-1
 1002 624 l 1,1,-1
 1002 270 l 1,2,-1
 506 768 l 1,3,-1
 1002 1266 l 1,4,-1
 1002 912 l 1,5,-1
 1956 912 l 1,6,-1
 1956 624 l 1,0,-1
451 172 m 1,7,-1
 171 172 l 1,8,-1
 171 1364 l 1,9,-1
 451 1364 l 1,10,-1
 451 172 l 1,7,-1
EndSplineSet
EndChar

StartChar: arrowtabright
Encoding: 0 2 347
AltUni2: 0021e5.ffffffff.0 0021e5.ffffffff.0
Width: 2048
GlyphClass: 1
Flags: W
LayerCount: 2
Fore
SplineSet
92 624 m 1,0,-1
 92 912 l 1,1,-1
 1046 912 l 1,2,-1
 1046 1266 l 1,3,-1
 1542 768 l 1,4,-1
 1046 270 l 1,5,-1
 1046 624 l 1,6,-1
 92 624 l 1,0,-1
1597 172 m 1,7,-1
 1597 1364 l 1,8,-1
 1877 1364 l 1,9,-1
 1877 172 l 1,10,-1
 1597 172 l 1,7,-1
EndSplineSet
EndChar

StartChar: help
Encoding: 425 -1 348
Width: 1734
GlyphClass: 1
Flags: W
LayerCount: 2
Fore
SplineSet
1717 765 m 256,0,1
 1717 415 1717 415 1469.5 167.5 c 128,-1,2
 1222 -80 1222 -80 872 -80 c 256,3,4
 522 -80 522 -80 274.5 167.5 c 128,-1,5
 27 415 27 415 27 765 c 256,6,7
 27 1115 27 1115 274.5 1362.5 c 128,-1,8
 522 1610 522 1610 872 1610 c 256,9,10
 1222 1610 1222 1610 1469.5 1362.5 c 128,-1,11
 1717 1115 1717 1115 1717 765 c 256,0,1
1505 765 m 0,12,13
 1505 1030 1505 1030 1319 1217 c 128,-1,14
 1133 1404 1133 1404 872 1404 c 0,15,16
 603 1404 603 1404 421 1219 c 128,-1,17
 239 1034 239 1034 239 765 c 0,18,19
 239 497 239 497 421 312 c 128,-1,20
 603 127 603 127 872 127 c 0,21,22
 1149 127 1149 127 1327 310.5 c 128,-1,23
 1505 494 1505 494 1505 765 c 0,12,13
1160 982 m 0,24,25
 1160 894 1160 894 1059 824.5 c 128,-1,26
 958 755 958 755 958 704 c 0,27,28
 958 647 958 647 958 624 c 128,-1,29
 958 601 958 601 958 601 c 1,30,-1
 766 601 l 1,31,32
 766 601 766 601 767 629 c 128,-1,33
 768 657 768 657 768 710 c 0,34,35
 768 771 768 771 857 841.5 c 128,-1,36
 946 912 946 912 946 967 c 0,37,38
 946 1025 946 1025 918 1038.5 c 128,-1,39
 890 1052 890 1052 847 1052 c 0,40,41
 778 1052 778 1052 704.5 1013 c 128,-1,42
 631 974 631 974 587 930 c 1,43,-1
 587 1106 l 1,44,45
 631 1148 631 1148 702.5 1183.5 c 128,-1,46
 774 1219 774 1219 868 1219 c 0,47,48
 989 1219 989 1219 1074.5 1157 c 128,-1,49
 1160 1095 1160 1095 1160 982 c 0,24,25
982 304 m 1,50,-1
 774 304 l 1,51,-1
 774 497 l 1,52,-1
 982 497 l 1,53,-1
 982 304 l 1,50,-1
EndSplineSet
EndChar

StartChar: arrowup
Encoding: 372 8593 349
Width: 1536
GlyphClass: 1
Flags: W
LayerCount: 2
Fore
SplineSet
1266 1040 m 1,0,-1
 912 1040 l 1,1,-1
 912 -171 l 1,2,-1
 624 -171 l 1,3,-1
 624 1040 l 1,4,-1
 270 1040 l 1,5,-1
 768 1536 l 1,6,-1
 1266 1040 l 1,0,-1
EndSplineSet
EndChar

StartChar: arrowdownright
Encoding: 376 8627 350
Width: 1876
GlyphClass: 1
Flags: W
LayerCount: 2
Fore
SplineSet
1710 0 m 1,0,-1
 1006 0 l 1,1,-1
 1254 248 l 1,2,-1
 201 1299 l 1,3,-1
 409 1507 l 1,4,-1
 1462 456 l 1,5,-1
 1710 704 l 1,6,-1
 1710 0 l 1,0,-1
EndSplineSet
EndChar

StartChar: arrowdown
Encoding: 374 8595 351
Width: 1536
GlyphClass: 1
Flags: W
LayerCount: 2
Fore
SplineSet
1267 323 m 1,0,-1
 769 -173 l 1,1,-1
 271 323 l 1,2,-1
 625 323 l 1,3,-1
 625 1534 l 1,4,-1
 913 1534 l 1,5,-1
 913 323 l 1,6,-1
 1267 323 l 1,0,-1
EndSplineSet
EndChar

StartChar: control
Encoding: 3 6 352
Width: 1558
GlyphClass: 1
Flags: W
LayerCount: 2
Fore
SplineSet
1456 852 m 1,0,-1
 1238 634 l 1,1,-1
 772 1100 l 1,2,-1
 306 634 l 1,3,-1
 88 852 l 1,4,-1
 772 1536 l 1,5,-1
 1456 852 l 1,0,-1
EndSplineSet
EndChar

StartChar: deleteleft
Encoding: 16 23 353
Width: 2644
GlyphClass: 1
Flags: W
LayerCount: 2
Fore
SplineSet
2476 0 m 1,0,-1
 940 0 l 1,1,-1
 172 768 l 1,2,-1
 940 1536 l 1,3,-1
 2476 1536 l 1,4,-1
 2476 0 l 1,0,-1
2304 167 m 1,5,-1
 2304 1369 l 1,6,-1
 1024 1369 l 1,7,-1
 423 768 l 1,8,-1
 1024 167 l 1,9,-1
 2304 167 l 1,5,-1
2019 406 m 1,10,-1
 1898 285 l 1,11,-1
 1536 647 l 1,12,-1
 1176 285 l 1,13,-1
 1055 406 l 1,14,-1
 1415 768 l 1,15,-1
 1055 1130 l 1,16,-1
 1176 1251 l 1,17,-1
 1536 889 l 1,18,-1
 1898 1251 l 1,19,-1
 2019 1130 l 1,20,-1
 1657 768 l 1,21,-1
 2019 406 l 1,10,-1
EndSplineSet
EndChar

StartChar: deleteright
Encoding: 7 10 354
Width: 2644
GlyphClass: 1
Flags: W
LayerCount: 2
Fore
SplineSet
172 0 m 1,0,-1
 172 1536 l 1,1,-1
 1708 1536 l 1,2,-1
 2476 768 l 1,3,-1
 1708 0 l 1,4,-1
 172 0 l 1,0,-1
344 167 m 1,5,-1
 1624 167 l 1,6,-1
 2225 768 l 1,7,-1
 1624 1369 l 1,8,-1
 344 1369 l 1,9,-1
 344 167 l 1,5,-1
629 406 m 1,10,-1
 991 768 l 1,11,-1
 629 1130 l 1,12,-1
 750 1251 l 1,13,-1
 1112 889 l 1,14,-1
 1472 1251 l 1,15,-1
 1593 1130 l 1,16,-1
 1233 768 l 1,17,-1
 1593 406 l 1,18,-1
 1472 285 l 1,19,-1
 1112 647 l 1,20,-1
 750 285 l 1,21,-1
 629 406 l 1,10,-1
EndSplineSet
EndChar

StartChar: option
Encoding: 4 7 355
Width: 2328
GlyphClass: 1
Flags: W
LayerCount: 2
Fore
SplineSet
2188 1204 m 1,0,-1
 1334 1204 l 1,1,-1
 1334 1476 l 1,2,-1
 2188 1476 l 1,3,-1
 2188 1204 l 1,0,-1
2188 0 m 1,4,-1
 1375 0 l 1,5,-1
 695 1204 l 1,6,-1
 140 1204 l 1,7,-1
 140 1476 l 1,8,-1
 845 1476 l 1,9,-1
 1525 272 l 1,10,-1
 2188 272 l 1,11,-1
 2188 0 l 1,4,-1
EndSplineSet
EndChar

StartChar: escape
Encoding: 20 27 356
AltUni2: 00241b.ffffffff.0 00241b.ffffffff.0
Width: 1876
GlyphClass: 1
Flags: W
LayerCount: 2
Fore
SplineSet
1029 857 m 1,0,-1
 849 677 l 1,1,-1
 382 1144 l 1,2,-1
 172 932 l 1,3,-1
 172 1536 l 1,4,-1
 774 1536 l 1,5,-1
 562 1324 l 1,6,-1
 1029 857 l 1,0,-1
1708 768 m 0,7,8
 1708 453 1708 453 1485.5 226.5 c 128,-1,9
 1263 0 1263 0 940 0 c 0,10,11
 637 0 637 0 414 203.5 c 128,-1,12
 191 407 191 407 172 768 c 1,13,-1
 402 768 l 1,14,15
 415 512 415 512 574 371 c 128,-1,16
 733 230 733 230 940 230 c 0,17,18
 1153 230 1153 230 1314.5 379.5 c 128,-1,19
 1476 529 1476 529 1476 768 c 0,20,21
 1476 979 1476 979 1333 1135.5 c 128,-1,22
 1190 1292 1190 1292 940 1305 c 1,23,-1
 940 1536 l 1,24,25
 1300 1526 1300 1526 1504 1288 c 128,-1,26
 1708 1050 1708 1050 1708 768 c 0,7,8
EndSplineSet
EndChar

StartChar: glyph357
Encoding: 426 -1 357
Width: 2220
GlyphClass: 1
Flags: W
LayerCount: 2
Fore
SplineSet
2147 1416 m 1,0,-1
 1343 382 l 1,1,-1
 628 382 l 1,2,-1
 628 22 l 1,3,-1
 132 516 l 1,4,-1
 628 1014 l 1,5,-1
 628 654 l 1,6,-1
 1229 654 l 1,7,-1
 1604 1152 l 1,8,-1
 1062 1152 l 1,9,-1
 1062 1416 l 1,10,-1
 2147 1416 l 1,0,-1
EndSplineSet
EndChar

StartChar: glyph358
Encoding: 427 -1 358
Width: 2220
GlyphClass: 1
Flags: W
LayerCount: 2
Fore
SplineSet
99 1416 m 1,0,-1
 1184 1416 l 1,1,-1
 1184 1152 l 1,2,-1
 642 1152 l 1,3,-1
 1017 654 l 1,4,-1
 1618 654 l 1,5,-1
 1618 1014 l 1,6,-1
 2114 516 l 1,7,-1
 1618 22 l 1,8,-1
 1618 382 l 1,9,-1
 903 382 l 1,10,-1
 99 1416 l 1,0,-1
EndSplineSet
EndChar

StartChar: apple
Encoding: 15 20 359
Width: 1810
GlyphClass: 1
Flags: W
LayerCount: 2
Fore
SplineSet
1217 1642 m 0,0,1
 1217 1579 1217 1579 1187 1503 c 128,-1,2
 1157 1427 1157 1427 1092 1362 c 0,3,4
 1065 1335 1065 1335 1037.5 1316.5 c 128,-1,5
 1010 1298 1010 1298 981 1288 c 0,6,7
 965 1282 965 1282 938 1278 c 128,-1,8
 911 1274 911 1274 874 1272 c 1,9,10
 877 1423 877 1423 954.5 1535 c 128,-1,11
 1032 1647 1032 1647 1210 1688 c 1,12,13
 1214 1673 1214 1673 1215.5 1664 c 128,-1,14
 1217 1655 1217 1655 1217 1642 c 0,0,1
1604 440 m 1,15,16
 1585 379 1585 379 1552.5 314.5 c 128,-1,17
 1520 250 1520 250 1477 184 c 0,18,19
 1411 82 1411 82 1344.5 33 c 128,-1,20
 1278 -16 1278 -16 1212 -16 c 0,21,22
 1161 -16 1161 -16 1070 16.5 c 128,-1,23
 979 49 979 49 915 49 c 0,24,25
 852 49 852 49 769 14.5 c 128,-1,26
 686 -20 686 -20 633 -20 c 0,27,28
 555 -20 555 -20 478 46.5 c 128,-1,29
 401 113 401 113 326 246 c 0,30,31
 250 377 250 377 212 506 c 128,-1,32
 174 635 174 635 174 762 c 0,33,34
 174 997 174 997 290 1144.5 c 128,-1,35
 406 1292 406 1292 582 1292 c 0,36,37
 657 1292 657 1292 762.5 1261.5 c 128,-1,38
 868 1231 868 1231 905 1231 c 0,39,40
 950 1231 950 1231 1051.5 1265.5 c 128,-1,41
 1153 1300 1153 1300 1229 1300 c 0,42,43
 1290 1300 1290 1300 1344.5 1284 c 128,-1,44
 1399 1268 1399 1268 1446 1235 c 0,45,46
 1470 1217 1470 1217 1499 1190 c 128,-1,47
 1528 1163 1528 1163 1554 1130 c 1,48,49
 1513 1098 1513 1098 1484.5 1066 c 128,-1,50
 1456 1034 1456 1034 1438 1010 c 0,51,52
 1405 963 1405 963 1387.5 909.5 c 128,-1,53
 1370 856 1370 856 1370 799 c 0,54,55
 1370 672 1370 672 1441.5 569.5 c 128,-1,56
 1513 467 1513 467 1604 440 c 1,15,16
EndSplineSet
EndChar

StartChar: glyph360
Encoding: 428 -1 360
Width: 1708
GlyphClass: 1
Flags: W
LayerCount: 2
Fore
SplineSet
1586 -50 m 1,0,-1
 122 -50 l 1,1,-1
 122 1586 l 1,2,-1
 1110 1586 l 1,3,-1
 1586 1108 l 1,4,-1
 1586 -50 l 1,0,-1
1300 1108 m 1,5,-1
 1024 1384 l 1,6,-1
 1024 1108 l 1,7,-1
 1300 1108 l 1,5,-1
1366 170 m 1,8,-1
 1366 915 l 1,9,-1
 819 915 l 1,10,-1
 819 1364 l 1,11,-1
 342 1364 l 1,12,-1
 342 170 l 1,13,-1
 1366 170 l 1,8,-1
1216 599 m 1,14,-1
 854 239 l 1,15,-1
 492 599 l 1,16,-1
 664 599 l 1,17,-1
 664 771 l 1,18,-1
 1044 771 l 1,19,-1
 1044 599 l 1,20,-1
 1216 599 l 1,14,-1
EndSplineSet
EndChar

StartChar: checkmark
Encoding: 13 18 362
Width: 1886
GlyphClass: 1
Flags: W
LayerCount: 2
Fore
SplineSet
1792 1196 m 1,0,-1
 596 0 l 1,1,-1
 84 512 l 1,2,-1
 279 707 l 1,3,-1
 596 394 l 1,4,-1
 1596 1389 l 1,5,-1
 1792 1196 l 1,0,-1
EndSplineSet
EndChar

StartChar: glyph363
Encoding: 429 -1 363
Width: 2220
GlyphClass: 1
Flags: W
LayerCount: 2
Fore
SplineSet
1115 1214 m 1,0,-1
 91 1214 l 1,1,-1
 91 1476 l 1,2,-1
 1115 1476 l 1,3,-1
 1115 1214 l 1,0,-1
2050 385 m 1,4,-1
 1119 385 l 1,5,-1
 1119 26 l 1,6,-1
 632 516 l 1,7,-1
 1119 1006 l 1,8,-1
 1119 647 l 1,9,-1
 1800 647 l 1,10,-1
 1800 1214 l 1,11,-1
 1456 1214 l 1,12,-1
 1456 1476 l 1,13,-1
 2050 1476 l 1,14,-1
 2050 385 l 1,4,-1
517 385 m 1,15,-1
 91 385 l 1,16,-1
 91 647 l 1,17,-1
 517 647 l 1,18,-1
 517 385 l 1,15,-1
EndSplineSet
EndChar

StartChar: glyph365
Encoding: 431 -1 365
Width: 1364
GlyphClass: 1
Flags: W
LayerCount: 2
Fore
SplineSet
1366 -241 m 1,0,-1
 1196 -241 l 1,1,-1
 1196 -485 l 1,2,-1
 172 -485 l 1,3,-1
 172 -241 l 1,4,-1
 0 -241 l 1,5,-1
 0 0 l 1,6,-1
 398 0 l 1,7,-1
 398 -241 l 1,8,-1
 970 -241 l 1,9,-1
 970 0 l 1,10,-1
 1366 0 l 1,11,-1
 1366 -241 l 1,0,-1
EndSplineSet
EndChar

StartChar: blackdiamond
Encoding: 14 19 366
Width: 1536
GlyphClass: 1
Flags: W
LayerCount: 2
Fore
SplineSet
1366 596 m 1,0,-1
 768 0 l 1,1,-1
 172 596 l 1,2,-1
 768 1196 l 1,3,-1
 1366 596 l 1,0,-1
EndSplineSet
EndChar

StartChar: uniE12E
Encoding: 432 57646 367
Width: 1836
GlyphClass: 1
Flags: W
LayerCount: 2
Fore
SplineSet
1250.87011719 1690.28027344 m 1,0,1
 1264.63964844 1529.89941406 1264.63964844 1529.89941406 1155.29003906 1399.48925781 c 128,-1,2
 1045.93945312 1269.08007812 1045.93945312 1269.08007812 894.469726562 1275.56054688 c 1,3,4
 883.129882812 1428.64941406 883.129882812 1428.64941406 986 1548.53027344 c 128,-1,5
 1088.87011719 1668.41015625 1088.87011719 1668.41015625 1250.87011719 1690.28027344 c 1,0,1
1642.09960938 435.58984375 m 1,6,7
 1574.87011719 250.91015625 1574.87011719 250.91015625 1456.20507812 113.614257812 c 128,-1,8
 1337.54003906 -23.6806640625 1337.54003906 -23.6806640625 1237.09960938 -23.6806640625 c 0,9,10
 1187.68945312 -23.6806640625 1187.68945312 -23.6806640625 1091.70507812 13.1748046875 c 128,-1,11
 995.719726562 50.0302734375 995.719726562 50.0302734375 936.58984375 50.0302734375 c 0,12,13
 878.26953125 50.0302734375 878.26953125 50.0302734375 782.28515625 13.1748046875 c 128,-1,14
 686.299804688 -23.6806640625 686.299804688 -23.6806640625 636.889648438 -23.6806640625 c 0,15,16
 488.66015625 -23.6806640625 488.66015625 -23.6806640625 328.280273438 235.51953125 c 128,-1,17
 167.900390625 494.719726562 167.900390625 494.719726562 167.900390625 781.459960938 c 0,18,19
 167.900390625 1000.96972656 167.900390625 1000.96972656 295.474609375 1149.20019531 c 128,-1,20
 423.049804688 1297.4296875 423.049804688 1297.4296875 624.739257812 1297.4296875 c 0,21,22
 718.700195312 1297.4296875 718.700195312 1297.4296875 798.485351562 1260.16992188 c 128,-1,23
 878.26953125 1222.91015625 878.26953125 1222.91015625 936.58984375 1222.91015625 c 0,24,25
 970.610351562 1222.91015625 970.610351562 1222.91015625 1065.37988281 1260.16992188 c 128,-1,26
 1160.15039062 1297.4296875 1160.15039062 1297.4296875 1249.25 1297.4296875 c 0,27,28
 1358.59960938 1297.4296875 1358.59960938 1297.4296875 1448.10546875 1251.25976562 c 128,-1,29
 1537.61035156 1205.08984375 1537.61035156 1205.08984375 1598.36035156 1124.89941406 c 1,30,31
 1496.29980469 1062.53027344 1496.29980469 1062.53027344 1450.53515625 971.810546875 c 128,-1,32
 1404.76953125 881.08984375 1404.76953125 881.08984375 1404.76953125 781.459960938 c 0,33,34
 1404.76953125 667.25 1404.76953125 667.25 1478.88574219 572.075195312 c 128,-1,35
 1553 476.899414062 1553 476.899414062 1642.09960938 435.58984375 c 1,6,7
1468.76074219 379.700195312 m 1,36,37
 1377.23046875 444.5 1377.23046875 444.5 1320.93554688 559.924804688 c 128,-1,38
 1264.63964844 675.349609375 1264.63964844 675.349609375 1264.63964844 781.459960938 c 0,39,40
 1264.63964844 900.530273438 1264.63964844 900.530273438 1300.28027344 983.5546875 c 128,-1,41
 1335.91992188 1066.58007812 1335.91992188 1066.58007812 1384.51953125 1127.33007812 c 1,42,43
 1355.36035156 1141.91015625 1355.36035156 1141.91015625 1320.53027344 1149.60546875 c 128,-1,44
 1285.70019531 1157.29980469 1285.70019531 1157.29980469 1247.62988281 1157.29980469 c 0,45,46
 1172.29980469 1157.29980469 1172.29980469 1157.29980469 1080.36425781 1120.0390625 c 128,-1,47
 988.4296875 1082.78027344 988.4296875 1082.78027344 936.58984375 1082.78027344 c 0,48,49
 856.400390625 1082.78027344 856.400390625 1082.78027344 778.639648438 1120.0390625 c 128,-1,50
 700.879882812 1157.29980469 700.879882812 1157.29980469 625.549804688 1157.29980469 c 0,51,52
 473.26953125 1157.29980469 473.26953125 1157.29980469 389.83984375 1049.1640625 c 128,-1,53
 306.41015625 941.030273438 306.41015625 941.030273438 306.41015625 781.459960938 c 0,54,55
 306.41015625 530.360351562 306.41015625 530.360351562 438.439453125 322.594726562 c 128,-1,56
 570.469726562 114.830078125 570.469726562 114.830078125 635.26953125 114.830078125 c 0,57,58
 669.290039062 114.830078125 669.290039062 114.830078125 757.174804688 151.280273438 c 128,-1,59
 845.060546875 187.73046875 845.060546875 187.73046875 936.58984375 187.73046875 c 0,60,61
 1028.9296875 187.73046875 1028.9296875 187.73046875 1116.41015625 151.280273438 c 128,-1,62
 1203.88964844 114.830078125 1203.88964844 114.830078125 1237.91015625 114.830078125 c 0,63,64
 1274.36035156 114.830078125 1274.36035156 114.830078125 1344.01953125 194.614257812 c 128,-1,65
 1413.6796875 274.399414062 1413.6796875 274.399414062 1468.76074219 379.700195312 c 1,36,37
EndSplineSet
EndChar

StartChar: carriagereturn
Encoding: 8 11 368
AltUni2: 00240d.ffffffff.0 00240d.ffffffff.0
Width: 2388
GlyphClass: 1
Flags: W
LayerCount: 2
Fore
SplineSet
2182 726 m 2,0,1
 2182 587 2182 587 2081.5 481.5 c 128,-1,2
 1981 376 1981 376 1838 376 c 2,3,-1
 630 376 l 1,4,-1
 630 16 l 1,5,-1
 134 510 l 1,6,-1
 630 1008 l 1,7,-1
 630 648 l 1,8,-1
 1722 648 l 2,9,10
 1792 648 1792 648 1842 692 c 128,-1,11
 1892 736 1892 736 1892 806 c 2,12,-1
 1892 1030 l 2,13,14
 1892 1100 1892 1100 1842 1139 c 128,-1,15
 1792 1178 1792 1178 1722 1178 c 2,16,-1
 1408 1178 l 1,17,-1
 1408 1450 l 1,18,-1
 1840 1450 l 2,19,20
 1981 1450 1981 1450 2081.5 1349.5 c 128,-1,21
 2182 1249 2182 1249 2182 1110 c 2,22,-1
 2182 726 l 2,0,1
EndSplineSet
EndChar

StartChar: arrowdashleft
Encoding: 17 24 369
AltUni2: 0021e0.ffffffff.0 0021e0.ffffffff.0
Width: 2048
GlyphClass: 1
Flags: W
LayerCount: 2
Fore
SplineSet
1899 624 m 1,0,-1
 1559 624 l 1,1,-1
 1559 912 l 1,2,-1
 1899 912 l 1,3,-1
 1899 624 l 1,0,-1
1387 624 m 1,4,-1
 1047 624 l 1,5,-1
 1047 912 l 1,6,-1
 1387 912 l 1,7,-1
 1387 624 l 1,4,-1
875 624 m 1,8,-1
 619 624 l 1,9,-1
 619 270 l 1,10,-1
 121 768 l 1,11,-1
 619 1266 l 1,12,-1
 619 912 l 1,13,-1
 875 912 l 1,14,-1
 875 624 l 1,8,-1
EndSplineSet
EndChar

StartChar: arrowdashup
Encoding: 18 25 370
AltUni2: 0021e1.ffffffff.0 0021e1.ffffffff.0
Width: 1536
GlyphClass: 1
Flags: W
LayerCount: 2
Fore
SplineSet
1267 1168 m 1,0,-1
 913 1168 l 1,1,-1
 913 912 l 1,2,-1
 625 912 l 1,3,-1
 625 1168 l 1,4,-1
 271 1168 l 1,5,-1
 769 1666 l 1,6,-1
 1267 1168 l 1,0,-1
913 400 m 1,7,-1
 625 400 l 1,8,-1
 625 740 l 1,9,-1
 913 740 l 1,10,-1
 913 400 l 1,7,-1
913 -112 m 1,11,-1
 625 -112 l 1,12,-1
 625 228 l 1,13,-1
 913 228 l 1,14,-1
 913 -112 l 1,11,-1
EndSplineSet
EndChar

StartChar: arrowdashright
Encoding: 19 26 371
AltUni2: 0021e2.ffffffff.0 0021e2.ffffffff.0
Width: 2048
GlyphClass: 1
Flags: W
LayerCount: 2
Fore
SplineSet
159 624 m 1,0,-1
 159 912 l 1,1,-1
 499 912 l 1,2,-1
 499 624 l 1,3,-1
 159 624 l 1,0,-1
671 624 m 1,4,-1
 671 912 l 1,5,-1
 1011 912 l 1,6,-1
 1011 624 l 1,7,-1
 671 624 l 1,4,-1
1183 624 m 1,8,-1
 1183 912 l 1,9,-1
 1439 912 l 1,10,-1
 1439 1266 l 1,11,-1
 1937 768 l 1,12,-1
 1439 270 l 1,13,-1
 1439 624 l 1,14,-1
 1183 624 l 1,8,-1
EndSplineSet
EndChar

StartChar: arrowdashdown
Encoding: 11 16 372
AltUni2: 0021e3.ffffffff.0 0021e3.ffffffff.0
Width: 1536
GlyphClass: 1
Flags: W
LayerCount: 2
Fore
SplineSet
1267 256 m 1,0,-1
 769 -242 l 1,1,-1
 271 256 l 1,2,-1
 625 256 l 1,3,-1
 625 512 l 1,4,-1
 913 512 l 1,5,-1
 913 256 l 1,6,-1
 1267 256 l 1,0,-1
913 1024 m 1,7,-1
 913 684 l 1,8,-1
 625 684 l 1,9,-1
 625 1024 l 1,10,-1
 913 1024 l 1,7,-1
913 1536 m 1,11,-1
 913 1196 l 1,12,-1
 625 1196 l 1,13,-1
 625 1536 l 1,14,-1
 913 1536 l 1,11,-1
EndSplineSet
EndChar

StartChar: glyph373
Encoding: 433 -1 373
Width: 1536
GlyphClass: 1
Flags: W
LayerCount: 2
Fore
SplineSet
1386 0 m 1,0,-1
 152 768 l 1,1,-1
 1386 1536 l 1,2,-1
 1386 0 l 1,0,-1
1196 353 m 1,3,-1
 1196 1183 l 1,4,-1
 527 768 l 1,5,-1
 1196 353 l 1,3,-1
EndSplineSet
EndChar

StartChar: foursuperior
Encoding: 364 8308 374
Width: 849
GlyphClass: 1
Flags: W
LayerCount: 2
Fore
SplineSet
986 840 m 1,0,-1
 841 840 l 1,1,-1
 783 590 l 1,2,-1
 581 590 l 1,3,-1
 639 840 l 1,4,-1
 222 840 l 1,5,-1
 265 1026 l 1,6,-1
 863 1538 l 1,7,-1
 1002 1538 l 1,8,-1
 884 1030 l 1,9,-1
 1030 1030 l 1,10,-1
 986 840 l 1,0,-1
683 1030 m 1,11,-1
 738 1268 l 1,12,-1
 459 1030 l 1,13,-1
 683 1030 l 1,11,-1
EndSplineSet
EndChar

StartChar: glyph375
Encoding: 434 -1 375
Width: 730
GlyphClass: 1
Flags: W
LayerCount: 2
Fore
SplineSet
721 823 m 1,0,-1
 4 401 l 1,1,-1
 4 602 l 1,2,-1
 721 1026 l 1,3,-1
 721 823 l 1,0,-1
EndSplineSet
EndChar

StartChar: glyph376
Encoding: 435 -1 376
Width: 631
GlyphClass: 1
Flags: W
LayerCount: 2
Fore
SplineSet
635 805 m 1,0,-1
 29 346 l 1,1,-1
 29 526 l 1,2,-1
 635 987 l 1,3,-1
 635 805 l 1,0,-1
EndSplineSet
EndChar

StartChar: glyph377
Encoding: 436 -1 377
Width: 735
GlyphClass: 1
Flags: W
LayerCount: 2
Fore
SplineSet
663 648 m 1,0,-1
 60 648 l 1,1,-1
 60 861 l 1,2,-1
 663 861 l 1,3,-1
 663 648 l 1,0,-1
EndSplineSet
EndChar

StartChar: glyph378
Encoding: 437 -1 378
Width: 1389
GlyphClass: 1
Flags: W
LayerCount: 2
Fore
SplineSet
1341 776 m 1,0,-1
 1087 776 l 1,1,2
 1085 834 1085 834 1067 864.5 c 128,-1,3
 1049 895 1049 895 1004 895 c 0,4,5
 967 895 967 895 940 876.5 c 128,-1,6
 913 858 913 858 899 829 c 1,7,-1
 899 324 l 1,8,-1
 621 324 l 1,9,-1
 621 1126 l 1,10,-1
 887 1126 l 1,11,-1
 893 975 l 1,12,13
 930 1071 930 1071 990.5 1110 c 128,-1,14
 1051 1149 1051 1149 1147 1149 c 0,15,16
 1264 1149 1264 1149 1315 1053.5 c 128,-1,17
 1366 958 1366 958 1341 776 c 1,0,-1
EndSplineSet
EndChar

StartChar: contextmenu
Encoding: 438 -1 379
Width: 1881
GlyphClass: 1
Flags: W
LayerCount: 2
Fore
SplineSet
1026 1170 m 1,0,-1
 855 1170 l 1,1,-1
 855 1476 l 1,2,-1
 1026 1476 l 1,3,-1
 1026 1170 l 1,0,-1
1546 1246 m 1,4,-1
 1304 1003 l 1,5,-1
 1183 1124 l 1,6,-1
 1426 1366 l 1,7,-1
 1546 1246 l 1,4,-1
715 1107 m 1,8,-1
 594 986 l 1,9,-1
 379 1201 l 1,10,-1
 500 1322 l 1,11,-1
 715 1107 l 1,8,-1
1710 681 m 1,12,-1
 1368 681 l 1,13,-1
 1368 852 l 1,14,-1
 1710 852 l 1,15,-1
 1710 681 l 1,12,-1
513 681 m 1,16,-1
 171 681 l 1,17,-1
 171 852 l 1,18,-1
 513 852 l 1,19,-1
 513 681 l 1,16,-1
1347 519 m 1,20,-1
 1180 450 l 1,21,-1
 1344 57 l 1,22,-1
 1186 -8 l 1,23,-1
 1023 386 l 1,24,-1
 856 317 l 1,25,-1
 855 1013 l 1,26,-1
 1347 519 l 1,20,-1
700 399 m 1,27,-1
 457 157 l 1,28,-1
 337 277 l 1,29,-1
 580 520 l 1,30,-1
 700 399 l 1,27,-1
EndSplineSet
EndChar

StartChar: power
Encoding: 439 -1 380
Width: 1704
GlyphClass: 1
Flags: W
CounterMasks: 1 1c
LayerCount: 2
Fore
SplineSet
1717 765 m 256,0,1
 1717 415 1717 415 1469.5 167.5 c 128,-1,2
 1222 -80 1222 -80 872 -80 c 256,3,4
 522 -80 522 -80 274.5 167.5 c 128,-1,5
 27 415 27 415 27 765 c 256,6,7
 27 1115 27 1115 274.5 1362.5 c 128,-1,8
 522 1610 522 1610 872 1610 c 256,9,10
 1222 1610 1222 1610 1469.5 1362.5 c 128,-1,11
 1717 1115 1717 1115 1717 765 c 256,0,1
1505 765 m 0,12,13
 1505 1030 1505 1030 1319 1217 c 128,-1,14
 1133 1404 1133 1404 872 1404 c 0,15,16
 603 1404 603 1404 421 1219 c 128,-1,17
 239 1034 239 1034 239 765 c 0,18,19
 239 497 239 497 421 312 c 128,-1,20
 603 127 603 127 872 127 c 0,21,22
 1149 127 1149 127 1327 310.5 c 128,-1,23
 1505 494 1505 494 1505 765 c 0,12,13
992 358 m 1,24,-1
 752 358 l 1,25,-1
 752 1172 l 1,26,-1
 992 1172 l 1,27,-1
 992 358 l 1,24,-1
EndSplineSet
EndChar

StartChar: glyph381
Encoding: 440 -1 381
Width: 1365
GlyphClass: 1
Flags: W
LayerCount: 2
Fore
SplineSet
1341 1569 m 1,0,-1
 281 -168 l 1,1,-1
 117 -45 l 1,2,-1
 1165 1669 l 1,3,-1
 1341 1569 l 1,0,-1
EndSplineSet
EndChar

StartChar: glyph382
Encoding: 441 -1 382
Width: 1360
GlyphClass: 1
Flags: W
LayerCount: 2
Fore
SplineSet
1235 1239 m 1,0,-1
 252 -135 l 1,1,-1
 141 -45 l 1,2,-1
 1126 1323 l 1,3,-1
 1235 1239 l 1,0,-1
EndSplineSet
EndChar

StartChar: glyph383
Encoding: 442 -1 383
Width: 0
GlyphClass: 1
Flags: W
LayerCount: 2
Fore
SplineSet
24 2048 m 1,0,-1
 24 -512 l 1,1,-1
 24 0 l 1,2,-1
 1048 0 l 1,3,-1
 -1000 0 l 1,4,-1
 24 2048 l 1,0,-1
EndSplineSet
EndChar

StartChar: carriagereturnleft
Encoding: 9 12 437
Width: 2388
GlyphClass: 1
Flags: W
LayerCount: 2
Fore
SplineSet
206 1110 m 2,0,1
 206 1249 206 1249 306.5 1349.5 c 128,-1,2
 407 1450 407 1450 550 1450 c 2,3,-1
 980 1450 l 1,4,-1
 980 1178 l 1,5,-1
 666 1178 l 2,6,7
 596 1178 596 1178 546 1139 c 128,-1,8
 496 1100 496 1100 496 1030 c 2,9,-1
 496 806 l 2,10,11
 496 736 496 736 546 692 c 128,-1,12
 596 648 596 648 666 648 c 2,13,-1
 1758 648 l 1,14,-1
 1758 1008 l 1,15,-1
 2254 510 l 1,16,-1
 1758 16 l 1,17,-1
 1758 376 l 1,18,-1
 550 376 l 2,19,20
 407 376 407 376 306.5 481.5 c 128,-1,21
 206 587 206 587 206 726 c 2,22,-1
 206 1110 l 2,0,1
EndSplineSet
EndChar

StartChar: currency
Encoding: 122 164 439
Width: 1230
GlyphClass: 1
Flags: W
LayerCount: 2
Fore
SplineSet
1207 236 m 1,0,-1
 1043 94 l 1,1,-1
 885 319 l 1,2,3
 842 295 842 295 782 282.5 c 128,-1,4
 722 270 722 270 682 270 c 0,5,6
 640 270 640 270 586.5 282.5 c 128,-1,7
 533 295 533 295 500 319 c 1,8,-1
 239 94 l 1,9,-1
 140 236 l 1,10,-1
 401 461 l 1,11,12
 384 508 384 508 382 566.5 c 128,-1,13
 380 625 380 625 395 688 c 0,14,15
 410 752 410 752 438.5 810 c 128,-1,16
 467 868 467 868 506 915 c 1,17,-1
 349 1141 l 1,18,-1
 514 1282 l 1,19,-1
 671 1057 l 1,20,21
 715 1081 715 1081 774 1093.5 c 128,-1,22
 833 1106 833 1106 875 1106 c 0,23,24
 915 1106 915 1106 969 1093.5 c 128,-1,25
 1023 1081 1023 1081 1055 1057 c 1,26,-1
 1317 1282 l 1,27,-1
 1416 1141 l 1,28,-1
 1154 915 l 1,29,30
 1172 868 1172 868 1172.5 804.5 c 128,-1,31
 1173 741 1173 741 1160 688 c 0,32,33
 1145 625 1145 625 1117 566.5 c 128,-1,34
 1089 508 1089 508 1049 461 c 1,35,-1
 1207 236 l 1,0,-1
939 698 m 0,36,37
 958 782 958 782 932 842.5 c 128,-1,38
 906 903 906 903 828 903 c 0,39,40
 754 903 754 903 698 842.5 c 128,-1,41
 642 782 642 782 622 698 c 256,42,43
 603 614 603 614 631 554 c 128,-1,44
 659 494 659 494 733 494 c 0,45,46
 811 494 811 494 864.5 550 c 128,-1,47
 918 606 918 606 939 698 c 0,36,37
EndSplineSet
EndChar

StartChar: uniE0B0
Encoding: 474 57520 456
Width: 1051
VWidth: 1000
Flags: W
LayerCount: 2
Fore
SplineSet
354.5 59 m 0,0,1
 294.5 -1 294.5 -1 206.900390625 -2.2001953125 c 0,2,3
 122.900390625 -2.2001953125 122.900390625 -2.2001953125 61.7001953125 59 c 128,-1,4
 0.5 120.200195312 0.5 120.200195312 0.5 207.799804688 c 2,5,-1
 0.5 1242.20019531 l 2,6,7
 0.5 1328.59960938 0.5 1328.59960938 61.7001953125 1390.40039062 c 128,-1,8
 122.900390625 1452.20019531 122.900390625 1452.20019531 206.900390625 1452.20019531 c 0,9,10
 294.5 1452.20019531 294.5 1452.20019531 354.5 1391 c 2,11,-1
 1038.5 725 l 1,12,13
 628.099609375 325.400390625 628.099609375 325.400390625 354.5 59 c 0,0,1
EndSplineSet
EndChar

StartChar: F12
Encoding: 475 59916 457
Width: 2220
Flags: W
LayerCount: 2
Fore
SplineSet
1778 405 m 1,0,-1
 1264 405 l 1,1,-1
 1264 532 l 1,2,3
 1458.5 700 1458.5 700 1530.75 783 c 128,-1,4
 1603 866 1603 866 1603 932.5 c 0,5,6
 1603 982.5 1603 982.5 1579.5 1018.75 c 128,-1,7
 1556 1055 1556 1055 1505.5 1055 c 0,8,9
 1449.5 1055 1449.5 1055 1431.5 1034.25 c 128,-1,10
 1413.5 1013.5 1413.5 1013.5 1404 984.5 c 1,11,-1
 1259 984.5 l 1,12,13
 1281.5 1081 1281.5 1081 1351 1125.5 c 128,-1,14
 1420.5 1170 1420.5 1170 1529 1170 c 0,15,16
 1646 1170 1646 1170 1709 1108 c 128,-1,17
 1772 1046 1772 1046 1772 954 c 0,18,19
 1772 855.5 1772 855.5 1685.5 753.75 c 128,-1,20
 1599 652 1599 652 1404 517.5 c 1,21,-1
 1778 517.5 l 1,22,-1
 1778 405 l 1,0,-1
1214.5 404 m 1,23,-1
 1060 404 l 1,24,-1
 1060 978.5 l 1,25,-1
 954.5 978.5 l 1,26,-1
 954.5 1069.5 l 1,27,28
 1026 1075.5 1026 1075.5 1064 1108 c 128,-1,29
 1102 1140.5 1102 1140.5 1113 1158.5 c 1,30,-1
 1214.5 1158.5 l 1,31,-1
 1214.5 404 l 1,23,-1
911 1046.5 m 1,32,-1
 622 1046.5 l 1,33,-1
 622 844 l 1,34,-1
 846.5 844 l 1,35,-1
 846.5 730 l 1,36,-1
 622 730 l 1,37,-1
 622 404.5 l 1,38,-1
 452 404.5 l 1,39,-1
 452 1159 l 1,40,-1
 911 1159 l 1,41,-1
 911 1046.5 l 1,32,-1
1694 1536 m 1,42,-1
 2048 1536 l 1,43,-1
 2048 0 l 1,44,-1
 1694 0 l 1,45,-1
 1493 0 l 1,46,-1
 727 0 l 1,47,-1
 524 0 l 1,48,-1
 172 0 l 1,49,-1
 172 1536 l 1,50,-1
 524 1536 l 1,51,-1
 727 1536 l 1,52,-1
 1493 1536 l 1,53,-1
 1694 1536 l 1,42,-1
1384 1364 m 1,54,-1
 834 1364 l 1,55,-1
 633 1364 l 1,56,-1
 342 1364 l 1,57,-1
 342 172 l 1,58,-1
 633 172 l 1,59,-1
 834 172 l 1,60,-1
 1384 172 l 1,61,-1
 1587 172 l 1,62,-1
 1878 172 l 1,63,-1
 1878 1364 l 1,64,-1
 1587 1364 l 1,65,-1
 1384 1364 l 1,54,-1
EndSplineSet
EndChar

StartChar: F11
Encoding: 476 59915 458
Width: 2220
Flags: W
LayerCount: 2
Fore
SplineSet
1685 404 m 5,0,-1
 1530.5 404 l 5,1,-1
 1530.5 978.5 l 5,2,-1
 1425 978.5 l 5,3,-1
 1425 1069.5 l 5,4,5
 1496.5 1075.5 1496.5 1075.5 1534.5 1108 c 132,-1,6
 1572.5 1140.5 1572.5 1140.5 1583.5 1158.5 c 5,7,-1
 1685 1158.5 l 5,8,-1
 1685 404 l 5,0,-1
1298.5 404 m 5,9,-1
 1144 404 l 5,10,-1
 1144 978.5 l 5,11,-1
 1038.5 978.5 l 5,12,-1
 1038.5 1069.5 l 5,13,14
 1110 1075.5 1110 1075.5 1148 1108 c 132,-1,15
 1186 1140.5 1186 1140.5 1197 1158.5 c 5,16,-1
 1298.5 1158.5 l 5,17,-1
 1298.5 404 l 5,9,-1
945 1046.5 m 5,18,-1
 656 1046.5 l 5,19,-1
 656 844 l 5,20,-1
 880.5 844 l 5,21,-1
 880.5 730 l 5,22,-1
 656 730 l 5,23,-1
 656 404.5 l 5,24,-1
 486 404.5 l 5,25,-1
 486 1159 l 5,26,-1
 945 1159 l 5,27,-1
 945 1046.5 l 5,18,-1
1694 1536 m 1,28,-1
 2048 1536 l 1,29,-1
 2048 0 l 1,30,-1
 1694 0 l 1,31,-1
 1493 0 l 1,32,-1
 727 0 l 1,33,-1
 524 0 l 1,34,-1
 172 0 l 1,35,-1
 172 1536 l 1,36,-1
 524 1536 l 1,37,-1
 727 1536 l 1,38,-1
 1493 1536 l 1,39,-1
 1694 1536 l 1,28,-1
1384 1364 m 1,40,-1
 834 1364 l 1,41,-1
 633 1364 l 1,42,-1
 342 1364 l 1,43,-1
 342 172 l 1,44,-1
 633 172 l 1,45,-1
 834 172 l 1,46,-1
 1384 172 l 1,47,-1
 1587 172 l 1,48,-1
 1878 172 l 1,49,-1
 1878 1364 l 1,50,-1
 1587 1364 l 1,51,-1
 1384 1364 l 1,40,-1
EndSplineSet
EndChar

StartChar: F10
Encoding: 477 59914 459
Width: 2220
Flags: W
LayerCount: 2
Fore
SplineSet
1799.5 756.5 m 2,0,1
 1799.5 576.5 1799.5 576.5 1727.75 488.25 c 128,-1,2
 1656 400 1656 400 1531 400 c 256,3,4
 1406 400 1406 400 1334.25 488.25 c 128,-1,5
 1262.5 576.5 1262.5 576.5 1262.5 756.5 c 2,6,-1
 1262.5 818 l 2,7,8
 1262.5 990 1262.5 990 1330.75 1084.25 c 128,-1,9
 1399 1178.5 1399 1178.5 1531 1178.5 c 256,10,11
 1663 1178.5 1663 1178.5 1731.25 1084.25 c 128,-1,12
 1799.5 990 1799.5 990 1799.5 818 c 2,13,-1
 1799.5 756.5 l 2,0,1
1631 777 m 2,14,-1
 1631 797.5 l 2,15,16
 1631 950 1631 950 1610.75 1007 c 128,-1,17
 1590.5 1064 1590.5 1064 1531 1064 c 256,18,19
 1471.5 1064 1471.5 1064 1451.5 1007 c 128,-1,20
 1431.5 950 1431.5 950 1431.5 797.5 c 2,21,-1
 1431.5 777 l 2,22,23
 1431.5 624.5 1431.5 624.5 1452 569.75 c 128,-1,24
 1472.5 515 1472.5 515 1531 515 c 0,25,26
 1590.5 515 1590.5 515 1610.75 569.75 c 128,-1,27
 1631 624.5 1631 624.5 1631 777 c 2,14,-1
1214.5 404 m 1,28,-1
 1060 404 l 1,29,-1
 1060 978.5 l 1,30,-1
 954.5 978.5 l 1,31,-1
 954.5 1069.5 l 1,32,33
 1026 1075.5 1026 1075.5 1064 1108 c 128,-1,34
 1102 1140.5 1102 1140.5 1113 1158.5 c 1,35,-1
 1214.5 1158.5 l 1,36,-1
 1214.5 404 l 1,28,-1
911 1046.5 m 1,37,-1
 622 1046.5 l 1,38,-1
 622 844 l 1,39,-1
 846.5 844 l 1,40,-1
 846.5 730 l 1,41,-1
 622 730 l 1,42,-1
 622 404.5 l 1,43,-1
 452 404.5 l 1,44,-1
 452 1159 l 1,45,-1
 911 1159 l 1,46,-1
 911 1046.5 l 1,37,-1
1694 1536 m 1,47,-1
 2048 1536 l 1,48,-1
 2048 0 l 1,49,-1
 1694 0 l 1,50,-1
 1493 0 l 1,51,-1
 727 0 l 1,52,-1
 524 0 l 1,53,-1
 172 0 l 1,54,-1
 172 1536 l 1,55,-1
 524 1536 l 1,56,-1
 727 1536 l 1,57,-1
 1493 1536 l 1,58,-1
 1694 1536 l 1,47,-1
1384 1364 m 1,59,-1
 834 1364 l 1,60,-1
 633 1364 l 1,61,-1
 342 1364 l 1,62,-1
 342 172 l 1,63,-1
 633 172 l 1,64,-1
 834 172 l 1,65,-1
 1384 172 l 1,66,-1
 1587 172 l 1,67,-1
 1878 172 l 1,68,-1
 1878 1364 l 1,69,-1
 1587 1364 l 1,70,-1
 1384 1364 l 1,59,-1
EndSplineSet
EndChar

StartChar: F9
Encoding: 478 59913 460
Width: 2220
Flags: W
LayerCount: 2
Fore
SplineSet
1693.5 806.5 m 0,0,1
 1678.5 612.5 1678.5 612.5 1602.5 508 c 0,2,3
 1521.5 396 1521.5 396 1367 396 c 0,4,5
 1327 396 1327 396 1296.75 401.25 c 128,-1,6
 1266.5 406.5 1266.5 406.5 1241 411.5 c 1,7,-1
 1241 541.5 l 1,8,9
 1275 533.5 1275 533.5 1306.25 528.25 c 128,-1,10
 1337.5 523 1337.5 523 1367 523 c 0,11,12
 1439.5 523 1439.5 523 1478.5 569.5 c 128,-1,13
 1517.5 616 1517.5 616 1520.5 696 c 1,14,15
 1506 670.5 1506 670.5 1461.5 650 c 128,-1,16
 1417 629.5 1417 629.5 1378 629.5 c 0,17,18
 1261.5 629.5 1261.5 629.5 1197.25 697.25 c 128,-1,19
 1133 765 1133 765 1133 889.5 c 0,20,21
 1133 1018.5 1133 1018.5 1205.5 1095 c 128,-1,22
 1278 1171.5 1278 1171.5 1408 1171.5 c 0,23,24
 1547 1171.5 1547 1171.5 1615.5 1098 c 0,25,26
 1680 1030 1680 1030 1693.5 872.5 c 0,27,28
 1694.5 861 1694.5 861 1694.5 844 c 0,29,30
 1694.5 840 1694.5 840 1694.5 835.5 c 0,31,32
 1694 813 1694 813 1693.5 806.5 c 0,0,1
1529 900.5 m 0,33,34
 1529 983.5 1529 983.5 1498.75 1019.25 c 128,-1,35
 1468.5 1055 1468.5 1055 1415 1055 c 0,36,37
 1363 1055 1363 1055 1333 1019.75 c 128,-1,38
 1303 984.5 1303 984.5 1303 900.5 c 0,39,40
 1303 820.5 1303 820.5 1333 782.75 c 128,-1,41
 1363 745 1363 745 1415 745 c 0,42,43
 1461 745 1461 745 1495 782.25 c 128,-1,44
 1529 819.5 1529 819.5 1529 900.5 c 0,33,34
1015 1046.5 m 1,45,-1
 726 1046.5 l 1,46,-1
 726 844 l 1,47,-1
 950.5 844 l 1,48,-1
 950.5 730 l 1,49,-1
 726 730 l 1,50,-1
 726 404.5 l 1,51,-1
 556 404.5 l 1,52,-1
 556 1159 l 1,53,-1
 1015 1159 l 1,54,-1
 1015 1046.5 l 1,45,-1
1694 1536 m 1,55,-1
 2048 1536 l 1,56,-1
 2048 0 l 1,57,-1
 1694 0 l 1,58,-1
 1493 0 l 1,59,-1
 727 0 l 1,60,-1
 524 0 l 1,61,-1
 172 0 l 1,62,-1
 172 1536 l 1,63,-1
 524 1536 l 1,64,-1
 727 1536 l 1,65,-1
 1493 1536 l 1,66,-1
 1694 1536 l 1,55,-1
1384 1364 m 1,67,-1
 834 1364 l 1,68,-1
 633 1364 l 1,69,-1
 342 1364 l 1,70,-1
 342 172 l 1,71,-1
 633 172 l 1,72,-1
 834 172 l 1,73,-1
 1384 172 l 1,74,-1
 1587 172 l 1,75,-1
 1878 172 l 1,76,-1
 1878 1364 l 1,77,-1
 1587 1364 l 1,78,-1
 1384 1364 l 1,67,-1
EndSplineSet
EndChar

StartChar: F8
Encoding: 479 59912 461
Width: 2220
Flags: W
LayerCount: 2
Fore
SplineSet
1626 627.5 m 0,0,1
 1626 518 1626 518 1556.25 455 c 128,-1,2
 1486.5 392 1486.5 392 1373 392 c 0,3,4
 1251 392 1251 392 1186.5 449.5 c 128,-1,5
 1122 507 1122 507 1122 615 c 0,6,7
 1122 671.5 1122 671.5 1154.75 724.5 c 128,-1,8
 1187.5 777.5 1187.5 777.5 1248 800 c 1,9,-1
 1248 811 l 1,10,11
 1196 828.5 1196 828.5 1168.75 870.5 c 128,-1,12
 1141.5 912.5 1141.5 912.5 1141.5 974 c 0,13,14
 1141.5 1054.5 1141.5 1054.5 1202.5 1112 c 128,-1,15
 1263.5 1169.5 1263.5 1169.5 1373 1169.5 c 0,16,17
 1484.5 1169.5 1484.5 1169.5 1542.5 1112.75 c 128,-1,18
 1600.5 1056 1600.5 1056 1600.5 967.5 c 0,19,20
 1600.5 910.5 1600.5 910.5 1574.25 869 c 128,-1,21
 1548 827.5 1548 827.5 1502 811 c 1,22,-1
 1502 800 l 1,23,24
 1558.5 782.5 1558.5 782.5 1592.25 740.5 c 128,-1,25
 1626 698.5 1626 698.5 1626 627.5 c 0,0,1
1456 954.5 m 0,26,27
 1456 1005.5 1456 1005.5 1435 1030 c 128,-1,28
 1414 1054.5 1414 1054.5 1373 1054.5 c 256,29,30
 1332 1054.5 1332 1054.5 1311.5 1029.5 c 128,-1,31
 1291 1004.5 1291 1004.5 1291 954.5 c 0,32,33
 1291 901 1291 901 1312.5 877.5 c 128,-1,34
 1334 854 1334 854 1373 854 c 0,35,36
 1407 854 1407 854 1431.5 876.5 c 128,-1,37
 1456 899 1456 899 1456 954.5 c 0,26,27
1476.5 623.5 m 0,38,39
 1476.5 688 1476.5 688 1449.75 717.75 c 128,-1,40
 1423 747.5 1423 747.5 1373 747.5 c 0,41,42
 1324.5 747.5 1324.5 747.5 1297.5 719.25 c 128,-1,43
 1270.5 691 1270.5 691 1270.5 623.5 c 0,44,45
 1270.5 562 1270.5 562 1297.25 534.5 c 128,-1,46
 1324 507 1324 507 1373 507 c 0,47,48
 1418 507 1418 507 1447.25 534.5 c 128,-1,49
 1476.5 562 1476.5 562 1476.5 623.5 c 0,38,39
1041 1046.5 m 1,50,-1
 752 1046.5 l 1,51,-1
 752 844 l 1,52,-1
 976.5 844 l 1,53,-1
 976.5 730 l 1,54,-1
 752 730 l 1,55,-1
 752 404.5 l 1,56,-1
 582 404.5 l 1,57,-1
 582 1159 l 1,58,-1
 1041 1159 l 1,59,-1
 1041 1046.5 l 1,50,-1
1694 1536 m 1,60,-1
 2048 1536 l 1,61,-1
 2048 0 l 1,62,-1
 1694 0 l 1,63,-1
 1493 0 l 1,64,-1
 727 0 l 1,65,-1
 524 0 l 1,66,-1
 172 0 l 1,67,-1
 172 1536 l 1,68,-1
 524 1536 l 1,69,-1
 727 1536 l 1,70,-1
 1493 1536 l 1,71,-1
 1694 1536 l 1,60,-1
1384 1364 m 1,72,-1
 834 1364 l 1,73,-1
 633 1364 l 1,74,-1
 342 1364 l 1,75,-1
 342 172 l 1,76,-1
 633 172 l 1,77,-1
 834 172 l 1,78,-1
 1384 172 l 1,79,-1
 1587 172 l 1,80,-1
 1878 172 l 1,81,-1
 1878 1364 l 1,82,-1
 1587 1364 l 1,83,-1
 1384 1364 l 1,72,-1
EndSplineSet
EndChar

StartChar: F7
Encoding: 480 59911 462
Width: 2220
Flags: W
LayerCount: 2
Fore
SplineSet
1665 1030 m 1,0,1
 1545 956 1545 956 1470 805 c 0,2,3
 1404 673 1404 673 1404 464 c 0,4,5
 1405 433 1405 433 1406 404 c 1,6,-1
 1241 404 l 1,7,8
 1241 577 1241 577 1315 760 c 0,9,10
 1388 944 1388 944 1537 1046 c 1,11,-1
 1142 1046 l 1,12,-1
 1142 1158 l 1,13,-1
 1665 1158 l 1,14,-1
 1665 1030 l 1,0,1
1041 1046 m 1,15,-1
 752 1046 l 1,16,-1
 752 844 l 1,17,-1
 976 844 l 1,18,-1
 976 730 l 1,19,-1
 752 730 l 1,20,-1
 752 404 l 1,21,-1
 582 404 l 1,22,-1
 582 1159 l 1,23,-1
 1041 1159 l 1,24,-1
 1041 1046 l 1,15,-1
1694 1536 m 1,25,-1
 2048 1536 l 1,26,-1
 2048 0 l 1,27,-1
 1694 0 l 1,28,-1
 1493 0 l 1,29,-1
 727 0 l 1,30,-1
 524 0 l 1,31,-1
 172 0 l 1,32,-1
 172 1536 l 1,33,-1
 524 1536 l 1,34,-1
 727 1536 l 1,35,-1
 1493 1536 l 1,36,-1
 1694 1536 l 1,25,-1
1384 1364 m 1,37,-1
 834 1364 l 1,38,-1
 633 1364 l 1,39,-1
 342 1364 l 1,40,-1
 342 172 l 1,41,-1
 633 172 l 1,42,-1
 834 172 l 1,43,-1
 1384 172 l 1,44,-1
 1587 172 l 1,45,-1
 1878 172 l 1,46,-1
 1878 1364 l 1,47,-1
 1587 1364 l 1,48,-1
 1384 1364 l 1,37,-1
EndSplineSet
EndChar

StartChar: F6
Encoding: 481 59910 463
Width: 2220
Flags: W
LayerCount: 2
Fore
SplineSet
1694 676 m 0,0,1
 1694 547 1694 547 1620 470 c 0,2,3
 1547 394 1547 394 1417 394 c 0,4,5
 1280 394 1280 394 1210 468 c 128,-1,6
 1140 542 1140 542 1132 693 c 0,7,8
 1131 702 1131 702 1131 716 c 128,-1,9
 1131 730 1131 730 1131 730 c 0,10,11
 1132 759 1132 759 1132 759 c 0,12,13
 1131 772 1131 772 1131 788 c 0,14,15
 1131 790 1131 790 1131 791 c 128,-1,16
 1131 792 1131 792 1131 794 c 0,17,18
 1130.98947368 795.378947368 1130.98947368 795.378947368 1130.98947368 796.757783934 c 0,19,20
 1130.98947368 926.368421053 1130.98947368 926.368421053 1224 1055 c 0,21,22
 1307 1170 1307 1170 1448 1170 c 0,23,24
 1453 1170 1453 1170 1458 1170 c 0,25,26
 1493 1170 1493 1170 1528 1164 c 0,27,28
 1548 1161 1548 1161 1584 1154 c 1,29,-1
 1584 1024 l 1,30,31
 1549 1032 1549 1032 1519 1037 c 0,32,33
 1488 1042 1488 1042 1458 1042 c 0,34,35
 1456 1042 1456 1042 1453 1042 c 128,-1,36
 1450 1042 1450 1042 1448 1042 c 128,-1,37
 1446 1042 1446 1042 1443 1042 c 0,38,39
 1440.84 1042.08 1440.84 1042.08 1438.704 1042.08 c 0,40,41
 1387.44 1042.08 1387.44 1042.08 1350 996 c 0,42,43
 1311 948 1311 948 1304 870 c 1,44,45
 1319 895 1319 895 1363.5 915.5 c 128,-1,46
 1408 936 1408 936 1447 936 c 0,47,48
 1564 936 1564 936 1629 868 c 128,-1,49
 1694 800 1694 800 1694 676 c 0,0,1
1524 664 m 0,50,51
 1524 744 1524 744 1493 781.5 c 128,-1,52
 1462 819 1462 819 1410 819 c 0,53,54
 1363 819 1363 819 1330 782 c 0,55,56
 1296 744 1296 744 1296 664 c 0,57,58
 1296 580 1296 580 1326 544 c 0,59,60
 1356 509 1356 509 1410 509 c 0,61,62
 1462 509 1462 509 1493 544.5 c 128,-1,63
 1524 580 1524 580 1524 664 c 0,50,51
1041 1046 m 1,64,-1
 752 1046 l 1,65,-1
 752 844 l 1,66,-1
 976 844 l 1,67,-1
 976 730 l 1,68,-1
 752 730 l 1,69,-1
 752 404 l 1,70,-1
 582 404 l 1,71,-1
 582 1159 l 1,72,-1
 1041 1159 l 1,73,-1
 1041 1046 l 1,64,-1
1694 1536 m 1,74,-1
 2048 1536 l 1,75,-1
 2048 0 l 1,76,-1
 1694 0 l 1,77,-1
 1493 0 l 1,78,-1
 727 0 l 1,79,-1
 524 0 l 1,80,-1
 172 0 l 1,81,-1
 172 1536 l 1,82,-1
 524 1536 l 1,83,-1
 727 1536 l 1,84,-1
 1493 1536 l 1,85,-1
 1694 1536 l 1,74,-1
1384 1364 m 1,86,-1
 834 1364 l 1,87,-1
 633 1364 l 1,88,-1
 342 1364 l 1,89,-1
 342 172 l 1,90,-1
 633 172 l 1,91,-1
 834 172 l 1,92,-1
 1384 172 l 1,93,-1
 1587 172 l 1,94,-1
 1878 172 l 1,95,-1
 1878 1364 l 1,96,-1
 1587 1364 l 1,97,-1
 1384 1364 l 1,86,-1
EndSplineSet
EndChar

StartChar: F5
Encoding: 482 59909 464
Width: 2220
Flags: WO
LayerCount: 2
Fore
SplineSet
1661 683 m 0,0,1
 1661 530 1661 530 1579.5 462 c 128,-1,2
 1498 394 1498 394 1369 394 c 0,3,4
 1272 394 1272 394 1206 433 c 128,-1,5
 1140 472 1140 472 1100 556 c 1,6,-1
 1212 620 l 1,7,8
 1235 562 1235 562 1273 537 c 0,9,10
 1312 511 1312 511 1361 511 c 0,11,12
 1424 511 1424 511 1456.5 550.5 c 128,-1,13
 1489 590 1489 590 1489 668 c 0,14,15
 1489 742 1489 742 1457 780 c 0,16,17
 1424 817 1424 817 1365 817 c 0,18,19
 1335 817 1335 817 1303 805 c 0,20,21
 1272 794 1272 794 1241 768 c 1,22,-1
 1142 824 l 1,23,-1
 1157 1162 l 1,24,-1
 1586 1162 l 1,25,-1
 1586 1050 l 1,26,-1
 1281 1050 l 1,27,-1
 1274 910 l 1,28,29
 1300 929 1300 929 1346 936 c 0,30,31
 1390 943 1390 943 1409 943 c 0,32,33
 1520 943 1520 943 1590.5 869.5 c 128,-1,34
 1661 796 1661 796 1661 683 c 0,0,1
1041 1046 m 1,35,-1
 752 1046 l 1,36,-1
 752 844 l 1,37,-1
 976 844 l 1,38,-1
 976 730 l 1,39,-1
 752 730 l 1,40,-1
 752 404 l 1,41,-1
 582 404 l 1,42,-1
 582 1159 l 1,43,-1
 1041 1159 l 1,44,-1
 1041 1046 l 1,35,-1
1694 1536 m 1,45,-1
 2048 1536 l 1,46,-1
 2048 0 l 1,47,-1
 1694 0 l 1,48,-1
 1493 0 l 1,49,-1
 727 0 l 1,50,-1
 524 0 l 1,51,-1
 172 0 l 1,52,-1
 172 1536 l 1,53,-1
 524 1536 l 1,54,-1
 727 1536 l 1,55,-1
 1493 1536 l 1,56,-1
 1694 1536 l 1,45,-1
1384 1364 m 1,57,-1
 834 1364 l 1,58,-1
 633 1364 l 1,59,-1
 342 1364 l 1,60,-1
 342 172 l 1,61,-1
 633 172 l 1,62,-1
 834 172 l 1,63,-1
 1384 172 l 1,64,-1
 1587 172 l 1,65,-1
 1878 172 l 1,66,-1
 1878 1364 l 1,67,-1
 1587 1364 l 1,68,-1
 1384 1364 l 1,57,-1
EndSplineSet
EndChar

StartChar: F4
Encoding: 483 59908 465
Width: 2220
Flags: W
LayerCount: 2
Fore
SplineSet
1620 625 m 1,0,-1
 1566 625 l 1,1,-1
 1566 406 l 1,2,-1
 1413 406 l 1,3,-1
 1413 625 l 1,4,-1
 1082 625 l 1,5,-1
 1074 770 l 1,6,-1
 1464 1160 l 1,7,-1
 1566 1160 l 1,8,-1
 1566 734 l 1,9,-1
 1620 734 l 1,10,-1
 1620 625 l 1,0,-1
1415 734 m 1,11,-1
 1415 964 l 1,12,-1
 1186 734 l 1,13,-1
 1415 734 l 1,11,-1
1041 1046 m 1,14,-1
 752 1046 l 1,15,-1
 752 844 l 1,16,-1
 976 844 l 1,17,-1
 976 730 l 1,18,-1
 752 730 l 1,19,-1
 752 404 l 1,20,-1
 582 404 l 1,21,-1
 582 1159 l 1,22,-1
 1041 1159 l 1,23,-1
 1041 1046 l 1,14,-1
1694 1536 m 1,24,-1
 2048 1536 l 1,25,-1
 2048 0 l 1,26,-1
 1694 0 l 1,27,-1
 1493 0 l 1,28,-1
 727 0 l 1,29,-1
 524 0 l 1,30,-1
 172 0 l 1,31,-1
 172 1536 l 1,32,-1
 524 1536 l 1,33,-1
 727 1536 l 1,34,-1
 1493 1536 l 1,35,-1
 1694 1536 l 1,24,-1
1384 1364 m 1,36,-1
 834 1364 l 1,37,-1
 633 1364 l 1,38,-1
 342 1364 l 1,39,-1
 342 172 l 1,40,-1
 633 172 l 1,41,-1
 834 172 l 1,42,-1
 1384 172 l 1,43,-1
 1587 172 l 1,44,-1
 1878 172 l 1,45,-1
 1878 1364 l 1,46,-1
 1587 1364 l 1,47,-1
 1384 1364 l 1,36,-1
EndSplineSet
EndChar

StartChar: F3
Encoding: 484 59907 466
Width: 2220
Flags: W
LayerCount: 2
Fore
SplineSet
1640 624 m 0,0,1
 1640 519 1640 519 1567.5 455.5 c 128,-1,2
 1495 392 1495 392 1377 392 c 0,3,4
 1274 392 1274 392 1208 431 c 128,-1,5
 1142 470 1142 470 1109 530 c 1,6,-1
 1212 594 l 1,7,8
 1226 560 1226 560 1266 534 c 0,9,10
 1306 509 1306 509 1362 509 c 0,11,12
 1417 509 1417 509 1449 542 c 0,13,14
 1482 576 1482 576 1482 634 c 0,15,16
 1482 635 1482 635 1482 637 c 0,17,18
 1482 682 1482 682 1452 716 c 0,19,20
 1424 748 1424 748 1364 748 c 2,21,-1
 1288 748 l 1,22,-1
 1288 854 l 1,23,-1
 1368 854 l 2,24,25
 1421 854 1421 854 1446 878 c 0,26,27
 1472 903 1472 903 1472 952 c 0,28,29
 1472 954 1472 954 1472 956 c 128,-1,30
 1472 958 1472 958 1472 960 c 128,-1,31
 1472 962 1472 962 1472 964 c 0,32,33
 1472.04545455 965.636363636 1472.04545455 965.636363636 1472.04545455 967.256198347 c 0,34,35
 1472.04545455 1001.27272727 1472.04545455 1001.27272727 1452 1028 c 0,36,37
 1431 1056 1431 1056 1384 1056 c 0,38,39
 1342 1056 1342 1056 1318.5 1041 c 128,-1,40
 1295 1026 1295 1026 1283 1000 c 1,41,-1
 1148 1000 l 1,42,43
 1162 1070 1162 1070 1221 1120 c 128,-1,44
 1280 1170 1280 1170 1384 1170 c 0,45,46
 1386 1170 1386 1170 1388 1170 c 128,-1,47
 1390 1170 1390 1170 1392 1170 c 128,-1,48
 1394 1170 1394 1170 1396 1170 c 128,-1,49
 1397.88135593 1170.01694915 1397.88135593 1170.01694915 1399.74834818 1170.01694915 c 0,50,51
 1508.03389831 1170.01694915 1508.03389831 1170.01694915 1568 1113 c 0,52,53
 1629 1055 1629 1055 1629 974 c 0,54,55
 1629 901 1629 901 1592 861 c 0,56,57
 1556 822 1556 822 1512 810 c 1,58,59
 1566 790 1566 790 1603 744 c 128,-1,60
 1640 698 1640 698 1640 624 c 0,0,1
1041 1046 m 1,61,-1
 752 1046 l 1,62,-1
 752 844 l 1,63,-1
 976 844 l 1,64,-1
 976 730 l 1,65,-1
 752 730 l 1,66,-1
 752 404 l 1,67,-1
 582 404 l 1,68,-1
 582 1159 l 1,69,-1
 1041 1159 l 1,70,-1
 1041 1046 l 1,61,-1
1694 1536 m 1,71,-1
 2048 1536 l 1,72,-1
 2048 0 l 1,73,-1
 1694 0 l 1,74,-1
 1493 0 l 1,75,-1
 727 0 l 1,76,-1
 524 0 l 1,77,-1
 172 0 l 1,78,-1
 172 1536 l 1,79,-1
 524 1536 l 1,80,-1
 727 1536 l 1,81,-1
 1493 1536 l 1,82,-1
 1694 1536 l 1,71,-1
1384 1364 m 1,83,-1
 834 1364 l 1,84,-1
 633 1364 l 1,85,-1
 342 1364 l 1,86,-1
 342 172 l 1,87,-1
 633 172 l 1,88,-1
 834 172 l 1,89,-1
 1384 172 l 1,90,-1
 1587 172 l 1,91,-1
 1878 172 l 1,92,-1
 1878 1364 l 1,93,-1
 1587 1364 l 1,94,-1
 1384 1364 l 1,83,-1
EndSplineSet
EndChar

StartChar: F2
Encoding: 485 59906 467
Width: 2220
Flags: W
LayerCount: 2
Fore
SplineSet
1661 404 m 1,0,-1
 1147 404 l 1,1,-1
 1147 531 l 1,2,3
 1342 699 1342 699 1414 782 c 128,-1,4
 1486 865 1486 865 1486 932 c 0,5,6
 1486 982 1486 982 1462.5 1018 c 128,-1,7
 1439 1054 1439 1054 1388 1054 c 0,8,9
 1332 1054 1332 1054 1314 1033 c 128,-1,10
 1296 1012 1296 1012 1287 984 c 1,11,-1
 1142 984 l 1,12,13
 1164 1080 1164 1080 1234 1124 c 0,14,15
 1304 1169 1304 1169 1412 1169 c 0,16,17
 1529 1169 1529 1169 1592 1107 c 128,-1,18
 1655 1045 1655 1045 1655 953 c 0,19,20
 1655 854 1655 854 1568.5 752.5 c 128,-1,21
 1482 651 1482 651 1287 516 c 1,22,-1
 1661 516 l 1,23,-1
 1661 404 l 1,0,-1
1041 1046 m 1,24,-1
 752 1046 l 1,25,-1
 752 844 l 1,26,-1
 976 844 l 1,27,-1
 976 730 l 1,28,-1
 752 730 l 1,29,-1
 752 404 l 1,30,-1
 582 404 l 1,31,-1
 582 1159 l 1,32,-1
 1041 1159 l 1,33,-1
 1041 1046 l 1,24,-1
1694 1536 m 1,34,-1
 2048 1536 l 1,35,-1
 2048 0 l 1,36,-1
 1694 0 l 1,37,-1
 1493 0 l 1,38,-1
 727 0 l 1,39,-1
 524 0 l 1,40,-1
 172 0 l 1,41,-1
 172 1536 l 1,42,-1
 524 1536 l 1,43,-1
 727 1536 l 1,44,-1
 1493 1536 l 1,45,-1
 1694 1536 l 1,34,-1
1384 1364 m 1,46,-1
 834 1364 l 1,47,-1
 633 1364 l 1,48,-1
 342 1364 l 1,49,-1
 342 172 l 1,50,-1
 633 172 l 1,51,-1
 834 172 l 1,52,-1
 1384 172 l 1,53,-1
 1587 172 l 1,54,-1
 1878 172 l 1,55,-1
 1878 1364 l 1,56,-1
 1587 1364 l 1,57,-1
 1384 1364 l 1,46,-1
EndSplineSet
EndChar

StartChar: F1
Encoding: 486 59905 468
Width: 2220
Flags: W
LayerCount: 2
Fore
SplineSet
1534 404 m 1,0,-1
 1379 404 l 1,1,-1
 1379 978 l 1,2,-1
 1274 978 l 1,3,-1
 1274 1070 l 1,4,5
 1345 1076 1345 1076 1383 1108 c 128,-1,6
 1421 1140 1421 1140 1432 1158 c 1,7,-1
 1534 1158 l 1,8,-1
 1534 404 l 1,0,-1
1081 1046 m 1,9,-1
 792 1046 l 1,10,-1
 792 844 l 1,11,-1
 1016 844 l 1,12,-1
 1016 730 l 1,13,-1
 792 730 l 1,14,-1
 792 404 l 1,15,-1
 622 404 l 1,16,-1
 622 1159 l 1,17,-1
 1081 1159 l 1,18,-1
 1081 1046 l 1,9,-1
1694 1536 m 1,19,-1
 2048 1536 l 1,20,-1
 2048 0 l 1,21,-1
 1694 0 l 1,22,-1
 1493 0 l 1,23,-1
 727 0 l 1,24,-1
 524 0 l 1,25,-1
 172 0 l 1,26,-1
 172 1536 l 1,27,-1
 524 1536 l 1,28,-1
 727 1536 l 1,29,-1
 1493 1536 l 1,30,-1
 1694 1536 l 1,19,-1
1384 1364 m 1,31,-1
 834 1364 l 1,32,-1
 633 1364 l 1,33,-1
 342 1364 l 1,34,-1
 342 172 l 1,35,-1
 633 172 l 1,36,-1
 834 172 l 1,37,-1
 1384 172 l 1,38,-1
 1587 172 l 1,39,-1
 1878 172 l 1,40,-1
 1878 1364 l 1,41,-1
 1587 1364 l 1,42,-1
 1384 1364 l 1,31,-1
EndSplineSet
EndChar
